Hoogli-Light_b007.ufo
<glyph name="percent" format="1">
  <advance width="825"/>
  <unicode hex="0025"/>
  <outline>
    <contour>
      <point x="255" y="-6" type="curve" smooth="yes"/>
      <point x="264" y="-12"/>
      <point x="277" y="-8"/>
      <point x="282" y="1" type="curve" smooth="yes"/>
      <point x="580" y="510" type="line" smooth="yes"/>
      <point x="586" y="519"/>
      <point x="582" y="532"/>
      <point x="573" y="537" type="curve" smooth="yes"/>
      <point x="564" y="543"/>
      <point x="551" y="539"/>
      <point x="546" y="530" type="curve" smooth="yes"/>
      <point x="248" y="21" type="line" smooth="yes"/>
      <point x="242" y="12"/>
      <point x="246" y="-1"/>
    </contour>
    <contour>
      <point x="198" y="222" type="curve" smooth="yes"/>
      <point x="281" y="222"/>
      <point x="332" y="293"/>
      <point x="332" y="385" type="curve" smooth="yes"/>
      <point x="332" y="483"/>
      <point x="270" y="548"/>
      <point x="198" y="548" type="curve" smooth="yes"/>
      <point x="122" y="548"/>
      <point x="64" y="483"/>
      <point x="64" y="384" type="curve" smooth="yes"/>
      <point x="64" y="293"/>
      <point x="123" y="222"/>
    </contour>
    <contour>
      <point x="198" y="262" type="curve" smooth="yes"/>
      <point x="141" y="262"/>
      <point x="104" y="321"/>
      <point x="104" y="384" type="curve" smooth="yes"/>
      <point x="104" y="453"/>
      <point x="140" y="508"/>
      <point x="198" y="508" type="curve" smooth="yes"/>
      <point x="252" y="508"/>
      <point x="292" y="453"/>
      <point x="292" y="385" type="curve" smooth="yes"/>
      <point x="292" y="321"/>
      <point x="261" y="262"/>
    </contour>
    <contour>
      <point x="628" y="-20" type="curve" smooth="yes"/>
      <point x="710" y="-20"/>
      <point x="761" y="52"/>
      <point x="761" y="143" type="curve" smooth="yes"/>
      <point x="761" y="241"/>
      <point x="700" y="306"/>
      <point x="628" y="306" type="curve" smooth="yes"/>
      <point x="551" y="306"/>
      <point x="493" y="241"/>
      <point x="493" y="142" type="curve" smooth="yes"/>
      <point x="493" y="53"/>
      <point x="552" y="-20"/>
    </contour>
    <contour>
      <point x="628" y="20" type="curve" smooth="yes"/>
      <point x="570" y="20"/>
      <point x="533" y="79"/>
      <point x="533" y="142" type="curve" smooth="yes"/>
      <point x="533" y="211"/>
      <point x="569" y="266"/>
      <point x="628" y="266" type="curve" smooth="yes"/>
      <point x="682" y="266"/>
      <point x="721" y="211"/>
      <point x="721" y="143" type="curve" smooth="yes"/>
      <point x="721" y="80"/>
      <point x="690" y="20"/>
    </contour>
  </outline>
</glyph>
<glyph name="plus" format="1">
  <advance width="527"/>
  <unicode hex="002B"/>
  <outline>
    <contour>
      <point x="440" y="244" type="line" smooth="yes"/>
      <point x="451" y="244"/>
      <point x="460" y="253"/>
      <point x="460" y="264" type="curve" smooth="yes"/>
      <point x="460" y="275"/>
      <point x="451" y="284"/>
      <point x="440" y="284" type="curve" smooth="yes"/>
      <point x="86" y="284" type="line" smooth="yes"/>
      <point x="75" y="284"/>
      <point x="66" y="275"/>
      <point x="66" y="264" type="curve" smooth="yes"/>
      <point x="66" y="253"/>
      <point x="75" y="244"/>
      <point x="86" y="244" type="curve" smooth="yes"/>
    </contour>
    <contour>
      <point x="263" y="72" type="curve" smooth="yes"/>
      <point x="274" y="72"/>
      <point x="283" y="81"/>
      <point x="283" y="92" type="curve" smooth="yes"/>
      <point x="283" y="435" type="line" smooth="yes"/>
      <point x="283" y="446"/>
      <point x="274" y="455"/>
      <point x="263" y="455" type="curve" smooth="yes"/>
      <point x="252" y="455"/>
      <point x="243" y="446"/>
      <point x="243" y="435" type="curve" smooth="yes"/>
      <point x="243" y="92" type="line" smooth="yes"/>
      <point x="243" y="81"/>
      <point x="252" y="72"/>
    </contour>
  </outline>
</glyph>
<glyph name="less" format="1">
  <advance width="527"/>
  <unicode hex="003C"/>
  <outline>
    <contour>
      <point x="418" y="92" type="line" smooth="yes"/>
      <point x="428" y="87"/>
      <point x="440" y="92"/>
      <point x="444" y="102" type="curve" smooth="yes"/>
      <point x="449" y="112"/>
      <point x="444" y="124"/>
      <point x="434" y="128" type="curve" smooth="yes"/>
      <point x="96" y="281" type="line" smooth="yes"/>
      <point x="86" y="286"/>
      <point x="74" y="281"/>
      <point x="70" y="271" type="curve" smooth="yes"/>
      <point x="65" y="261"/>
      <point x="70" y="249"/>
      <point x="80" y="245" type="curve" smooth="yes"/>
    </contour>
    <contour>
      <point x="428" y="396" type="line" smooth="yes"/>
      <point x="438" y="400"/>
      <point x="443" y="412"/>
      <point x="438" y="422" type="curve" smooth="yes"/>
      <point x="434" y="432"/>
      <point x="422" y="437"/>
      <point x="412" y="432" type="curve" smooth="yes"/>
      <point x="86" y="285" type="line" smooth="yes"/>
      <point x="76" y="281"/>
      <point x="71" y="269"/>
      <point x="76" y="259" type="curve" smooth="yes"/>
      <point x="80" y="249"/>
      <point x="92" y="244"/>
      <point x="102" y="249" type="curve" smooth="yes"/>
    </contour>
  </outline>
</glyph>
<glyph name="greater" format="1">
  <advance width="511"/>
  <unicode hex="003E"/>
  <outline>
    <contour>
      <point x="443" y="245" type="line" smooth="yes"/>
      <point x="453" y="249"/>
      <point x="458" y="261"/>
      <point x="453" y="271" type="curve" smooth="yes"/>
      <point x="449" y="281"/>
      <point x="437" y="286"/>
      <point x="427" y="281" type="curve" smooth="yes"/>
      <point x="89" y="128" type="line" smooth="yes"/>
      <point x="79" y="124"/>
      <point x="74" y="112"/>
      <point x="79" y="102" type="curve" smooth="yes"/>
      <point x="83" y="92"/>
      <point x="95" y="87"/>
      <point x="105" y="92" type="curve" smooth="yes"/>
    </contour>
    <contour>
      <point x="421" y="249" type="line" smooth="yes"/>
      <point x="431" y="244"/>
      <point x="443" y="249"/>
      <point x="447" y="259" type="curve" smooth="yes"/>
      <point x="452" y="269"/>
      <point x="447" y="281"/>
      <point x="437" y="285" type="curve" smooth="yes"/>
      <point x="112" y="432" type="line" smooth="yes"/>
      <point x="102" y="437"/>
      <point x="90" y="432"/>
      <point x="86" y="422" type="curve" smooth="yes"/>
      <point x="81" y="412"/>
      <point x="86" y="400"/>
      <point x="96" y="396" type="curve" smooth="yes"/>
    </contour>
  </outline>
</glyph>
<glyph name="at" format="1">
  <advance width="668"/>
  <unicode hex="0040"/>
  <outline>
    <contour>
      <point x="341" y="-20" type="curve" smooth="yes"/>
      <point x="409" y="-20"/>
      <point x="467" y="-4"/>
      <point x="510" y="15" type="curve" smooth="yes"/>
      <point x="520" y="19"/>
      <point x="525" y="31"/>
      <point x="520" y="41" type="curve" smooth="yes"/>
      <point x="516" y="51"/>
      <point x="504" y="56"/>
      <point x="494" y="51" type="curve" smooth="yes"/>
      <point x="455" y="34"/>
      <point x="403" y="20"/>
      <point x="341" y="20" type="curve" smooth="yes"/>
      <point x="190" y="20"/>
      <point x="85" y="125"/>
      <point x="85" y="261" type="curve" smooth="yes"/>
      <point x="85" y="397"/>
      <point x="192" y="511"/>
      <point x="338" y="511" type="curve" smooth="yes"/>
      <point x="494" y="511"/>
      <point x="586" y="398"/>
      <point x="586" y="275" type="curve" smooth="yes"/>
      <point x="586" y="212"/>
      <point x="559" y="167"/>
      <point x="514" y="167" type="curve" smooth="yes"/>
      <point x="476" y="167"/>
      <point x="448" y="200"/>
      <point x="448" y="249" type="curve" smooth="yes"/>
      <point x="448" y="386" type="line" smooth="yes"/>
      <point x="448" y="397"/>
      <point x="439" y="406"/>
      <point x="428" y="406" type="curve" smooth="yes"/>
      <point x="417" y="406"/>
      <point x="408" y="397"/>
      <point x="408" y="386" type="curve" smooth="yes"/>
      <point x="408" y="249" type="line" smooth="yes"/>
      <point x="408" y="170"/>
      <point x="458" y="127"/>
      <point x="514" y="127" type="curve" smooth="yes"/>
      <point x="575" y="127"/>
      <point x="626" y="176"/>
      <point x="626" y="275" type="curve" smooth="yes"/>
      <point x="626" y="418"/>
      <point x="520" y="551"/>
      <point x="338" y="551" type="curve" smooth="yes"/>
      <point x="168" y="551"/>
      <point x="45" y="419"/>
      <point x="45" y="261" type="curve" smooth="yes"/>
      <point x="45" y="103"/>
      <point x="164" y="-20"/>
    </contour>
    <contour>
      <point x="314" y="128" type="curve" smooth="yes"/>
      <point x="362" y="128"/>
      <point x="411" y="155"/>
      <point x="444" y="213" type="curve" smooth="yes"/>
      <point x="450" y="222"/>
      <point x="446" y="235"/>
      <point x="437" y="240" type="curve" smooth="yes"/>
      <point x="428" y="246"/>
      <point x="415" y="242"/>
      <point x="410" y="233" type="curve" smooth="yes"/>
      <point x="385" y="191"/>
      <point x="350" y="168"/>
      <point x="314" y="168" type="curve" smooth="yes"/>
      <point x="272" y="168"/>
      <point x="236" y="202"/>
      <point x="236" y="257" type="curve" smooth="yes"/>
      <point x="236" y="323"/>
      <point x="280" y="366"/>
      <point x="333" y="366" type="curve" smooth="yes"/>
      <point x="367" y="366"/>
      <point x="393" y="356"/>
      <point x="417" y="340" type="curve" smooth="yes"/>
      <point x="426" y="334"/>
      <point x="439" y="337"/>
      <point x="445" y="346" type="curve" smooth="yes"/>
      <point x="451" y="355"/>
      <point x="448" y="368"/>
      <point x="439" y="374" type="curve" smooth="yes"/>
      <point x="409" y="394"/>
      <point x="375" y="406"/>
      <point x="333" y="406" type="curve" smooth="yes"/>
      <point x="260" y="406"/>
      <point x="196" y="351"/>
      <point x="196" y="257" type="curve" smooth="yes"/>
      <point x="196" y="174"/>
      <point x="254" y="128"/>
    </contour>
  </outline>
</glyph>
<glyph name="I" format="1">
  <advance width="239"/>
  <unicode hex="0049"/>
  <outline>
    <contour>
      <point x="119" y="-9" type="curve" smooth="yes"/>
      <point x="130" y="-9"/>
      <point x="139" y="0"/>
      <point x="139" y="11" type="curve" smooth="yes"/>
      <point x="139" y="520" type="line" smooth="yes"/>
      <point x="139" y="531"/>
      <point x="130" y="540"/>
      <point x="119" y="540" type="curve" smooth="yes"/>
      <point x="108" y="540"/>
      <point x="99" y="531"/>
      <point x="99" y="520" type="curve" smooth="yes"/>
      <point x="99" y="11" type="line" smooth="yes"/>
      <point x="99" y="0"/>
      <point x="108" y="-9"/>
    </contour>
    <contour>
      <point x="120" y="27" type="move" name="ogonek"/>
    </contour>
    <contour>
      <point x="119" y="-9" type="move" name="bottom"/>
    </contour>
    <contour>
      <point x="119" y="540" type="move" name="top"/>
    </contour>
  </outline>
</glyph>
<glyph name="M" format="1">
  <advance width="831"/>
  <unicode hex="004D"/>
  <outline>
    <contour>
      <point x="422" y="11" type="curve" smooth="yes"/>
      <point x="431" y="16"/>
      <point x="436" y="28"/>
      <point x="431" y="38" type="curve" smooth="yes"/>
      <point x="361" y="185"/>
      <point x="262" y="391"/>
      <point x="197" y="525" type="curve" smooth="yes"/>
      <point x="192" y="534"/>
      <point x="180" y="539"/>
      <point x="170" y="534" type="curve" smooth="yes"/>
      <point x="161" y="529"/>
      <point x="156" y="517"/>
      <point x="161" y="507" type="curve" smooth="yes"/>
      <point x="226" y="373"/>
      <point x="325" y="167"/>
      <point x="395" y="20" type="curve" smooth="yes"/>
      <point x="400" y="11"/>
      <point x="412" y="6"/>
    </contour>
    <contour>
      <point x="93" y="-11" type="curve" smooth="yes"/>
      <point x="104" y="-12"/>
      <point x="114" y="-4"/>
      <point x="115" y="7" type="curve" smooth="yes"/>
      <point x="128" y="128"/>
      <point x="161" y="376"/>
      <point x="187" y="526" type="curve" smooth="yes"/>
      <point x="189" y="536"/>
      <point x="181" y="547"/>
      <point x="170" y="549" type="curve" smooth="yes"/>
      <point x="160" y="551"/>
      <point x="149" y="543"/>
      <point x="147" y="532" type="curve" smooth="yes"/>
      <point x="121" y="382"/>
      <point x="88" y="132"/>
      <point x="75" y="11" type="curve" smooth="yes"/>
      <point x="74" y="0"/>
      <point x="82" y="-10"/>
    </contour>
    <contour>
      <point x="409" y="23" type="curve" smooth="yes"/>
      <point x="419" y="18"/>
      <point x="431" y="23"/>
      <point x="435" y="33" type="curve" smooth="yes"/>
      <point x="498" y="176"/>
      <point x="582" y="360"/>
      <point x="659" y="513" type="curve" smooth="yes"/>
      <point x="664" y="523"/>
      <point x="660" y="535"/>
      <point x="650" y="540" type="curve" smooth="yes"/>
      <point x="640" y="545"/>
      <point x="628" y="541"/>
      <point x="623" y="531" type="curve" smooth="yes"/>
      <point x="546" y="378"/>
      <point x="462" y="192"/>
      <point x="399" y="49" type="curve" smooth="yes"/>
      <point x="394" y="39"/>
      <point x="399" y="27"/>
    </contour>
    <contour>
      <point x="738" y="-11" type="curve" smooth="yes"/>
      <point x="748" y="-9"/>
      <point x="756" y="1"/>
      <point x="755" y="12" type="curve" smooth="yes"/>
      <point x="736" y="152"/>
      <point x="701" y="370"/>
      <point x="669" y="534" type="curve" smooth="yes"/>
      <point x="667" y="544"/>
      <point x="656" y="552"/>
      <point x="645" y="550" type="curve" smooth="yes"/>
      <point x="635" y="548"/>
      <point x="627" y="537"/>
      <point x="629" y="526" type="curve" smooth="yes"/>
      <point x="661" y="364"/>
      <point x="696" y="146"/>
      <point x="715" y="6" type="curve" smooth="yes"/>
      <point x="717" y="-4"/>
      <point x="727" y="-12"/>
    </contour>
  </outline>
</glyph>
<glyph name="O" format="1">
  <advance width="642"/>
  <unicode hex="004F"/>
  <outline>
    <contour>
      <point x="323" y="-19" type="curve" smooth="yes"/>
      <point x="489" y="-19"/>
      <point x="587" y="105"/>
      <point x="587" y="265" type="curve" smooth="yes"/>
      <point x="587" y="433"/>
      <point x="469" y="550"/>
      <point x="323" y="550" type="curve" smooth="yes"/>
      <point x="164" y="550"/>
      <point x="55" y="433"/>
      <point x="55" y="262" type="curve" smooth="yes"/>
      <point x="55" y="105"/>
      <point x="166" y="-19"/>
    </contour>
    <contour>
      <point x="323" y="21" type="curve" smooth="yes"/>
      <point x="188" y="21"/>
      <point x="95" y="129"/>
      <point x="95" y="262" type="curve" smooth="yes"/>
      <point x="95" y="407"/>
      <point x="186" y="510"/>
      <point x="323" y="510" type="curve" smooth="yes"/>
      <point x="449" y="510"/>
      <point x="547" y="407"/>
      <point x="547" y="265" type="curve" smooth="yes"/>
      <point x="547" y="129"/>
      <point x="465" y="21"/>
    </contour>
    <contour>
      <point x="323" y="551" type="move" name="top"/>
    </contour>
    <contour>
      <point x="324" y="-17" type="move" name="bottom"/>
    </contour>
  </outline>
</glyph>
<glyph name="Q" format="1">
  <advance width="642"/>
  <unicode hex="0051"/>
  <outline>
    <contour>
      <point x="323" y="-15" type="curve" smooth="yes"/>
      <point x="489" y="-15"/>
      <point x="587" y="108"/>
      <point x="587" y="268" type="curve" smooth="yes"/>
      <point x="587" y="437"/>
      <point x="469" y="553"/>
      <point x="323" y="553" type="curve" smooth="yes"/>
      <point x="164" y="553"/>
      <point x="55" y="437"/>
      <point x="55" y="265" type="curve" smooth="yes"/>
      <point x="55" y="108"/>
      <point x="166" y="-15"/>
    </contour>
    <contour>
      <point x="523" y="-156" type="curve" smooth="yes"/>
      <point x="534" y="-156"/>
      <point x="543" y="-147"/>
      <point x="543" y="-136" type="curve" smooth="yes"/>
      <point x="543" y="-125"/>
      <point x="534" y="-116"/>
      <point x="523" y="-116" type="curve" smooth="yes"/>
      <point x="423" y="-116"/>
      <point x="356" y="-63"/>
      <point x="338" y="7" type="curve" smooth="yes"/>
      <point x="336" y="17"/>
      <point x="324" y="24"/>
      <point x="314" y="21" type="curve" smooth="yes"/>
      <point x="304" y="19"/>
      <point x="297" y="7"/>
      <point x="300" y="-3" type="curve" smooth="yes"/>
      <point x="322" y="-87"/>
      <point x="399" y="-156"/>
    </contour>
    <contour>
      <point x="323" y="25" type="curve" smooth="yes"/>
      <point x="188" y="25"/>
      <point x="95" y="132"/>
      <point x="95" y="265" type="curve" smooth="yes"/>
      <point x="95" y="411"/>
      <point x="186" y="513"/>
      <point x="323" y="513" type="curve" smooth="yes"/>
      <point x="449" y="513"/>
      <point x="547" y="411"/>
      <point x="547" y="268" type="curve" smooth="yes"/>
      <point x="547" y="132"/>
      <point x="465" y="25"/>
    </contour>
  </outline>
</glyph>
<glyph name="T" format="1">
  <advance width="543"/>
  <unicode hex="0054"/>
  <outline>
    <contour>
      <point x="270" y="-9" type="curve" smooth="yes"/>
      <point x="281" y="-9"/>
      <point x="290" y="0"/>
      <point x="290" y="11" type="curve" smooth="yes"/>
      <point x="290" y="520" type="line" smooth="yes"/>
      <point x="290" y="531"/>
      <point x="281" y="540"/>
      <point x="270" y="540" type="curve" smooth="yes"/>
      <point x="259" y="540"/>
      <point x="250" y="531"/>
      <point x="250" y="520" type="curve" smooth="yes"/>
      <point x="250" y="11" type="line" smooth="yes"/>
      <point x="250" y="0"/>
      <point x="259" y="-9"/>
    </contour>
    <contour>
      <point x="496" y="500" type="line" smooth="yes"/>
      <point x="507" y="500"/>
      <point x="516" y="509"/>
      <point x="516" y="520" type="curve" smooth="yes"/>
      <point x="516" y="531"/>
      <point x="507" y="540"/>
      <point x="496" y="540" type="curve" smooth="yes"/>
      <point x="47" y="540" type="line" smooth="yes"/>
      <point x="36" y="540"/>
      <point x="27" y="531"/>
      <point x="27" y="520" type="curve" smooth="yes"/>
      <point x="27" y="509"/>
      <point x="36" y="500"/>
      <point x="47" y="500" type="curve" smooth="yes"/>
    </contour>
    <contour>
      <point x="270" y="540" type="move" name="top"/>
    </contour>
    <contour>
      <point x="270" y="-8" type="move" name="bottom"/>
    </contour>
  </outline>
</glyph>
<glyph name="X" format="1">
  <advance width="561"/>
  <unicode hex="0058"/>
  <outline>
    <contour>
      <point x="500" y="-5" type="curve" smooth="yes"/>
      <point x="508" y="1"/>
      <point x="511" y="14"/>
      <point x="504" y="23" type="curve" smooth="yes"/>
      <point x="442" y="110"/>
      <point x="205" y="384"/>
      <point x="104" y="531" type="curve" smooth="yes"/>
      <point x="98" y="540"/>
      <point x="86" y="543"/>
      <point x="77" y="536" type="curve" smooth="yes"/>
      <point x="68" y="530"/>
      <point x="65" y="518"/>
      <point x="72" y="509" type="curve" smooth="yes"/>
      <point x="173" y="362"/>
      <point x="410" y="88"/>
      <point x="472" y="-1" type="curve" smooth="yes"/>
      <point x="478" y="-9"/>
      <point x="491" y="-12"/>
    </contour>
    <contour>
      <point x="62" y="-5" type="curve" smooth="yes"/>
      <point x="71" y="-11"/>
      <point x="84" y="-10"/>
      <point x="90" y="-1" type="curve" smooth="yes"/>
      <point x="173" y="111"/>
      <point x="394" y="369"/>
      <point x="484" y="509" type="curve" smooth="yes"/>
      <point x="490" y="518"/>
      <point x="487" y="531"/>
      <point x="478" y="537" type="curve" smooth="yes"/>
      <point x="469" y="543"/>
      <point x="456" y="540"/>
      <point x="450" y="531" type="curve" smooth="yes"/>
      <point x="360" y="391"/>
      <point x="141" y="135"/>
      <point x="58" y="23" type="curve" smooth="yes"/>
      <point x="52" y="14"/>
      <point x="53" y="1"/>
    </contour>
  </outline>
</glyph>
<glyph name="Y" format="1">
  <advance width="558"/>
  <unicode hex="0059"/>
  <outline>
    <contour>
      <point x="269" y="178" type="curve" smooth="yes"/>
      <point x="278" y="172"/>
      <point x="290" y="173"/>
      <point x="297" y="182" type="curve" smooth="yes"/>
      <point x="349" y="251"/>
      <point x="469" y="437"/>
      <point x="512" y="510" type="curve" smooth="yes"/>
      <point x="518" y="519"/>
      <point x="515" y="532"/>
      <point x="505" y="537" type="curve" smooth="yes"/>
      <point x="496" y="543"/>
      <point x="483" y="540"/>
      <point x="478" y="530" type="curve" smooth="yes"/>
      <point x="435" y="459"/>
      <point x="317" y="275"/>
      <point x="265" y="206" type="curve" smooth="yes"/>
      <point x="259" y="197"/>
      <point x="260" y="185"/>
    </contour>
    <contour>
      <point x="281" y="-9" type="curve" smooth="yes"/>
      <point x="292" y="-9"/>
      <point x="301" y="0"/>
      <point x="301" y="11" type="curve" smooth="yes"/>
      <point x="301" y="187" type="line" smooth="yes"/>
      <point x="301" y="198"/>
      <point x="292" y="207"/>
      <point x="281" y="207" type="curve" smooth="yes"/>
      <point x="270" y="207"/>
      <point x="261" y="198"/>
      <point x="261" y="187" type="curve" smooth="yes"/>
      <point x="261" y="11" type="line" smooth="yes"/>
      <point x="261" y="0"/>
      <point x="270" y="-9"/>
    </contour>
    <contour>
      <point x="290" y="184" type="curve" smooth="yes"/>
      <point x="299" y="190"/>
      <point x="300" y="203"/>
      <point x="294" y="212" type="curve" smooth="yes"/>
      <point x="249" y="272"/>
      <point x="124" y="458"/>
      <point x="80" y="530" type="curve" smooth="yes"/>
      <point x="75" y="540"/>
      <point x="62" y="543"/>
      <point x="53" y="537" type="curve" smooth="yes"/>
      <point x="43" y="532"/>
      <point x="40" y="519"/>
      <point x="46" y="510" type="curve" smooth="yes"/>
      <point x="90" y="436"/>
      <point x="217" y="248"/>
      <point x="262" y="188" type="curve" smooth="yes"/>
      <point x="268" y="179"/>
      <point x="281" y="178"/>
    </contour>
    <contour>
      <point x="276" y="515" type="move" name="top"/>
    </contour>
  </outline>
</glyph>
<glyph name="bracketleft" format="1">
  <advance width="322"/>
  <unicode hex="005B"/>
  <outline>
    <contour>
      <point x="230" y="-113" type="line" smooth="yes"/>
      <point x="241" y="-113"/>
      <point x="250" y="-104"/>
      <point x="250" y="-93" type="curve" smooth="yes"/>
      <point x="250" y="-82"/>
      <point x="241" y="-73"/>
      <point x="230" y="-73" type="curve" smooth="yes"/>
      <point x="88" y="-73" type="line"/>
      <point x="108" y="-93" type="line"/>
      <point x="108" y="620" type="line"/>
      <point x="88" y="600" type="line"/>
      <point x="230" y="600" type="line" smooth="yes"/>
      <point x="241" y="600"/>
      <point x="250" y="609"/>
      <point x="250" y="620" type="curve" smooth="yes"/>
      <point x="250" y="631"/>
      <point x="241" y="640"/>
      <point x="230" y="640" type="curve" smooth="yes"/>
      <point x="88" y="640" type="line" smooth="yes"/>
      <point x="77" y="640"/>
      <point x="68" y="631"/>
      <point x="68" y="620" type="curve" smooth="yes"/>
      <point x="68" y="-93" type="line" smooth="yes"/>
      <point x="68" y="-104"/>
      <point x="77" y="-113"/>
      <point x="88" y="-113" type="curve" smooth="yes"/>
    </contour>
  </outline>
</glyph>
<glyph name="bracketright" format="1">
  <advance width="322"/>
  <unicode hex="005D"/>
  <outline>
    <contour>
      <point x="234" y="-105" type="line" smooth="yes"/>
      <point x="245" y="-105"/>
      <point x="254" y="-96"/>
      <point x="254" y="-85" type="curve" smooth="yes"/>
      <point x="254" y="628" type="line" smooth="yes"/>
      <point x="254" y="639"/>
      <point x="245" y="648"/>
      <point x="234" y="648" type="curve" smooth="yes"/>
      <point x="92" y="648" type="line" smooth="yes"/>
      <point x="81" y="648"/>
      <point x="72" y="639"/>
      <point x="72" y="628" type="curve" smooth="yes"/>
      <point x="72" y="617"/>
      <point x="81" y="608"/>
      <point x="92" y="608" type="curve" smooth="yes"/>
      <point x="234" y="608" type="line"/>
      <point x="214" y="628" type="line"/>
      <point x="214" y="-85" type="line"/>
      <point x="234" y="-65" type="line"/>
      <point x="92" y="-65" type="line" smooth="yes"/>
      <point x="81" y="-65"/>
      <point x="72" y="-74"/>
      <point x="72" y="-85" type="curve" smooth="yes"/>
      <point x="72" y="-96"/>
      <point x="81" y="-105"/>
      <point x="92" y="-105" type="curve" smooth="yes"/>
    </contour>
  </outline>
</glyph>
<glyph name="b" format="1">
  <advance width="510"/>
  <unicode hex="0062"/>
  <outline>
    <contour>
      <point x="266" y="-10" type="curve" smooth="yes"/>
      <point x="378" y="-10"/>
      <point x="459" y="67"/>
      <point x="459" y="189" type="curve" smooth="yes"/>
      <point x="459" y="311"/>
      <point x="378" y="389"/>
      <point x="280" y="389" type="curve" smooth="yes"/>
      <point x="209" y="389"/>
      <point x="137" y="341"/>
      <point x="85" y="259" type="curve" smooth="yes"/>
      <point x="79" y="249"/>
      <point x="82" y="237"/>
      <point x="91" y="231" type="curve" smooth="yes"/>
      <point x="101" y="225"/>
      <point x="113" y="228"/>
      <point x="119" y="237" type="curve" smooth="yes"/>
      <point x="161" y="305"/>
      <point x="221" y="349"/>
      <point x="280" y="349" type="curve" smooth="yes"/>
      <point x="358" y="349"/>
      <point x="419" y="283"/>
      <point x="419" y="189" type="curve" smooth="yes"/>
      <point x="419" y="93"/>
      <point x="356" y="30"/>
      <point x="266" y="30" type="curve" smooth="yes"/>
      <point x="208" y="30"/>
      <point x="158" y="43"/>
      <point x="111" y="69" type="curve" smooth="yes"/>
      <point x="101" y="74"/>
      <point x="89" y="70"/>
      <point x="83" y="61" type="curve" smooth="yes"/>
      <point x="78" y="51"/>
      <point x="82" y="39"/>
      <point x="91" y="33" type="curve" smooth="yes"/>
      <point x="144" y="5"/>
      <point x="200" y="-10"/>
    </contour>
    <contour>
      <point x="101" y="-9" type="curve" smooth="yes"/>
      <point x="112" y="-9"/>
      <point x="121" y="0"/>
      <point x="121" y="11" type="curve" smooth="yes"/>
      <point x="121" y="547" type="line" smooth="yes"/>
      <point x="121" y="558"/>
      <point x="112" y="567"/>
      <point x="101" y="567" type="curve" smooth="yes"/>
      <point x="90" y="567"/>
      <point x="81" y="558"/>
      <point x="81" y="547" type="curve" smooth="yes"/>
      <point x="81" y="11" type="line" smooth="yes"/>
      <point x="81" y="0"/>
      <point x="90" y="-9"/>
    </contour>
  </outline>
</glyph>
<glyph name="i" format="1">
  <advance width="214"/>
  <unicode hex="0069"/>
  <outline>
    <contour>
      <point x="107" y="-11" type="curve" smooth="yes"/>
      <point x="118" y="-11"/>
      <point x="127" y="-2"/>
      <point x="127" y="9" type="curve" smooth="yes"/>
      <point x="127" y="368" type="line" smooth="yes"/>
      <point x="127" y="379"/>
      <point x="118" y="388"/>
      <point x="107" y="388" type="curve" smooth="yes"/>
      <point x="96" y="388"/>
      <point x="87" y="379"/>
      <point x="87" y="368" type="curve" smooth="yes"/>
      <point x="87" y="9" type="line" smooth="yes"/>
      <point x="87" y="-2"/>
      <point x="96" y="-11"/>
    </contour>
    <contour>
      <point x="108" y="514" type="curve" smooth="yes"/>
      <point x="128" y="514"/>
      <point x="146" y="532"/>
      <point x="146" y="559" type="curve" smooth="yes"/>
      <point x="146" y="588"/>
      <point x="128" y="607"/>
      <point x="107" y="607" type="curve" smooth="yes"/>
      <point x="85" y="607"/>
      <point x="68" y="588"/>
      <point x="68" y="559" type="curve" smooth="yes"/>
      <point x="68" y="533"/>
      <point x="85" y="514"/>
    </contour>
    <contour>
      <point x="107" y="-9" type="move" name="bottom"/>
    </contour>
  </outline>
</glyph>
<glyph name="l" format="1">
  <advance width="214"/>
  <unicode hex="006C"/>
  <outline>
    <contour>
      <point x="107" y="-10" type="curve" smooth="yes"/>
      <point x="118" y="-10"/>
      <point x="127" y="-1"/>
      <point x="127" y="10" type="curve" smooth="yes"/>
      <point x="127" y="547" type="line" smooth="yes"/>
      <point x="127" y="558"/>
      <point x="118" y="567"/>
      <point x="107" y="567" type="curve" smooth="yes"/>
      <point x="96" y="567"/>
      <point x="87" y="558"/>
      <point x="87" y="547" type="curve" smooth="yes"/>
      <point x="87" y="10" type="line" smooth="yes"/>
      <point x="87" y="-1"/>
      <point x="96" y="-10"/>
    </contour>
    <contour>
      <point x="108" y="569" type="move" name="top"/>
    </contour>
    <contour>
      <point x="106" y="-8" type="move" name="bottom"/>
    </contour>
  </outline>
</glyph>
<glyph name="m" format="1">
  <advance width="760"/>
  <unicode hex="006D"/>
  <outline>
    <contour>
      <point x="670" y="-6" type="curve" smooth="yes"/>
      <point x="681" y="-6"/>
      <point x="690" y="3"/>
      <point x="690" y="14" type="curve" smooth="yes"/>
      <point x="690" y="235" type="line" smooth="yes"/>
      <point x="690" y="362"/>
      <point x="628" y="394"/>
      <point x="555" y="394" type="curve" smooth="yes"/>
      <point x="490" y="394"/>
      <point x="422" y="350"/>
      <point x="371" y="293" type="curve" smooth="yes"/>
      <point x="364" y="285"/>
      <point x="365" y="272"/>
      <point x="373" y="265" type="curve" smooth="yes"/>
      <point x="381" y="258"/>
      <point x="394" y="259"/>
      <point x="401" y="267" type="curve" smooth="yes"/>
      <point x="444" y="314"/>
      <point x="500" y="354"/>
      <point x="555" y="354" type="curve" smooth="yes"/>
      <point x="610" y="354"/>
      <point x="650" y="324"/>
      <point x="650" y="235" type="curve" smooth="yes"/>
      <point x="650" y="14" type="line" smooth="yes"/>
      <point x="650" y="3"/>
      <point x="659" y="-6"/>
    </contour>
    <contour>
      <point x="101" y="-6" type="curve" smooth="yes"/>
      <point x="112" y="-6"/>
      <point x="121" y="3"/>
      <point x="121" y="14" type="curve" smooth="yes"/>
      <point x="121" y="374" type="line" smooth="yes"/>
      <point x="121" y="385"/>
      <point x="112" y="394"/>
      <point x="101" y="394" type="curve" smooth="yes"/>
      <point x="90" y="394"/>
      <point x="81" y="385"/>
      <point x="81" y="374" type="curve" smooth="yes"/>
      <point x="81" y="14" type="line" smooth="yes"/>
      <point x="81" y="3"/>
      <point x="90" y="-6"/>
    </contour>
    <contour>
      <point x="386" y="-6" type="curve" smooth="yes"/>
      <point x="397" y="-6"/>
      <point x="406" y="3"/>
      <point x="406" y="14" type="curve" smooth="yes"/>
      <point x="406" y="235" type="line" smooth="yes"/>
      <point x="406" y="362"/>
      <point x="345" y="394"/>
      <point x="272" y="394" type="curve" smooth="yes"/>
      <point x="207" y="394"/>
      <point x="138" y="350"/>
      <point x="88" y="293" type="curve" smooth="yes"/>
      <point x="81" y="285"/>
      <point x="82" y="272"/>
      <point x="90" y="265" type="curve" smooth="yes"/>
      <point x="98" y="258"/>
      <point x="111" y="259"/>
      <point x="118" y="267" type="curve" smooth="yes"/>
      <point x="160" y="314"/>
      <point x="217" y="354"/>
      <point x="272" y="354" type="curve" smooth="yes"/>
      <point x="327" y="354"/>
      <point x="366" y="324"/>
      <point x="366" y="235" type="curve" smooth="yes"/>
      <point x="366" y="14" type="line" smooth="yes"/>
      <point x="366" y="3"/>
      <point x="375" y="-6"/>
    </contour>
  </outline>
</glyph>
<glyph name="r" format="1">
  <advance width="351"/>
  <unicode hex="0072"/>
  <outline>
    <contour>
      <point x="91" y="219" type="curve" smooth="yes"/>
      <point x="100" y="213"/>
      <point x="113" y="216"/>
      <point x="119" y="225" type="curve" smooth="yes"/>
      <point x="164" y="297"/>
      <point x="219" y="343"/>
      <point x="305" y="354" type="curve" smooth="yes"/>
      <point x="315" y="356"/>
      <point x="323" y="366"/>
      <point x="322" y="377" type="curve" smooth="yes"/>
      <point x="320" y="387"/>
      <point x="310" y="395"/>
      <point x="299" y="394" type="curve" smooth="yes"/>
      <point x="201" y="381"/>
      <point x="138" y="329"/>
      <point x="85" y="247" type="curve" smooth="yes"/>
      <point x="79" y="238"/>
      <point x="82" y="225"/>
    </contour>
    <contour>
      <point x="101" y="-6" type="curve" smooth="yes"/>
      <point x="112" y="-6"/>
      <point x="121" y="3"/>
      <point x="121" y="14" type="curve" smooth="yes"/>
      <point x="121" y="374" type="line" smooth="yes"/>
      <point x="121" y="385"/>
      <point x="112" y="394"/>
      <point x="101" y="394" type="curve" smooth="yes"/>
      <point x="90" y="394"/>
      <point x="81" y="385"/>
      <point x="81" y="374" type="curve" smooth="yes"/>
      <point x="81" y="14" type="line" smooth="yes"/>
      <point x="81" y="3"/>
      <point x="90" y="-6"/>
    </contour>
    <contour>
      <point x="190" y="396" type="move" name="top"/>
    </contour>
    <contour>
      <point x="103" y="-5" type="move" name="bottom"/>
    </contour>
  </outline>
</glyph>
<glyph name="y" format="1">
  <advance width="443"/>
  <unicode hex="0079"/>
  <outline>
    <contour>
      <point x="61" y="-181" type="curve" smooth="yes"/>
      <point x="130" y="-142"/>
      <point x="192" y="-94"/>
      <point x="253" y="10" type="curve" smooth="yes"/>
      <point x="310" y="105"/>
      <point x="374" y="252"/>
      <point x="409" y="372" type="curve" smooth="yes"/>
      <point x="412" y="383"/>
      <point x="406" y="394"/>
      <point x="396" y="397" type="curve" smooth="yes"/>
      <point x="385" y="400"/>
      <point x="374" y="394"/>
      <point x="371" y="384" type="curve" smooth="yes"/>
      <point x="336" y="266"/>
      <point x="274" y="123"/>
      <point x="219" y="30" type="curve" smooth="yes"/>
      <point x="162" y="-66"/>
      <point x="104" y="-110"/>
      <point x="41" y="-147" type="curve" smooth="yes"/>
      <point x="32" y="-152"/>
      <point x="28" y="-165"/>
      <point x="34" y="-174" type="curve" smooth="yes"/>
      <point x="39" y="-183"/>
      <point x="52" y="-187"/>
    </contour>
    <contour>
      <point x="244" y="3" type="curve" smooth="yes"/>
      <point x="253" y="9"/>
      <point x="256" y="22"/>
      <point x="250" y="31" type="curve" smooth="yes"/>
      <point x="196" y="113"/>
      <point x="128" y="227"/>
      <point x="72" y="386" type="curve" smooth="yes"/>
      <point x="68" y="396"/>
      <point x="57" y="401"/>
      <point x="46" y="398" type="curve" smooth="yes"/>
      <point x="36" y="394"/>
      <point x="31" y="383"/>
      <point x="34" y="372" type="curve" smooth="yes"/>
      <point x="92" y="209"/>
      <point x="162" y="93"/>
      <point x="216" y="9" type="curve" smooth="yes"/>
      <point x="222" y="0"/>
      <point x="235" y="-3"/>
    </contour>
    <contour>
      <point x="217" y="374" type="move" name="top"/>
    </contour>
  </outline>
</glyph>
<glyph name="brokenbar" format="1">
  <advance width="285"/>
  <unicode hex="00A6"/>
  <outline>
    <contour>
      <point x="143" y="292" type="curve" smooth="yes"/>
      <point x="154" y="292"/>
      <point x="163" y="301"/>
      <point x="163" y="312" type="curve" smooth="yes"/>
      <point x="163" y="550" type="line" smooth="yes"/>
      <point x="163" y="561"/>
      <point x="154" y="570"/>
      <point x="143" y="570" type="curve" smooth="yes"/>
      <point x="132" y="570"/>
      <point x="123" y="561"/>
      <point x="123" y="550" type="curve" smooth="yes"/>
      <point x="123" y="312" type="line" smooth="yes"/>
      <point x="123" y="301"/>
      <point x="132" y="292"/>
    </contour>
    <contour>
      <point x="143" y="-113" type="curve" smooth="yes"/>
      <point x="154" y="-113"/>
      <point x="163" y="-104"/>
      <point x="163" y="-93" type="curve" smooth="yes"/>
      <point x="163" y="145" type="line" smooth="yes"/>
      <point x="163" y="156"/>
      <point x="154" y="165"/>
      <point x="143" y="165" type="curve" smooth="yes"/>
      <point x="132" y="165"/>
      <point x="123" y="156"/>
      <point x="123" y="145" type="curve" smooth="yes"/>
      <point x="123" y="-93" type="line" smooth="yes"/>
      <point x="123" y="-104"/>
      <point x="132" y="-113"/>
    </contour>
  </outline>
</glyph>
<glyph name="degree" format="1">
  <advance width="432"/>
  <unicode hex="00B0"/>
  <outline>
    <contour>
      <point x="216" y="212" type="curve" smooth="yes"/>
      <point x="314" y="212"/>
      <point x="383" y="283"/>
      <point x="383" y="373" type="curve" smooth="yes"/>
      <point x="383" y="467"/>
      <point x="314" y="540"/>
      <point x="215" y="540" type="curve" smooth="yes"/>
      <point x="115" y="540"/>
      <point x="49" y="464"/>
      <point x="49" y="373" type="curve" smooth="yes"/>
      <point x="49" y="284"/>
      <point x="117" y="212"/>
    </contour>
    <contour>
      <point x="216" y="252" type="curve" smooth="yes"/>
      <point x="141" y="252"/>
      <point x="89" y="306"/>
      <point x="89" y="373" type="curve" smooth="yes"/>
      <point x="89" y="442"/>
      <point x="139" y="500"/>
      <point x="215" y="500" type="curve" smooth="yes"/>
      <point x="290" y="500"/>
      <point x="343" y="445"/>
      <point x="343" y="373" type="curve" smooth="yes"/>
      <point x="343" y="305"/>
      <point x="290" y="252"/>
    </contour>
  </outline>
</glyph>
<glyph name="twosuperior" format="1">
  <advance width="343"/>
  <unicode hex="00B2"/>
  <outline>
    <contour>
      <point x="188" y="329" type="line" smooth="yes"/>
      <point x="257" y="395"/>
      <point x="274" y="420"/>
      <point x="274" y="458" type="curve" smooth="yes"/>
      <point x="274" y="498"/>
      <point x="246" y="540"/>
      <point x="175" y="540" type="curve" smooth="yes"/>
      <point x="141" y="540"/>
      <point x="113" y="531"/>
      <point x="83" y="512" type="curve" smooth="yes"/>
      <point x="74" y="506"/>
      <point x="71" y="493"/>
      <point x="77" y="484" type="curve" smooth="yes"/>
      <point x="83" y="475"/>
      <point x="96" y="472"/>
      <point x="105" y="478" type="curve" smooth="yes"/>
      <point x="127" y="493"/>
      <point x="149" y="500"/>
      <point x="175" y="500" type="curve" smooth="yes"/>
      <point x="212" y="500"/>
      <point x="234" y="482"/>
      <point x="234" y="458" type="curve" smooth="yes"/>
      <point x="234" y="428"/>
      <point x="213" y="409"/>
      <point x="160" y="359" type="curve" smooth="yes"/>
      <point x="67" y="272" type="line" smooth="yes"/>
      <point x="59" y="264"/>
      <point x="59" y="251"/>
      <point x="66" y="243" type="curve" smooth="yes"/>
      <point x="74" y="235"/>
      <point x="87" y="235"/>
      <point x="95" y="242" type="curve" smooth="yes"/>
    </contour>
    <contour>
      <point x="274" y="232" type="line" smooth="yes"/>
      <point x="285" y="232"/>
      <point x="294" y="241"/>
      <point x="294" y="252" type="curve" smooth="yes"/>
      <point x="294" y="263"/>
      <point x="285" y="272"/>
      <point x="274" y="272" type="curve" smooth="yes"/>
      <point x="75" y="272" type="line" smooth="yes"/>
      <point x="64" y="272"/>
      <point x="55" y="263"/>
      <point x="55" y="252" type="curve" smooth="yes"/>
      <point x="55" y="241"/>
      <point x="64" y="232"/>
      <point x="75" y="232" type="curve" smooth="yes"/>
    </contour>
  </outline>
</glyph>
<glyph name="uni00B5" format="1">
  <advance width="492"/>
  <unicode hex="00B5"/>
  <outline>
    <contour>
      <point x="208" y="-6" type="curve" smooth="yes"/>
      <point x="279" y="-6"/>
      <point x="355" y="49"/>
      <point x="403" y="115" type="curve" smooth="yes"/>
      <point x="410" y="124"/>
      <point x="407" y="137"/>
      <point x="399" y="143" type="curve" smooth="yes"/>
      <point x="390" y="150"/>
      <point x="377" y="147"/>
      <point x="371" y="139" type="curve" smooth="yes"/>
      <point x="331" y="83"/>
      <point x="269" y="34"/>
      <point x="208" y="34" type="curve" smooth="yes"/>
      <point x="149" y="34"/>
      <point x="110" y="72"/>
      <point x="110" y="164" type="curve" smooth="yes"/>
      <point x="110" y="374" type="line" smooth="yes"/>
      <point x="110" y="385"/>
      <point x="101" y="394"/>
      <point x="90" y="394" type="curve" smooth="yes"/>
      <point x="79" y="394"/>
      <point x="70" y="385"/>
      <point x="70" y="374" type="curve" smooth="yes"/>
      <point x="70" y="164" type="line" smooth="yes"/>
      <point x="70" y="34"/>
      <point x="131" y="-6"/>
    </contour>
    <contour>
      <point x="90" y="-146" type="curve" smooth="yes"/>
      <point x="101" y="-146"/>
      <point x="110" y="-137"/>
      <point x="110" y="-126" type="curve" smooth="yes"/>
      <point x="110" y="234" type="line" smooth="yes"/>
      <point x="110" y="245"/>
      <point x="101" y="254"/>
      <point x="90" y="254" type="curve" smooth="yes"/>
      <point x="79" y="254"/>
      <point x="70" y="245"/>
      <point x="70" y="234" type="curve" smooth="yes"/>
      <point x="70" y="-126" type="line" smooth="yes"/>
      <point x="70" y="-137"/>
      <point x="79" y="-146"/>
    </contour>
    <contour>
      <point x="391" y="-6" type="curve" smooth="yes"/>
      <point x="402" y="-6"/>
      <point x="411" y="3"/>
      <point x="411" y="14" type="curve" smooth="yes"/>
      <point x="411" y="374" type="line" smooth="yes"/>
      <point x="411" y="385"/>
      <point x="402" y="394"/>
      <point x="391" y="394" type="curve" smooth="yes"/>
      <point x="380" y="394"/>
      <point x="371" y="385"/>
      <point x="371" y="374" type="curve" smooth="yes"/>
      <point x="371" y="14" type="line" smooth="yes"/>
      <point x="371" y="3"/>
      <point x="380" y="-6"/>
    </contour>
  </outline>
</glyph>
<glyph name="onesuperior" format="1">
  <advance width="214"/>
  <unicode hex="00B9"/>
  <outline>
    <contour>
      <point x="131" y="230" type="curve" smooth="yes"/>
      <point x="142" y="230"/>
      <point x="151" y="239"/>
      <point x="151" y="250" type="curve" smooth="yes"/>
      <point x="151" y="521" type="line" smooth="yes"/>
      <point x="151" y="532"/>
      <point x="142" y="541"/>
      <point x="131" y="541" type="curve" smooth="yes"/>
      <point x="120" y="541"/>
      <point x="111" y="532"/>
      <point x="111" y="521" type="curve" smooth="yes"/>
      <point x="111" y="250" type="line" smooth="yes"/>
      <point x="111" y="239"/>
      <point x="120" y="230"/>
    </contour>
    <contour>
      <point x="141" y="507" type="line" smooth="yes"/>
      <point x="150" y="513"/>
      <point x="154" y="525"/>
      <point x="149" y="535" type="curve" smooth="yes"/>
      <point x="143" y="544"/>
      <point x="131" y="548"/>
      <point x="121" y="543" type="curve" smooth="yes"/>
      <point x="35" y="496" type="line" smooth="yes"/>
      <point x="26" y="490"/>
      <point x="22" y="478"/>
      <point x="27" y="468" type="curve" smooth="yes"/>
      <point x="33" y="459"/>
      <point x="45" y="455"/>
      <point x="55" y="460" type="curve" smooth="yes"/>
    </contour>
  </outline>
</glyph>
<glyph name="AE" format="1">
  <advance width="763"/>
  <unicode hex="00C6"/>
  <outline>
    <contour>
      <point x="19" y="-6" type="curve" smooth="yes"/>
      <point x="28" y="-12"/>
      <point x="41" y="-9"/>
      <point x="47" y="0" type="curve" smooth="yes"/>
      <point x="133" y="132"/>
      <point x="266" y="332"/>
      <point x="374" y="510" type="curve" smooth="yes"/>
      <point x="380" y="519"/>
      <point x="377" y="531"/>
      <point x="367" y="537" type="curve" smooth="yes"/>
      <point x="358" y="543"/>
      <point x="346" y="540"/>
      <point x="340" y="530" type="curve" smooth="yes"/>
      <point x="232" y="354"/>
      <point x="99" y="154"/>
      <point x="13" y="22" type="curve" smooth="yes"/>
      <point x="7" y="13"/>
      <point x="10" y="0"/>
    </contour>
    <contour>
      <point x="397" y="143" type="line" smooth="yes"/>
      <point x="408" y="143"/>
      <point x="417" y="152"/>
      <point x="417" y="163" type="curve" smooth="yes"/>
      <point x="417" y="174"/>
      <point x="408" y="183"/>
      <point x="397" y="183" type="curve" smooth="yes"/>
      <point x="135" y="183" type="line" smooth="yes"/>
      <point x="124" y="183"/>
      <point x="115" y="174"/>
      <point x="115" y="163" type="curve" smooth="yes"/>
      <point x="115" y="152"/>
      <point x="124" y="143"/>
      <point x="135" y="143" type="curve" smooth="yes"/>
    </contour>
    <contour>
      <point x="691" y="-9" type="line" smooth="yes"/>
      <point x="702" y="-9"/>
      <point x="711" y="0"/>
      <point x="711" y="11" type="curve" smooth="yes"/>
      <point x="711" y="22"/>
      <point x="702" y="31"/>
      <point x="691" y="31" type="curve" smooth="yes"/>
      <point x="407" y="31" type="line" smooth="yes"/>
      <point x="396" y="31"/>
      <point x="387" y="22"/>
      <point x="387" y="11" type="curve" smooth="yes"/>
      <point x="387" y="0"/>
      <point x="396" y="-9"/>
      <point x="407" y="-9" type="curve" smooth="yes"/>
    </contour>
    <contour>
      <point x="398" y="-9" type="curve" smooth="yes"/>
      <point x="409" y="-9"/>
      <point x="418" y="0"/>
      <point x="418" y="11" type="curve" smooth="yes"/>
      <point x="418" y="520" type="line" smooth="yes"/>
      <point x="418" y="531"/>
      <point x="409" y="540"/>
      <point x="398" y="540" type="curve" smooth="yes"/>
      <point x="387" y="540"/>
      <point x="378" y="531"/>
      <point x="378" y="520" type="curve" smooth="yes"/>
      <point x="378" y="11" type="line" smooth="yes"/>
      <point x="378" y="0"/>
      <point x="387" y="-9"/>
    </contour>
    <contour>
      <point x="644" y="265" type="line" smooth="yes"/>
      <point x="655" y="265"/>
      <point x="664" y="274"/>
      <point x="664" y="285" type="curve" smooth="yes"/>
      <point x="664" y="296"/>
      <point x="655" y="305"/>
      <point x="644" y="305" type="curve" smooth="yes"/>
      <point x="407" y="305" type="line" smooth="yes"/>
      <point x="396" y="305"/>
      <point x="387" y="296"/>
      <point x="387" y="285" type="curve" smooth="yes"/>
      <point x="387" y="274"/>
      <point x="396" y="265"/>
      <point x="407" y="265" type="curve" smooth="yes"/>
    </contour>
    <contour>
      <point x="416" y="500" type="line" smooth="yes"/>
      <point x="427" y="500"/>
      <point x="436" y="509"/>
      <point x="436" y="520" type="curve" smooth="yes"/>
      <point x="436" y="531"/>
      <point x="427" y="540"/>
      <point x="416" y="540" type="curve" smooth="yes"/>
      <point x="362" y="540" type="line" smooth="yes"/>
      <point x="351" y="540"/>
      <point x="342" y="531"/>
      <point x="342" y="520" type="curve" smooth="yes"/>
      <point x="342" y="509"/>
      <point x="351" y="500"/>
      <point x="362" y="500" type="curve" smooth="yes"/>
    </contour>
    <contour>
      <point x="689" y="500" type="line" smooth="yes"/>
      <point x="700" y="500"/>
      <point x="709" y="509"/>
      <point x="709" y="520" type="curve" smooth="yes"/>
      <point x="709" y="531"/>
      <point x="700" y="540"/>
      <point x="689" y="540" type="curve" smooth="yes"/>
      <point x="407" y="540" type="line" smooth="yes"/>
      <point x="396" y="540"/>
      <point x="387" y="531"/>
      <point x="387" y="520" type="curve" smooth="yes"/>
      <point x="387" y="509"/>
      <point x="396" y="500"/>
      <point x="407" y="500" type="curve" smooth="yes"/>
    </contour>
  </outline>
</glyph>
<glyph name="multiply" format="1">
  <advance width="527"/>
  <unicode hex="00D7"/>
  <outline>
    <contour>
      <point x="87" y="101" type="curve" smooth="yes"/>
      <point x="94" y="93"/>
      <point x="107" y="93"/>
      <point x="115" y="101" type="curve" smooth="yes"/>
      <point x="415" y="390" type="line" smooth="yes"/>
      <point x="423" y="397"/>
      <point x="423" y="410"/>
      <point x="415" y="418" type="curve" smooth="yes"/>
      <point x="408" y="426"/>
      <point x="395" y="426"/>
      <point x="387" y="418" type="curve" smooth="yes"/>
      <point x="87" y="129" type="line" smooth="yes"/>
      <point x="79" y="122"/>
      <point x="79" y="109"/>
    </contour>
    <contour>
      <point x="391" y="101" type="line" smooth="yes"/>
      <point x="399" y="93"/>
      <point x="412" y="93"/>
      <point x="419" y="101" type="curve" smooth="yes"/>
      <point x="427" y="109"/>
      <point x="427" y="122"/>
      <point x="419" y="129" type="curve" smooth="yes"/>
      <point x="119" y="417" type="line" smooth="yes"/>
      <point x="111" y="425"/>
      <point x="98" y="425"/>
      <point x="91" y="417" type="curve" smooth="yes"/>
      <point x="83" y="409"/>
      <point x="83" y="396"/>
      <point x="91" y="389" type="curve" smooth="yes"/>
    </contour>
  </outline>
</glyph>
<glyph name="Dcroat" format="1">
  <advance width="628"/>
  <unicode hex="0110"/>
  <outline>
    <contour>
      <point x="315" y="-9" type="line" smooth="yes"/>
      <point x="471" y="-9"/>
      <point x="573" y="112"/>
      <point x="573" y="266" type="curve" smooth="yes"/>
      <point x="573" y="428"/>
      <point x="451" y="540"/>
      <point x="315" y="540" type="curve" smooth="yes"/>
      <point x="130" y="540" type="line" smooth="yes"/>
      <point x="119" y="540"/>
      <point x="110" y="531"/>
      <point x="110" y="520" type="curve" smooth="yes"/>
      <point x="110" y="11" type="line" smooth="yes"/>
      <point x="110" y="0"/>
      <point x="119" y="-9"/>
      <point x="130" y="-9" type="curve" smooth="yes"/>
    </contour>
    <contour>
      <point x="311" y="250" type="line" smooth="yes"/>
      <point x="322" y="250"/>
      <point x="331" y="259"/>
      <point x="331" y="270" type="curve" smooth="yes"/>
      <point x="331" y="281"/>
      <point x="322" y="290"/>
      <point x="311" y="290" type="curve" smooth="yes"/>
      <point x="52" y="290" type="line" smooth="yes"/>
      <point x="41" y="290"/>
      <point x="32" y="281"/>
      <point x="32" y="270" type="curve" smooth="yes"/>
      <point x="32" y="259"/>
      <point x="41" y="250"/>
      <point x="52" y="250" type="curve" smooth="yes"/>
    </contour>
    <contour>
      <point x="150" y="520" type="line"/>
      <point x="130" y="500" type="line"/>
      <point x="315" y="500" type="line" smooth="yes"/>
      <point x="431" y="500"/>
      <point x="533" y="402"/>
      <point x="533" y="266" type="curve" smooth="yes"/>
      <point x="533" y="136"/>
      <point x="449" y="31"/>
      <point x="315" y="31" type="curve" smooth="yes"/>
      <point x="130" y="31" type="line"/>
      <point x="150" y="11" type="line"/>
    </contour>
  </outline>
</glyph>
<glyph name="lcaron" format="1">
  <advance width="339"/>
  <unicode hex="013E"/>
  <outline>
    <contour>
      <point x="107" y="-10" type="curve" smooth="yes"/>
      <point x="118" y="-10"/>
      <point x="127" y="-1"/>
      <point x="127" y="10" type="curve" smooth="yes"/>
      <point x="127" y="546" type="line" smooth="yes"/>
      <point x="127" y="557"/>
      <point x="118" y="566"/>
      <point x="107" y="566" type="curve" smooth="yes"/>
      <point x="96" y="566"/>
      <point x="87" y="557"/>
      <point x="87" y="546" type="curve" smooth="yes"/>
      <point x="87" y="10" type="line" smooth="yes"/>
      <point x="87" y="-1"/>
      <point x="96" y="-10"/>
    </contour>
    <contour>
      <point x="282" y="409" type="curve" smooth="yes"/>
      <point x="293" y="408"/>
      <point x="303" y="415"/>
      <point x="305" y="426" type="curve" smooth="yes"/>
      <point x="326" y="571" type="line" smooth="yes"/>
      <point x="327" y="582"/>
      <point x="320" y="592"/>
      <point x="309" y="594" type="curve" smooth="yes"/>
      <point x="298" y="595"/>
      <point x="288" y="588"/>
      <point x="286" y="577" type="curve" smooth="yes"/>
      <point x="265" y="432" type="line" smooth="yes"/>
      <point x="264" y="421"/>
      <point x="271" y="411"/>
    </contour>
  </outline>
</glyph>
<glyph name="Eng" format="1">
  <advance width="637"/>
  <unicode hex="014A"/>
  <outline>
    <contour>
      <point x="528" y="-5" type="curve" smooth="yes"/>
      <point x="537" y="1"/>
      <point x="538" y="14"/>
      <point x="532" y="23" type="curve" smooth="yes"/>
      <point x="420" y="173"/>
      <point x="215" y="427"/>
      <point x="136" y="532" type="curve" smooth="yes"/>
      <point x="129" y="541"/>
      <point x="117" y="542"/>
      <point x="108" y="536" type="curve" smooth="yes"/>
      <point x="99" y="529"/>
      <point x="98" y="517"/>
      <point x="104" y="508" type="curve" smooth="yes"/>
      <point x="183" y="403"/>
      <point x="388" y="149"/>
      <point x="500" y="-1" type="curve" smooth="yes"/>
      <point x="506" y="-10"/>
      <point x="519" y="-11"/>
    </contour>
    <contour>
      <point x="114" y="-9" type="curve" smooth="yes"/>
      <point x="125" y="-9"/>
      <point x="134" y="0"/>
      <point x="134" y="11" type="curve" smooth="yes"/>
      <point x="134" y="520" type="line" smooth="yes"/>
      <point x="134" y="531"/>
      <point x="125" y="540"/>
      <point x="114" y="540" type="curve" smooth="yes"/>
      <point x="103" y="540"/>
      <point x="94" y="531"/>
      <point x="94" y="520" type="curve" smooth="yes"/>
      <point x="94" y="11" type="line" smooth="yes"/>
      <point x="94" y="0"/>
      <point x="103" y="-9"/>
    </contour>
    <contour>
      <point x="429" y="-167" type="curve" smooth="yes"/>
      <point x="511" y="-134"/>
      <point x="543" y="-82"/>
      <point x="543" y="-7" type="curve" smooth="yes"/>
      <point x="543" y="142" type="line" smooth="yes"/>
      <point x="543" y="153"/>
      <point x="534" y="162"/>
      <point x="523" y="162" type="curve" smooth="yes"/>
      <point x="512" y="162"/>
      <point x="503" y="153"/>
      <point x="503" y="142" type="curve" smooth="yes"/>
      <point x="503" y="-7" type="line" smooth="yes"/>
      <point x="503" y="-70"/>
      <point x="481" y="-103"/>
      <point x="415" y="-129" type="curve" smooth="yes"/>
      <point x="405" y="-133"/>
      <point x="399" y="-145"/>
      <point x="403" y="-155" type="curve" smooth="yes"/>
      <point x="407" y="-165"/>
      <point x="419" y="-171"/>
    </contour>
    <contour>
      <point x="523" y="-9" type="curve" smooth="yes"/>
      <point x="534" y="-9"/>
      <point x="543" y="0"/>
      <point x="543" y="11" type="curve" smooth="yes"/>
      <point x="543" y="520" type="line" smooth="yes"/>
      <point x="543" y="531"/>
      <point x="534" y="540"/>
      <point x="523" y="540" type="curve" smooth="yes"/>
      <point x="512" y="540"/>
      <point x="503" y="531"/>
      <point x="503" y="520" type="curve" smooth="yes"/>
      <point x="503" y="11" type="line" smooth="yes"/>
      <point x="503" y="0"/>
      <point x="512" y="-9"/>
    </contour>
  </outline>
</glyph>
<glyph name="oe" format="1">
  <advance width="837"/>
  <unicode hex="0153"/>
  <outline>
    <contour>
      <point x="254" y="-10" type="curve" smooth="yes"/>
      <point x="379" y="-10"/>
      <point x="457" y="77"/>
      <point x="457" y="189" type="curve" smooth="yes"/>
      <point x="457" y="304"/>
      <point x="379" y="398"/>
      <point x="254" y="398" type="curve" smooth="yes"/>
      <point x="129" y="398"/>
      <point x="52" y="304"/>
      <point x="52" y="191" type="curve" smooth="yes"/>
      <point x="52" y="78"/>
      <point x="131" y="-10"/>
    </contour>
    <contour>
      <point x="254" y="30" type="curve" smooth="yes"/>
      <point x="155" y="30"/>
      <point x="92" y="100"/>
      <point x="92" y="191" type="curve" smooth="yes"/>
      <point x="92" y="282"/>
      <point x="153" y="358"/>
      <point x="254" y="358" type="curve" smooth="yes"/>
      <point x="355" y="358"/>
      <point x="417" y="282"/>
      <point x="417" y="189" type="curve" smooth="yes"/>
      <point x="417" y="99"/>
      <point x="353" y="30"/>
    </contour>
    <contour>
      <point x="634" y="-6" type="curve" smooth="yes"/>
      <point x="675" y="-6"/>
      <point x="715" y="3"/>
      <point x="743" y="14" type="curve" smooth="yes"/>
      <point x="753" y="18"/>
      <point x="759" y="30"/>
      <point x="755" y="40" type="curve" smooth="yes"/>
      <point x="751" y="50"/>
      <point x="739" y="56"/>
      <point x="729" y="52" type="curve" smooth="yes"/>
      <point x="704" y="42"/>
      <point x="669" y="34"/>
      <point x="634" y="34" type="curve" smooth="yes"/>
      <point x="531" y="34"/>
      <point x="457" y="87"/>
      <point x="457" y="189" type="curve" smooth="yes"/>
      <point x="457" y="287"/>
      <point x="526" y="354"/>
      <point x="613" y="354" type="curve" smooth="yes"/>
      <point x="686" y="354"/>
      <point x="736" y="301"/>
      <point x="736" y="258" type="curve" smooth="yes"/>
      <point x="736" y="227"/>
      <point x="714" y="213"/>
      <point x="670" y="213" type="curve" smooth="yes"/>
      <point x="451" y="213" type="line" smooth="yes"/>
      <point x="440" y="213"/>
      <point x="431" y="204"/>
      <point x="431" y="193" type="curve" smooth="yes"/>
      <point x="431" y="182"/>
      <point x="440" y="173"/>
      <point x="451" y="173" type="curve" smooth="yes"/>
      <point x="670" y="173" type="line" smooth="yes"/>
      <point x="752" y="173"/>
      <point x="776" y="209"/>
      <point x="776" y="258" type="curve" smooth="yes"/>
      <point x="776" y="315"/>
      <point x="716" y="394"/>
      <point x="613" y="394" type="curve" smooth="yes"/>
      <point x="506" y="394"/>
      <point x="417" y="312"/>
      <point x="417" y="189" type="curve" smooth="yes"/>
      <point x="417" y="63"/>
      <point x="505" y="-6"/>
    </contour>
  </outline>
</glyph>
<glyph name="uogonek" format="1">
  <advance width="492"/>
  <unicode hex="0173"/>
  <outline>
    <contour>
      <point x="208" y="-6" type="curve" smooth="yes"/>
      <point x="279" y="-6"/>
      <point x="355" y="49"/>
      <point x="403" y="115" type="curve" smooth="yes"/>
      <point x="410" y="124"/>
      <point x="407" y="137"/>
      <point x="399" y="143" type="curve" smooth="yes"/>
      <point x="390" y="150"/>
      <point x="377" y="147"/>
      <point x="371" y="139" type="curve" smooth="yes"/>
      <point x="331" y="83"/>
      <point x="269" y="34"/>
      <point x="208" y="34" type="curve" smooth="yes"/>
      <point x="149" y="34"/>
      <point x="110" y="72"/>
      <point x="110" y="164" type="curve" smooth="yes"/>
      <point x="110" y="374" type="line" smooth="yes"/>
      <point x="110" y="385"/>
      <point x="101" y="394"/>
      <point x="90" y="394" type="curve" smooth="yes"/>
      <point x="79" y="394"/>
      <point x="70" y="385"/>
      <point x="70" y="374" type="curve" smooth="yes"/>
      <point x="70" y="164" type="line" smooth="yes"/>
      <point x="70" y="34"/>
      <point x="131" y="-6"/>
    </contour>
    <contour>
      <point x="427" y="-230" type="curve" smooth="yes"/>
      <point x="438" y="-230"/>
      <point x="447" y="-221"/>
      <point x="447" y="-210" type="curve" smooth="yes"/>
      <point x="447" y="-199"/>
      <point x="438" y="-190"/>
      <point x="427" y="-190" type="curve" smooth="yes"/>
      <point x="371" y="-190"/>
      <point x="323" y="-178"/>
      <point x="323" y="-147" type="curve" smooth="yes"/>
      <point x="323" y="-122"/>
      <point x="341" y="-96"/>
      <point x="404" y="-32" type="curve" smooth="yes"/>
      <point x="408" y="-28"/>
      <point x="411" y="-21"/>
      <point x="411" y="-16" type="curve" smooth="yes"/>
      <point x="411" y="31" type="line"/>
      <point x="371" y="31" type="line"/>
      <point x="371" y="-26" type="line"/>
      <point x="378" y="0" type="line"/>
      <point x="298" y="-82"/>
      <point x="283" y="-116"/>
      <point x="283" y="-147" type="curve" smooth="yes"/>
      <point x="283" y="-190"/>
      <point x="319" y="-230"/>
    </contour>
    <contour>
      <point x="411" y="14" type="line"/>
      <point x="411" y="374" type="line" smooth="yes"/>
      <point x="411" y="385"/>
      <point x="402" y="394"/>
      <point x="391" y="394" type="curve" smooth="yes"/>
      <point x="380" y="394"/>
      <point x="371" y="385"/>
      <point x="371" y="374" type="curve" smooth="yes"/>
      <point x="371" y="14" type="line"/>
    </contour>
    <contour>
      <point x="392" y="21" type="move" name="ogonek"/>
    </contour>
    <contour>
      <point x="231" y="390" type="move" name="top"/>
    </contour>
  </outline>
</glyph>
<glyph name="florin" format="1">
  <advance width="319"/>
  <unicode hex="0192"/>
  <outline>
    <contour>
      <point x="111" y="-169" type="curve" smooth="yes"/>
      <point x="122" y="-170"/>
      <point x="132" y="-162"/>
      <point x="133" y="-151" type="curve" smooth="yes"/>
      <point x="191" y="447" type="line" smooth="yes"/>
      <point x="197" y="510"/>
      <point x="230" y="552"/>
      <point x="315" y="557" type="curve" smooth="yes"/>
      <point x="326" y="558"/>
      <point x="335" y="567"/>
      <point x="334" y="578" type="curve" smooth="yes"/>
      <point x="333" y="589"/>
      <point x="324" y="598"/>
      <point x="313" y="597" type="curve" smooth="yes"/>
      <point x="200" y="590"/>
      <point x="159" y="532"/>
      <point x="151" y="451" type="curve" smooth="yes"/>
      <point x="93" y="-147" type="line" smooth="yes"/>
      <point x="92" y="-158"/>
      <point x="100" y="-168"/>
    </contour>
    <contour>
      <point x="295" y="353" type="line" smooth="yes"/>
      <point x="306" y="353"/>
      <point x="315" y="362"/>
      <point x="315" y="373" type="curve" smooth="yes"/>
      <point x="315" y="384"/>
      <point x="306" y="393"/>
      <point x="295" y="393" type="curve" smooth="yes"/>
      <point x="57" y="393" type="line" smooth="yes"/>
      <point x="46" y="393"/>
      <point x="37" y="384"/>
      <point x="37" y="373" type="curve" smooth="yes"/>
      <point x="37" y="362"/>
      <point x="46" y="353"/>
      <point x="57" y="353" type="curve" smooth="yes"/>
    </contour>
  </outline>
</glyph>
<glyph name="circumflexcomb" format="1">
  <advance width="0"/>
  <unicode hex="0302"/>
  <outline>
    <contour>
      <point x="77" y="490" type="curve" smooth="yes"/>
      <point x="85" y="482"/>
      <point x="98" y="482"/>
      <point x="105" y="490" type="curve" smooth="yes"/>
      <point x="113" y="498"/>
      <point x="113" y="511"/>
      <point x="105" y="518" type="curve" smooth="yes"/>
      <point x="77" y="545"/>
      <point x="45" y="579"/>
      <point x="12" y="610" type="curve" smooth="yes"/>
      <point x="4" y="617"/>
      <point x="-9" y="617"/>
      <point x="-17" y="609" type="curve" smooth="yes"/>
      <point x="-24" y="601"/>
      <point x="-24" y="588"/>
      <point x="-16" y="580" type="curve" smooth="yes"/>
      <point x="17" y="549"/>
      <point x="49" y="517"/>
    </contour>
    <contour>
      <point x="-114" y="490" type="curve" smooth="yes"/>
      <point x="-107" y="482"/>
      <point x="-93" y="482"/>
      <point x="-86" y="490" type="curve" smooth="yes"/>
      <point x="-59" y="517"/>
      <point x="-25" y="550"/>
      <point x="6" y="581" type="curve" smooth="yes"/>
      <point x="14" y="588"/>
      <point x="14" y="602"/>
      <point x="6" y="609" type="curve" smooth="yes"/>
      <point x="-1" y="617"/>
      <point x="-15" y="617"/>
      <point x="-22" y="609" type="curve" smooth="yes"/>
      <point x="-53" y="578"/>
      <point x="-87" y="545"/>
      <point x="-114" y="518" type="curve" smooth="yes"/>
      <point x="-122" y="511"/>
      <point x="-122" y="497"/>
    </contour>
    <contour>
      <point x="0" y="394" type="move" name="_top"/>
    </contour>
  </outline>
</glyph>
<glyph name="macroncomb" format="1">
  <advance width="0"/>
  <unicode hex="0304"/>
  <outline>
    <contour>
      <point x="106" y="517" type="line" smooth="yes"/>
      <point x="117" y="517"/>
      <point x="126" y="526"/>
      <point x="126" y="537" type="curve" smooth="yes"/>
      <point x="126" y="548"/>
      <point x="117" y="557"/>
      <point x="106" y="557" type="curve" smooth="yes"/>
      <point x="-105" y="557" type="line" smooth="yes"/>
      <point x="-116" y="557"/>
      <point x="-125" y="548"/>
      <point x="-125" y="537" type="curve" smooth="yes"/>
      <point x="-125" y="526"/>
      <point x="-116" y="517"/>
      <point x="-105" y="517" type="curve" smooth="yes"/>
    </contour>
    <contour>
      <point x="0" y="394" type="move" name="_top"/>
    </contour>
  </outline>
</glyph>
<glyph name="hungarumlautcomb" format="1">
  <advance width="0"/>
  <unicode hex="030B"/>
  <outline>
    <contour>
      <point x="64" y="475" type="curve" smooth="yes"/>
      <point x="74" y="470"/>
      <point x="86" y="475"/>
      <point x="90" y="485" type="curve" smooth="yes"/>
      <point x="103" y="515"/>
      <point x="117" y="546"/>
      <point x="141" y="581" type="curve" smooth="yes"/>
      <point x="147" y="590"/>
      <point x="144" y="603"/>
      <point x="135" y="609" type="curve" smooth="yes"/>
      <point x="126" y="615"/>
      <point x="113" y="612"/>
      <point x="107" y="603" type="curve" smooth="yes"/>
      <point x="83" y="566"/>
      <point x="67" y="533"/>
      <point x="54" y="501" type="curve" smooth="yes"/>
      <point x="49" y="491"/>
      <point x="54" y="479"/>
    </contour>
    <contour>
      <point x="-108" y="474" type="curve" smooth="yes"/>
      <point x="-98" y="470"/>
      <point x="-86" y="476"/>
      <point x="-82" y="486" type="curve" smooth="yes"/>
      <point x="-71" y="516"/>
      <point x="-55" y="547"/>
      <point x="-33" y="581" type="curve" smooth="yes"/>
      <point x="-27" y="590"/>
      <point x="-30" y="603"/>
      <point x="-39" y="609" type="curve" smooth="yes"/>
      <point x="-48" y="615"/>
      <point x="-61" y="612"/>
      <point x="-67" y="603" type="curve" smooth="yes"/>
      <point x="-91" y="565"/>
      <point x="-107" y="532"/>
      <point x="-120" y="500" type="curve" smooth="yes"/>
      <point x="-124" y="490"/>
      <point x="-118" y="478"/>
    </contour>
    <contour>
      <point x="0" y="394" type="move" name="_top"/>
    </contour>
  </outline>
</glyph>
<glyph name="Danda" format="1">
  <advance width="322"/>
  <unicode hex="0964"/>
  <outline>
    <contour>
      <point x="211" y="-12" type="curve" smooth="yes"/>
      <point x="223" y="-12"/>
      <point x="231" y="-1"/>
      <point x="231" y="13" type="curve" smooth="yes"/>
      <point x="231" y="624" type="line" smooth="yes"/>
      <point x="231" y="638"/>
      <point x="222" y="649"/>
      <point x="211" y="649" type="curve" smooth="yes"/>
      <point x="200" y="649"/>
      <point x="191" y="638"/>
      <point x="191" y="624" type="curve" smooth="yes"/>
      <point x="191" y="13" type="line" smooth="yes"/>
      <point x="191" y="-1"/>
      <point x="200" y="-12"/>
    </contour>
  </outline>
</glyph>
<glyph name="bVisarga" format="1">
  <advance width="350"/>
  <unicode hex="0983"/>
  <outline>
    <contour>
      <point x="189" y="372" type="curve" smooth="yes"/>
      <point x="244" y="372"/>
      <point x="295" y="409"/>
      <point x="295" y="477" type="curve" smooth="yes"/>
      <point x="295" y="550"/>
      <point x="236" y="587"/>
      <point x="179" y="587" type="curve" smooth="yes"/>
      <point x="124" y="587"/>
      <point x="70" y="552"/>
      <point x="70" y="488" type="curve" smooth="yes"/>
      <point x="70" y="424"/>
      <point x="123" y="372"/>
    </contour>
    <contour>
      <point x="189" y="62" type="curve" smooth="yes"/>
      <point x="244" y="62"/>
      <point x="295" y="99"/>
      <point x="295" y="166" type="curve" smooth="yes"/>
      <point x="295" y="233"/>
      <point x="246" y="277"/>
      <point x="178" y="277" type="curve" smooth="yes"/>
      <point x="104" y="277"/>
      <point x="70" y="223"/>
      <point x="70" y="175" type="curve" smooth="yes"/>
      <point x="70" y="115"/>
      <point x="123" y="62"/>
    </contour>
    <contour>
      <point x="186" y="101" type="curve" smooth="yes"/>
      <point x="154" y="101"/>
      <point x="112" y="124"/>
      <point x="112" y="170" type="curve" smooth="yes"/>
      <point x="112" y="201"/>
      <point x="131" y="238"/>
      <point x="181" y="238" type="curve" smooth="yes"/>
      <point x="222" y="238"/>
      <point x="256" y="212"/>
      <point x="256" y="172" type="curve" smooth="yes"/>
      <point x="256" y="133"/>
      <point x="224" y="101"/>
    </contour>
    <contour>
      <point x="186" y="411" type="curve" smooth="yes"/>
      <point x="138" y="411"/>
      <point x="112" y="448"/>
      <point x="112" y="484" type="curve" smooth="yes"/>
      <point x="112" y="516"/>
      <point x="133" y="548"/>
      <point x="180" y="548" type="curve" smooth="yes"/>
      <point x="229" y="548"/>
      <point x="256" y="512"/>
      <point x="256" y="477" type="curve" smooth="yes"/>
      <point x="256" y="444"/>
      <point x="232" y="411"/>
    </contour>
  </outline>
</glyph>
<glyph name="bNga" format="1">
  <advance width="555"/>
  <unicode hex="0999"/>
  <outline>
    <contour>
      <point x="339" y="28" type="curve" smooth="yes"/>
      <point x="445" y="28"/>
      <point x="528" y="97"/>
      <point x="528" y="204" type="curve" smooth="yes"/>
      <point x="528" y="303"/>
      <point x="468" y="374"/>
      <point x="438" y="374" type="curve" smooth="yes"/>
      <point x="415" y="374"/>
      <point x="416" y="354"/>
      <point x="416" y="337" type="curve" smooth="yes"/>
      <point x="416" y="297"/>
      <point x="388" y="245"/>
      <point x="339" y="245" type="curve" smooth="yes"/>
      <point x="281" y="245"/>
      <point x="259" y="307"/>
      <point x="259" y="364" type="curve" smooth="yes"/>
      <point x="259" y="459"/>
      <point x="303" y="558"/>
      <point x="382" y="558" type="curve" smooth="yes"/>
      <point x="402" y="558"/>
      <point x="423" y="551"/>
      <point x="423" y="527" type="curve" smooth="yes"/>
      <point x="423" y="484"/>
      <point x="367" y="467"/>
      <point x="316" y="467" type="curve" smooth="yes"/>
      <point x="220" y="467"/>
      <point x="183" y="529"/>
      <point x="122" y="561" type="curve" smooth="yes"/>
      <point x="102" y="572"/>
      <point x="71" y="587"/>
      <point x="0" y="587" type="curve" smooth="yes"/>
      <point x="-13" y="587"/>
      <point x="-22" y="580"/>
      <point x="-22" y="571" type="curve" smooth="yes"/>
      <point x="-22" y="562"/>
      <point x="-13" y="554"/>
      <point x="-2" y="554" type="curve" smooth="yes"/>
      <point x="62" y="554"/>
      <point x="87" y="542"/>
      <point x="114" y="524" type="curve" smooth="yes"/>
      <point x="167" y="489"/>
      <point x="225" y="431"/>
      <point x="323" y="431" type="curve" smooth="yes"/>
      <point x="392" y="431"/>
      <point x="456" y="464"/>
      <point x="456" y="523" type="curve" smooth="yes"/>
      <point x="456" y="547"/>
      <point x="443" y="597"/>
      <point x="374" y="597" type="curve" smooth="yes"/>
      <point x="289" y="597"/>
      <point x="216" y="485"/>
      <point x="216" y="364" type="curve" smooth="yes"/>
      <point x="216" y="270"/>
      <point x="266" y="204"/>
      <point x="338" y="204" type="curve" smooth="yes"/>
      <point x="417" y="204"/>
      <point x="449" y="284"/>
      <point x="449" y="331" type="curve" smooth="yes"/>
      <point x="449" y="341"/>
      <point x="447" y="354"/>
      <point x="444" y="360" type="curve"/>
      <point x="439" y="344" type="line"/>
      <point x="465" y="318"/>
      <point x="488" y="268"/>
      <point x="488" y="213" type="curve" smooth="yes"/>
      <point x="488" y="134"/>
      <point x="426" y="73"/>
      <point x="334" y="73" type="curve" smooth="yes"/>
      <point x="184" y="73"/>
      <point x="78" y="253"/>
      <point x="68" y="446" type="curve" smooth="yes"/>
      <point x="67" y="458"/>
      <point x="60" y="466"/>
      <point x="50" y="466" type="curve" smooth="yes"/>
      <point x="41" y="466"/>
      <point x="35" y="458"/>
      <point x="35" y="448" type="curve" smooth="yes"/>
      <point x="35" y="257"/>
      <point x="159" y="28"/>
    </contour>
  </outline>
</glyph>
<glyph name="bSignUu" format="1">
  <advance width="0"/>
  <unicode hex="09C2"/>
  <outline>
    <contour>
      <point x="71" y="-249" type="curve" smooth="yes"/>
      <point x="83" y="-249"/>
      <point x="89" y="-243"/>
      <point x="89" y="-236" type="curve" smooth="yes"/>
      <point x="89" y="-230"/>
      <point x="83" y="-222"/>
      <point x="72" y="-219" type="curve" smooth="yes"/>
      <point x="4" y="-201"/>
      <point x="-30" y="-104"/>
      <point x="-101" y="-104" type="curve" smooth="yes"/>
      <point x="-144" y="-104"/>
      <point x="-169" y="-137"/>
      <point x="-223" y="-137" type="curve" smooth="yes"/>
      <point x="-266" y="-137"/>
      <point x="-289" y="-115"/>
      <point x="-289" y="-82" type="curve" smooth="yes"/>
      <point x="-289" y="-52"/>
      <point x="-263" y="-23"/>
      <point x="-217" y="-23" type="curve" smooth="yes"/>
      <point x="-183" y="-23"/>
      <point x="-154" y="-32"/>
      <point x="-135" y="-32" type="curve" smooth="yes"/>
      <point x="-109" y="-32"/>
      <point x="-101" y="-15"/>
      <point x="-101" y="6" type="curve" smooth="yes"/>
      <point x="-101" y="43" type="line"/>
      <point x="-101" y="58"/>
      <point x="-110" y="69"/>
      <point x="-121" y="69" type="curve" smooth="yes"/>
      <point x="-132" y="69"/>
      <point x="-141" y="57"/>
      <point x="-141" y="43" type="curve" smooth="yes"/>
      <point x="-141" y="26" type="line" smooth="yes"/>
      <point x="-141" y="10"/>
      <point x="-148" y="4"/>
      <point x="-161" y="4" type="curve" smooth="yes"/>
      <point x="-175" y="4"/>
      <point x="-194" y="11"/>
      <point x="-225" y="11" type="curve" smooth="yes"/>
      <point x="-281" y="11"/>
      <point x="-328" y="-31"/>
      <point x="-328" y="-84" type="curve" smooth="yes"/>
      <point x="-328" y="-133"/>
      <point x="-287" y="-178"/>
      <point x="-221" y="-178" type="curve" smooth="yes"/>
      <point x="-156" y="-178"/>
      <point x="-133" y="-141"/>
      <point x="-96" y="-141" type="curve" smooth="yes"/>
      <point x="-47" y="-141"/>
      <point x="4" y="-249"/>
    </contour>
  </outline>
</glyph>
<glyph name="bOne" format="1">
  <advance width="400"/>
  <unicode hex="09E7"/>
  <outline>
    <contour>
      <point x="167" y="-12" type="curve" smooth="yes"/>
      <point x="263" y="-12"/>
      <point x="380" y="87"/>
      <point x="380" y="217" type="curve" smooth="yes"/>
      <point x="380" y="321"/>
      <point x="308" y="366"/>
      <point x="200" y="420" type="curve" smooth="yes"/>
      <point x="105" y="467"/>
      <point x="66" y="509"/>
      <point x="58" y="563" type="curve" smooth="yes"/>
      <point x="56" y="577"/>
      <point x="54" y="587"/>
      <point x="41" y="587" type="curve" smooth="yes"/>
      <point x="27" y="587"/>
      <point x="23" y="577"/>
      <point x="23" y="560" type="curve" smooth="yes"/>
      <point x="23" y="467"/>
      <point x="145" y="404"/>
      <point x="200" y="376" type="curve" smooth="yes"/>
      <point x="279" y="335"/>
      <point x="340" y="300"/>
      <point x="340" y="210" type="curve" smooth="yes"/>
      <point x="340" y="120"/>
      <point x="278" y="62"/>
      <point x="213" y="41" type="curve"/>
      <point x="224" y="16" type="line"/>
      <point x="235" y="34"/>
      <point x="239" y="50"/>
      <point x="239" y="66" type="curve" smooth="yes"/>
      <point x="239" y="105"/>
      <point x="207" y="133"/>
      <point x="164" y="133" type="curve" smooth="yes"/>
      <point x="117" y="133"/>
      <point x="80" y="101"/>
      <point x="80" y="61" type="curve" smooth="yes"/>
      <point x="80" y="15"/>
      <point x="116" y="-12"/>
    </contour>
    <contour>
      <point x="162" y="20" type="curve" smooth="yes"/>
      <point x="138" y="20"/>
      <point x="116" y="34"/>
      <point x="116" y="58" type="curve" smooth="yes"/>
      <point x="116" y="82"/>
      <point x="136" y="100"/>
      <point x="163" y="100" type="curve" smooth="yes"/>
      <point x="191" y="100"/>
      <point x="204" y="81"/>
      <point x="204" y="61" type="curve" smooth="yes"/>
      <point x="204" y="41"/>
      <point x="190" y="20"/>
    </contour>
  </outline>
</glyph>
<glyph name="bNine" format="1">
  <advance width="552"/>
  <unicode hex="09EF"/>
  <outline>
    <contour>
      <point x="343" y="-12" type="curve" smooth="yes"/>
      <point x="394" y="-12"/>
      <point x="523" y="106"/>
      <point x="523" y="270" type="curve" smooth="yes"/>
      <point x="523" y="385"/>
      <point x="460" y="462"/>
      <point x="332" y="496" type="curve" smooth="yes"/>
      <point x="258" y="516"/>
      <point x="199" y="521"/>
      <point x="145" y="559" type="curve" smooth="yes"/>
      <point x="121" y="576"/>
      <point x="119" y="589"/>
      <point x="103" y="589" type="curve" smooth="yes"/>
      <point x="94" y="589"/>
      <point x="89" y="582"/>
      <point x="89" y="573" type="curve" smooth="yes"/>
      <point x="89" y="506"/>
      <point x="278" y="475"/>
      <point x="337" y="456" type="curve" smooth="yes"/>
      <point x="438" y="423"/>
      <point x="484" y="353"/>
      <point x="484" y="272" type="curve" smooth="yes"/>
      <point x="484" y="191"/>
      <point x="438" y="100"/>
      <point x="354" y="23" type="curve"/>
      <point x="367" y="15" type="line"/>
      <point x="387" y="57"/>
      <point x="397" y="99"/>
      <point x="397" y="137" type="curve" smooth="yes"/>
      <point x="397" y="240"/>
      <point x="327" y="318"/>
      <point x="212" y="318" type="curve" smooth="yes"/>
      <point x="108" y="318"/>
      <point x="49" y="244"/>
      <point x="49" y="163" type="curve" smooth="yes"/>
      <point x="49" y="79"/>
      <point x="112" y="9"/>
      <point x="186" y="9" type="curve" smooth="yes"/>
      <point x="233" y="9"/>
      <point x="257" y="38"/>
      <point x="257" y="71" type="curve" smooth="yes"/>
      <point x="257" y="107"/>
      <point x="230" y="133"/>
      <point x="195" y="133" type="curve" smooth="yes"/>
      <point x="159" y="133"/>
      <point x="129" y="104"/>
      <point x="129" y="74" type="curve" smooth="yes"/>
      <point x="129" y="59"/>
      <point x="136" y="44"/>
      <point x="154" y="32" type="curve"/>
      <point x="161" y="38" type="line"/>
      <point x="111" y="65"/>
      <point x="88" y="109"/>
      <point x="88" y="153" type="curve" smooth="yes"/>
      <point x="88" y="216"/>
      <point x="135" y="277"/>
      <point x="215" y="277" type="curve" smooth="yes"/>
      <point x="299" y="277"/>
      <point x="354" y="202"/>
      <point x="354" y="135" type="curve" smooth="yes"/>
      <point x="354" y="50"/>
      <point x="324" y="18"/>
      <point x="324" y="5" type="curve" smooth="yes"/>
      <point x="324" y="-5"/>
      <point x="330" y="-12"/>
    </contour>
    <contour>
      <point x="193" y="38" type="curve" smooth="yes"/>
      <point x="172" y="38"/>
      <point x="161" y="54"/>
      <point x="161" y="71" type="curve" smooth="yes"/>
      <point x="161" y="93"/>
      <point x="180" y="105"/>
      <point x="194" y="105" type="curve" smooth="yes"/>
      <point x="209" y="105"/>
      <point x="226" y="91"/>
      <point x="226" y="71" type="curve" smooth="yes"/>
      <point x="226" y="52"/>
      <point x="212" y="38"/>
    </contour>
  </outline>
</glyph>
<glyph name="bVaAssamese" format="1">
  <advance width="485"/>
  <unicode hex="09F1"/>
  <outline>
    <contour>
      <point x="270" y="35" type="curve" smooth="yes"/>
      <point x="289" y="13"/>
      <point x="311" y="32"/>
      <point x="290" y="57" type="curve" smooth="yes"/>
      <point x="223" y="137"/>
      <point x="143" y="183"/>
      <point x="63" y="210" type="curve" smooth="yes"/>
      <point x="34" y="220"/>
      <point x="19" y="194"/>
      <point x="51" y="182" type="curve" smooth="yes"/>
      <point x="129" y="153"/>
      <point x="202" y="113"/>
    </contour>
    <contour>
      <point x="377" y="53" type="line"/>
      <point x="377" y="164"/>
      <point x="197" y="282"/>
      <point x="35" y="312" type="curve"/>
      <point x="37" y="298" type="line"/>
      <point x="290" y="403"/>
      <point x="372" y="446"/>
      <point x="372" y="518" type="curve" smooth="yes"/>
      <point x="372" y="563"/>
      <point x="329" y="587"/>
      <point x="270" y="587" type="curve" smooth="yes"/>
      <point x="0" y="587" type="line" smooth="yes"/>
      <point x="-7" y="587"/>
      <point x="-16" y="582"/>
      <point x="-16" y="571" type="curve" smooth="yes"/>
      <point x="-16" y="562"/>
      <point x="-9" y="554"/>
      <point x="0" y="554" type="curve" smooth="yes"/>
      <point x="270" y="554" type="line" smooth="yes"/>
      <point x="324" y="554"/>
      <point x="345" y="539"/>
      <point x="345" y="520" type="curve" smooth="yes"/>
      <point x="345" y="490"/>
      <point x="298" y="457"/>
      <point x="38" y="343" type="curve" smooth="yes"/>
      <point x="19" y="334"/>
      <point x="10" y="323"/>
      <point x="10" y="310" type="curve" smooth="yes"/>
      <point x="10" y="295"/>
      <point x="21" y="280"/>
      <point x="45" y="273" type="curve" smooth="yes"/>
      <point x="125" y="248"/>
      <point x="344" y="165"/>
      <point x="344" y="48" type="curve"/>
    </contour>
    <contour>
      <point x="364" y="-12" type="curve" smooth="yes"/>
      <point x="375" y="-12"/>
      <point x="384" y="-1"/>
      <point x="384" y="13" type="curve" smooth="yes"/>
      <point x="384" y="470" type="line" smooth="yes"/>
      <point x="384" y="544"/>
      <point x="391" y="554"/>
      <point x="425" y="554" type="curve" smooth="yes"/>
      <point x="485" y="554" type="line" smooth="yes"/>
      <point x="496" y="554"/>
      <point x="505" y="561"/>
      <point x="505" y="571" type="curve" smooth="yes"/>
      <point x="505" y="580"/>
      <point x="496" y="587"/>
      <point x="485" y="587" type="curve" smooth="yes"/>
      <point x="413" y="587" type="line" smooth="yes"/>
      <point x="364" y="587"/>
      <point x="344" y="558"/>
      <point x="344" y="482" type="curve" smooth="yes"/>
      <point x="344" y="13" type="line" smooth="yes"/>
      <point x="344" y="-1"/>
      <point x="353" y="-12"/>
    </contour>
  </outline>
</glyph>
<glyph name="ZWNJ" format="1">
  <advance width="0"/>
  <unicode hex="200C"/>
  <outline>
    <contour>
      <point x="20" y="-243" type="curve" smooth="yes"/>
      <point x="32" y="-243"/>
      <point x="40" y="-235"/>
      <point x="40" y="-223" type="curve" smooth="yes"/>
      <point x="40" y="820" type="line" smooth="yes"/>
      <point x="40" y="831"/>
      <point x="32" y="841"/>
      <point x="20" y="841" type="curve" smooth="yes"/>
      <point x="8" y="841"/>
      <point x="0" y="832"/>
      <point x="0" y="821" type="curve" smooth="yes"/>
      <point x="0" y="-223" type="line" smooth="yes"/>
      <point x="0" y="-234"/>
      <point x="8" y="-243"/>
    </contour>
  </outline>
</glyph>
<glyph name="endash" format="1">
  <advance width="501"/>
  <unicode hex="2013"/>
  <outline>
    <contour>
      <point x="402" y="198" type="line" smooth="yes"/>
      <point x="413" y="198"/>
      <point x="422" y="207"/>
      <point x="422" y="218" type="curve" smooth="yes"/>
      <point x="422" y="229"/>
      <point x="413" y="238"/>
      <point x="402" y="238" type="curve" smooth="yes"/>
      <point x="99" y="238" type="line" smooth="yes"/>
      <point x="88" y="238"/>
      <point x="79" y="229"/>
      <point x="79" y="218" type="curve" smooth="yes"/>
      <point x="79" y="207"/>
      <point x="88" y="198"/>
      <point x="99" y="198" type="curve" smooth="yes"/>
    </contour>
  </outline>
</glyph>
<glyph name="guilsinglleft" format="1">
  <advance width="251"/>
  <unicode hex="2039"/>
  <outline>
    <contour>
      <point x="188" y="15" type="curve" smooth="yes"/>
      <point x="197" y="21"/>
      <point x="199" y="34"/>
      <point x="192" y="43" type="curve" smooth="yes"/>
      <point x="76" y="201" type="line" smooth="yes"/>
      <point x="70" y="210"/>
      <point x="57" y="212"/>
      <point x="48" y="205" type="curve" smooth="yes"/>
      <point x="39" y="199"/>
      <point x="37" y="186"/>
      <point x="44" y="177" type="curve" smooth="yes"/>
      <point x="160" y="19" type="line" smooth="yes"/>
      <point x="166" y="10"/>
      <point x="179" y="8"/>
    </contour>
    <contour>
      <point x="48" y="178" type="curve" smooth="yes"/>
      <point x="57" y="171"/>
      <point x="70" y="173"/>
      <point x="76" y="182" type="curve" smooth="yes"/>
      <point x="192" y="340" type="line" smooth="yes"/>
      <point x="199" y="349"/>
      <point x="197" y="362"/>
      <point x="188" y="368" type="curve" smooth="yes"/>
      <point x="179" y="375"/>
      <point x="166" y="373"/>
      <point x="160" y="364" type="curve" smooth="yes"/>
      <point x="44" y="206" type="line" smooth="yes"/>
      <point x="37" y="197"/>
      <point x="39" y="184"/>
    </contour>
  </outline>
</glyph>
<glyph name="lessequal" format="1">
  <advance width="562"/>
  <unicode hex="2264"/>
  <outline>
    <contour>
      <point x="477" y="454" type="line" smooth="yes"/>
      <point x="487" y="458"/>
      <point x="492" y="470"/>
      <point x="489" y="480" type="curve" smooth="yes"/>
      <point x="485" y="490"/>
      <point x="473" y="495"/>
      <point x="463" y="492" type="curve" smooth="yes"/>
      <point x="92" y="358" type="line" smooth="yes"/>
      <point x="82" y="354"/>
      <point x="77" y="342"/>
      <point x="80" y="332" type="curve" smooth="yes"/>
      <point x="84" y="322"/>
      <point x="96" y="317"/>
      <point x="106" y="320" type="curve" smooth="yes"/>
    </contour>
    <contour>
      <point x="487" y="48" type="line" smooth="yes"/>
      <point x="498" y="48"/>
      <point x="507" y="57"/>
      <point x="507" y="68" type="curve" smooth="yes"/>
      <point x="507" y="79"/>
      <point x="498" y="88"/>
      <point x="487" y="88" type="curve" smooth="yes"/>
      <point x="98" y="88" type="line" smooth="yes"/>
      <point x="87" y="88"/>
      <point x="78" y="79"/>
      <point x="78" y="68" type="curve" smooth="yes"/>
      <point x="78" y="57"/>
      <point x="87" y="48"/>
      <point x="98" y="48" type="curve" smooth="yes"/>
    </contour>
    <contour>
      <point x="457" y="190" type="line" smooth="yes"/>
      <point x="467" y="187"/>
      <point x="479" y="192"/>
      <point x="483" y="202" type="curve" smooth="yes"/>
      <point x="486" y="212"/>
      <point x="481" y="224"/>
      <point x="471" y="228" type="curve" smooth="yes"/>
      <point x="113" y="355" type="line" smooth="yes"/>
      <point x="103" y="358"/>
      <point x="91" y="353"/>
      <point x="87" y="343" type="curve" smooth="yes"/>
      <point x="84" y="333"/>
      <point x="89" y="321"/>
      <point x="99" y="317" type="curve" smooth="yes"/>
    </contour>
  </outline>
</glyph>
<glyph name="bBDdha" format="1">
  <advance width="738"/>
  <outline>
    <contour>
      <point x="439" y="-12" type="curve" smooth="yes"/>
      <point x="553" y="-12"/>
      <point x="686" y="193"/>
      <point x="686" y="307" type="curve" smooth="yes"/>
      <point x="686" y="365"/>
      <point x="657" y="414"/>
      <point x="599" y="414" type="curve" smooth="yes"/>
      <point x="557" y="414"/>
      <point x="523" y="382"/>
      <point x="523" y="338" type="curve" smooth="yes"/>
      <point x="523" y="295"/>
      <point x="562" y="265"/>
      <point x="600" y="265" type="curve" smooth="yes"/>
      <point x="625" y="265"/>
      <point x="649" y="277"/>
      <point x="663" y="306" type="curve"/>
      <point x="645" y="296" type="line"/>
      <point x="640" y="194"/>
      <point x="511" y="30"/>
      <point x="439" y="30" type="curve" smooth="yes"/>
      <point x="389" y="30"/>
      <point x="390" y="85"/>
      <point x="390" y="131" type="curve"/>
      <point x="389" y="500" type="line"/>
      <point x="389" y="553"/>
      <point x="406" y="554"/>
      <point x="450" y="554" type="curve" smooth="yes"/>
      <point x="738" y="554" type="line" smooth="yes"/>
      <point x="749" y="554"/>
      <point x="758" y="562"/>
      <point x="758" y="571" type="curve" smooth="yes"/>
      <point x="758" y="580"/>
      <point x="749" y="587"/>
      <point x="738" y="587" type="curve" smooth="yes"/>
      <point x="417" y="587" type="line" smooth="yes"/>
      <point x="366" y="587"/>
      <point x="350" y="563"/>
      <point x="350" y="505" type="curve" smooth="yes"/>
      <point x="350" y="130" type="line" smooth="yes"/>
      <point x="350" y="83"/>
      <point x="344" y="-12"/>
    </contour>
    <contour>
      <point x="384" y="85" type="line"/>
      <point x="388" y="183"/>
      <point x="202" y="285"/>
      <point x="35" y="312" type="curve"/>
      <point x="37" y="298" type="line"/>
      <point x="290" y="403"/>
      <point x="372" y="446"/>
      <point x="372" y="518" type="curve" smooth="yes"/>
      <point x="372" y="563"/>
      <point x="329" y="587"/>
      <point x="270" y="587" type="curve" smooth="yes"/>
      <point x="0" y="587" type="line" smooth="yes"/>
      <point x="-7" y="587"/>
      <point x="-16" y="582"/>
      <point x="-16" y="571" type="curve" smooth="yes"/>
      <point x="-16" y="562"/>
      <point x="-9" y="554"/>
      <point x="0" y="554" type="curve" smooth="yes"/>
      <point x="270" y="554" type="line" smooth="yes"/>
      <point x="324" y="554"/>
      <point x="345" y="539"/>
      <point x="345" y="520" type="curve" smooth="yes"/>
      <point x="345" y="490"/>
      <point x="298" y="457"/>
      <point x="38" y="343" type="curve" smooth="yes"/>
      <point x="19" y="334"/>
      <point x="10" y="323"/>
      <point x="10" y="310" type="curve" smooth="yes"/>
      <point x="10" y="295"/>
      <point x="21" y="280"/>
      <point x="45" y="273" type="curve" smooth="yes"/>
      <point x="128" y="251"/>
      <point x="355" y="181"/>
      <point x="351" y="80" type="curve"/>
    </contour>
    <contour>
      <point x="603" y="297" type="curve" smooth="yes"/>
      <point x="581" y="297"/>
      <point x="563" y="315"/>
      <point x="563" y="337" type="curve" smooth="yes"/>
      <point x="563" y="359"/>
      <point x="581" y="377"/>
      <point x="603" y="377" type="curve" smooth="yes"/>
      <point x="625" y="377"/>
      <point x="643" y="359"/>
      <point x="643" y="337" type="curve" smooth="yes"/>
      <point x="643" y="315"/>
      <point x="625" y="297"/>
    </contour>
  </outline>
</glyph>
<glyph name="bBaphala" format="1">
  <advance width="0"/>
  <outline>
    <contour>
      <point x="-121" y="-157" type="curve" smooth="yes"/>
      <point x="-107" y="-157"/>
      <point x="-103" y="-140"/>
      <point x="-103" y="-121" type="curve"/>
      <point x="-102" y="128" type="line"/>
      <point x="-102" y="146"/>
      <point x="-109" y="153"/>
      <point x="-118" y="153" type="curve" smooth="yes"/>
      <point x="-125" y="153"/>
      <point x="-143" y="139"/>
      <point x="-186" y="115" type="curve" smooth="yes"/>
      <point x="-317" y="41" type="line" smooth="yes"/>
      <point x="-348" y="24"/>
      <point x="-359" y="17"/>
      <point x="-359" y="2" type="curve" smooth="yes"/>
      <point x="-359" y="-11"/>
      <point x="-352" y="-21"/>
      <point x="-336" y="-24" type="curve" smooth="yes"/>
      <point x="-265" y="-36"/>
      <point x="-143" y="-85"/>
      <point x="-143" y="-122" type="curve"/>
      <point x="-118" y="-107" type="line"/>
      <point x="-150" y="-34"/>
      <point x="-277" y="7"/>
      <point x="-336" y="6" type="curve"/>
      <point x="-330" y="-7" type="line"/>
      <point x="-121" y="110" type="line"/>
      <point x="-143" y="113" type="line"/>
      <point x="-143" y="-120" type="line" smooth="yes"/>
      <point x="-143" y="-140"/>
      <point x="-138" y="-157"/>
    </contour>
  </outline>
</glyph>
<glyph name="bBhRa_bSignUu" format="1">
  <advance width="725"/>
  <outline>
    <contour>
      <point x="725" y="554" type="line" smooth="yes"/>
      <point x="736" y="554"/>
      <point x="745" y="562"/>
      <point x="745" y="571" type="curve" smooth="yes"/>
      <point x="745" y="580"/>
      <point x="736" y="587"/>
      <point x="725" y="587" type="curve" smooth="yes"/>
      <point x="538" y="587" type="line" smooth="yes"/>
      <point x="531" y="587"/>
      <point x="523" y="582"/>
      <point x="523" y="571" type="curve" smooth="yes"/>
      <point x="523" y="562"/>
      <point x="529" y="554"/>
      <point x="538" y="554" type="curve" smooth="yes"/>
    </contour>
    <contour>
      <point x="604" y="-12" type="curve" smooth="yes"/>
      <point x="616" y="-12"/>
      <point x="623" y="-1"/>
      <point x="623" y="14" type="curve" smooth="yes"/>
      <point x="623" y="224" type="line" smooth="yes"/>
      <point x="623" y="304"/>
      <point x="646" y="356"/>
      <point x="646" y="379" type="curve" smooth="yes"/>
      <point x="646" y="395"/>
      <point x="634" y="409"/>
      <point x="611" y="409" type="curve" smooth="yes"/>
      <point x="586" y="409"/>
      <point x="454" y="312"/>
      <point x="435" y="297" type="curve"/>
      <point x="439" y="248" type="line"/>
      <point x="469" y="272"/>
      <point x="592" y="366"/>
      <point x="618" y="373" type="curve"/>
      <point x="613" y="399" type="line"/>
      <point x="591" y="340"/>
      <point x="584" y="270"/>
      <point x="584" y="219" type="curve" smooth="yes"/>
      <point x="584" y="14" type="line" smooth="yes"/>
      <point x="584" y="-1"/>
      <point x="593" y="-12"/>
    </contour>
    <contour>
      <point x="440" y="-12" type="curve" smooth="yes"/>
      <point x="452" y="-12"/>
      <point x="459" y="-1"/>
      <point x="459" y="13" type="curve" smooth="yes"/>
      <point x="459" y="278" type="line" smooth="yes"/>
      <point x="459" y="367"/>
      <point x="421" y="415"/>
      <point x="390" y="415" type="curve" smooth="yes"/>
      <point x="374" y="415"/>
      <point x="368" y="404"/>
      <point x="363" y="387" type="curve" smooth="yes"/>
      <point x="350" y="344"/>
      <point x="304" y="295"/>
      <point x="237" y="295" type="curve" smooth="yes"/>
      <point x="201" y="295"/>
      <point x="175" y="312"/>
      <point x="151" y="333" type="curve"/>
      <point x="134" y="331" type="line"/>
      <point x="150" y="322"/>
      <point x="168" y="315"/>
      <point x="180" y="315" type="curve" smooth="yes"/>
      <point x="218" y="315"/>
      <point x="255" y="343"/>
      <point x="255" y="383" type="curve" smooth="yes"/>
      <point x="255" y="426"/>
      <point x="224" y="461"/>
      <point x="178" y="461" type="curve" smooth="yes"/>
      <point x="140" y="461"/>
      <point x="100" y="428"/>
      <point x="100" y="380" type="curve" smooth="yes"/>
      <point x="100" y="322"/>
      <point x="160" y="258"/>
      <point x="243" y="258" type="curve" smooth="yes"/>
      <point x="366" y="258"/>
      <point x="403" y="369"/>
      <point x="403" y="393" type="curve"/>
      <point x="374" y="376" type="line"/>
      <point x="391" y="376"/>
      <point x="419" y="368"/>
      <point x="419" y="284" type="curve" smooth="yes"/>
      <point x="419" y="13" type="line" smooth="yes"/>
      <point x="419" y="-1"/>
      <point x="428" y="-12"/>
    </contour>
    <contour>
      <point x="176" y="343" type="curve" smooth="yes"/>
      <point x="157" y="343"/>
      <point x="136" y="357"/>
      <point x="136" y="383" type="curve" smooth="yes"/>
      <point x="136" y="410"/>
      <point x="157" y="423"/>
      <point x="176" y="423" type="curve" smooth="yes"/>
      <point x="196" y="423"/>
      <point x="216" y="410"/>
      <point x="216" y="383" type="curve" smooth="yes"/>
      <point x="216" y="357"/>
      <point x="196" y="343"/>
    </contour>
    <contour>
      <point x="558" y="554" type="line" smooth="yes"/>
      <point x="569" y="554"/>
      <point x="578" y="562"/>
      <point x="578" y="571" type="curve" smooth="yes"/>
      <point x="578" y="580"/>
      <point x="569" y="587"/>
      <point x="558" y="587" type="curve" smooth="yes"/>
      <point x="0" y="587" type="line" smooth="yes"/>
      <point x="-11" y="587"/>
      <point x="-20" y="580"/>
      <point x="-20" y="571" type="curve" smooth="yes"/>
      <point x="-20" y="562"/>
      <point x="-11" y="554"/>
      <point x="0" y="554" type="curve" smooth="yes"/>
    </contour>
    <contour>
      <point x="440" y="31" type="line"/>
      <point x="426" y="95"/>
      <point x="351" y="110"/>
      <point x="308" y="110" type="curve" smooth="yes"/>
      <point x="253" y="110"/>
      <point x="178" y="90"/>
      <point x="138" y="90" type="curve" smooth="yes"/>
      <point x="101" y="90"/>
      <point x="69" y="108"/>
      <point x="69" y="157" type="curve" smooth="yes"/>
      <point x="69" y="183"/>
      <point x="77" y="208"/>
      <point x="77" y="219" type="curve" smooth="yes"/>
      <point x="77" y="226"/>
      <point x="74" y="234"/>
      <point x="64" y="234" type="curve" smooth="yes"/>
      <point x="39" y="234"/>
      <point x="31" y="185"/>
      <point x="31" y="158" type="curve" smooth="yes"/>
      <point x="31" y="97"/>
      <point x="73" y="50"/>
      <point x="137" y="50" type="curve" smooth="yes"/>
      <point x="180" y="50"/>
      <point x="265" y="71"/>
      <point x="321" y="71" type="curve" smooth="yes"/>
      <point x="371" y="71"/>
      <point x="419" y="53"/>
      <point x="419" y="13" type="curve"/>
    </contour>
  </outline>
</glyph>
<glyph name="bCChBa" format="1">
  <advance width="772"/>
  <outline>
    <contour>
      <point x="764" y="17" type="curve" smooth="yes"/>
      <point x="781" y="17"/>
      <point x="789" y="27"/>
      <point x="789" y="36" type="curve" smooth="yes"/>
      <point x="789" y="44"/>
      <point x="784" y="53"/>
      <point x="768" y="53" type="curve" smooth="yes"/>
      <point x="724" y="53"/>
      <point x="654" y="62"/>
      <point x="579" y="118" type="curve" smooth="yes"/>
      <point x="543" y="145"/>
      <point x="492" y="177"/>
      <point x="454" y="177" type="curve" smooth="yes"/>
      <point x="416" y="177"/>
      <point x="394" y="155"/>
      <point x="394" y="129" type="curve" smooth="yes"/>
      <point x="394" y="94"/>
      <point x="430" y="75"/>
      <point x="472" y="75" type="curve" smooth="yes"/>
      <point x="583" y="75"/>
      <point x="725" y="174"/>
      <point x="725" y="299" type="curve" smooth="yes"/>
      <point x="725" y="385"/>
      <point x="649" y="454"/>
      <point x="552" y="454" type="curve" smooth="yes"/>
      <point x="474" y="454"/>
      <point x="411" y="479"/>
      <point x="411" y="515" type="curve" smooth="yes"/>
      <point x="411" y="552"/>
      <point x="431" y="554"/>
      <point x="459" y="554" type="curve" smooth="yes"/>
      <point x="772" y="554" type="line" smooth="yes"/>
      <point x="783" y="554"/>
      <point x="792" y="562"/>
      <point x="792" y="571" type="curve" smooth="yes"/>
      <point x="792" y="580"/>
      <point x="783" y="587"/>
      <point x="772" y="587" type="curve" smooth="yes"/>
      <point x="448" y="587" type="line" smooth="yes"/>
      <point x="391" y="587"/>
      <point x="372" y="574"/>
      <point x="372" y="511" type="curve"/>
      <point x="387" y="525" type="line"/>
      <point x="374" y="561"/>
      <point x="357" y="587"/>
      <point x="296" y="587" type="curve" smooth="yes"/>
      <point x="166" y="587" type="line"/>
      <point x="116" y="586"/>
      <point x="100" y="575"/>
      <point x="100" y="518" type="curve"/>
      <point x="112" y="518" type="line"/>
      <point x="100" y="563"/>
      <point x="86" y="587"/>
      <point x="21" y="587" type="curve" smooth="yes"/>
      <point x="0" y="587" type="line" smooth="yes"/>
      <point x="-11" y="587"/>
      <point x="-20" y="580"/>
      <point x="-20" y="571" type="curve" smooth="yes"/>
      <point x="-20" y="562"/>
      <point x="-11" y="554"/>
      <point x="0" y="554" type="curve" smooth="yes"/>
      <point x="32" y="554" type="line" smooth="yes"/>
      <point x="83" y="554"/>
      <point x="99" y="503"/>
      <point x="99" y="454" type="curve" smooth="yes"/>
      <point x="99" y="181" type="line" smooth="yes"/>
      <point x="99" y="103"/>
      <point x="135" y="63"/>
      <point x="185" y="63" type="curve" smooth="yes"/>
      <point x="279" y="63"/>
      <point x="395" y="210"/>
      <point x="395" y="296" type="curve" smooth="yes"/>
      <point x="395" y="340"/>
      <point x="381" y="371"/>
      <point x="286" y="393" type="curve" smooth="yes"/>
      <point x="227" y="407"/>
      <point x="139" y="434"/>
      <point x="139" y="512" type="curve" smooth="yes"/>
      <point x="139" y="544"/>
      <point x="150" y="554"/>
      <point x="169" y="554" type="curve" smooth="yes"/>
      <point x="307" y="554" type="line" smooth="yes"/>
      <point x="356" y="554"/>
      <point x="372" y="513"/>
      <point x="372" y="482" type="curve"/>
      <point x="370" y="306" type="line" smooth="yes"/>
      <point x="369" y="232"/>
      <point x="406" y="213"/>
      <point x="453" y="213" type="curve" smooth="yes"/>
      <point x="539" y="213"/>
      <point x="666" y="351"/>
      <point x="619" y="425" type="curve"/>
      <point x="606" y="415" type="line"/>
      <point x="672" y="386"/>
      <point x="687" y="346"/>
      <point x="687" y="302" type="curve" smooth="yes"/>
      <point x="687" y="213"/>
      <point x="569" y="117"/>
      <point x="471" y="117" type="curve" smooth="yes"/>
      <point x="452" y="117"/>
      <point x="441" y="125"/>
      <point x="441" y="131" type="curve" smooth="yes"/>
      <point x="441" y="136"/>
      <point x="446" y="139"/>
      <point x="455" y="139" type="curve" smooth="yes"/>
      <point x="472" y="139"/>
      <point x="512" y="116"/>
      <point x="536" y="100" type="curve"/>
      <point x="614" y="43"/>
      <point x="710" y="17"/>
    </contour>
    <contour>
      <point x="188" y="104" type="curve" smooth="yes"/>
      <point x="166" y="104"/>
      <point x="139" y="115"/>
      <point x="139" y="181" type="curve" smooth="yes"/>
      <point x="139" y="467" type="line"/>
      <point x="121" y="464" type="line"/>
      <point x="142" y="392"/>
      <point x="245" y="360"/>
      <point x="286" y="351" type="curve" smooth="yes"/>
      <point x="331" y="340"/>
      <point x="359" y="327"/>
      <point x="359" y="298" type="curve" smooth="yes"/>
      <point x="359" y="238"/>
      <point x="253" y="104"/>
    </contour>
    <contour>
      <point x="662" y="-138" type="line"/>
      <point x="628" y="-72"/>
      <point x="518" y="-34"/>
      <point x="474" y="-34" type="curve"/>
      <point x="484" y="-45" type="line"/>
      <point x="655" y="46" type="line"/>
      <point x="632" y="73" type="line"/>
      <point x="484" y="-6" type="line" smooth="yes"/>
      <point x="461" y="-18"/>
      <point x="451" y="-23"/>
      <point x="451" y="-38" type="curve" smooth="yes"/>
      <point x="451" y="-51"/>
      <point x="458" y="-58"/>
      <point x="474" y="-62" type="curve" smooth="yes"/>
      <point x="552" y="-79"/>
      <point x="637" y="-120"/>
      <point x="637" y="-151" type="curve"/>
    </contour>
    <contour>
      <point x="657" y="-176" type="curve" smooth="yes"/>
      <point x="668" y="-176"/>
      <point x="676" y="-165"/>
      <point x="676" y="-151" type="curve"/>
      <point x="677" y="62" type="line"/>
      <point x="637" y="59" type="line"/>
      <point x="637" y="-151" type="line" smooth="yes"/>
      <point x="637" y="-165"/>
      <point x="646" y="-176"/>
    </contour>
    <contour>
      <point x="448" y="248" type="curve" smooth="yes"/>
      <point x="421" y="248"/>
      <point x="410" y="265"/>
      <point x="410" y="305" type="curve" smooth="yes"/>
      <point x="410" y="484" type="line"/>
      <point x="395" y="474" type="line"/>
      <point x="413" y="428"/>
      <point x="481" y="419"/>
      <point x="529" y="419" type="curve" smooth="yes"/>
      <point x="569" y="419"/>
      <point x="594" y="412"/>
      <point x="594" y="384" type="curve" smooth="yes"/>
      <point x="594" y="337"/>
      <point x="502" y="248"/>
    </contour>
  </outline>
</glyph>
<glyph name="bCNa" format="1">
  <advance width="465"/>
  <outline>
    <contour>
      <point x="176" y="48" type="curve" smooth="yes"/>
      <point x="287" y="48"/>
      <point x="432" y="205"/>
      <point x="432" y="290" type="curve" smooth="yes"/>
      <point x="432" y="336"/>
      <point x="404" y="360"/>
      <point x="341" y="373" type="curve" smooth="yes"/>
      <point x="210" y="400"/>
      <point x="139" y="416"/>
      <point x="139" y="505" type="curve" smooth="yes"/>
      <point x="139" y="554"/>
      <point x="162" y="555"/>
      <point x="190" y="555" type="curve"/>
      <point x="465" y="554" type="line"/>
      <point x="476" y="554"/>
      <point x="485" y="562"/>
      <point x="485" y="571" type="curve" smooth="yes"/>
      <point x="485" y="580"/>
      <point x="476" y="587"/>
      <point x="465" y="587" type="curve" smooth="yes"/>
      <point x="176" y="587" type="line" smooth="yes"/>
      <point x="128" y="587"/>
      <point x="101" y="563"/>
      <point x="101" y="514" type="curve"/>
      <point x="113" y="530" type="line"/>
      <point x="104" y="560"/>
      <point x="76" y="587"/>
      <point x="34" y="587" type="curve" smooth="yes"/>
      <point x="0" y="587" type="line" smooth="yes"/>
      <point x="-11" y="587"/>
      <point x="-20" y="580"/>
      <point x="-20" y="571" type="curve" smooth="yes"/>
      <point x="-20" y="562"/>
      <point x="-11" y="554"/>
      <point x="0" y="554" type="curve" smooth="yes"/>
      <point x="32" y="554" type="line" smooth="yes"/>
      <point x="94" y="554"/>
      <point x="100" y="487"/>
      <point x="100" y="439" type="curve"/>
      <point x="98" y="182" type="line" smooth="yes"/>
      <point x="97" y="89"/>
      <point x="125" y="48"/>
    </contour>
    <contour>
      <point x="309" y="-172" type="curve" smooth="yes"/>
      <point x="320" y="-172"/>
      <point x="329" y="-161"/>
      <point x="329" y="-147" type="curve" smooth="yes"/>
      <point x="329" y="139" type="line"/>
      <point x="289" y="139" type="line"/>
      <point x="289" y="-147" type="line" smooth="yes"/>
      <point x="289" y="-161"/>
      <point x="298" y="-172"/>
    </contour>
    <contour>
      <point x="113" y="-108" type="curve" smooth="yes"/>
      <point x="90" y="-108"/>
      <point x="72" y="-90"/>
      <point x="72" y="-68" type="curve" smooth="yes"/>
      <point x="72" y="-42"/>
      <point x="90" y="-28"/>
      <point x="113" y="-28" type="curve" smooth="yes"/>
      <point x="134" y="-28"/>
      <point x="152" y="-42"/>
      <point x="152" y="-68" type="curve" smooth="yes"/>
      <point x="152" y="-90"/>
      <point x="134" y="-108"/>
    </contour>
    <contour>
      <point x="114" y="-143" type="curve" smooth="yes"/>
      <point x="151" y="-143"/>
      <point x="188" y="-115"/>
      <point x="188" y="-72" type="curve" smooth="yes"/>
      <point x="188" y="-32"/>
      <point x="157" y="-5"/>
      <point x="118" y="0" type="curve"/>
      <point x="118" y="-11" type="line"/>
      <point x="184" y="0"/>
      <point x="289" y="-46"/>
      <point x="289" y="-123" type="curve"/>
      <point x="314" y="-99" type="line"/>
      <point x="294" y="-18"/>
      <point x="215" y="25"/>
      <point x="146" y="25" type="curve" smooth="yes"/>
      <point x="93" y="25"/>
      <point x="35" y="-5"/>
      <point x="35" y="-65" type="curve" smooth="yes"/>
      <point x="35" y="-112"/>
      <point x="69" y="-143"/>
    </contour>
    <contour>
      <point x="179" y="92" type="curve" smooth="yes"/>
      <point x="136" y="92"/>
      <point x="139" y="156"/>
      <point x="139" y="182" type="curve" smooth="yes"/>
      <point x="139" y="450" type="line"/>
      <point x="125" y="430" type="line"/>
      <point x="149" y="378"/>
      <point x="235" y="352"/>
      <point x="329" y="333" type="curve" smooth="yes"/>
      <point x="363" y="326"/>
      <point x="388" y="319"/>
      <point x="388" y="289" type="curve" smooth="yes"/>
      <point x="388" y="232"/>
      <point x="258" y="92"/>
    </contour>
  </outline>
</glyph>
<glyph name="bCRa" format="1">
  <advance width="500"/>
  <outline>
    <contour>
      <point x="211" y="8" type="curve" smooth="yes"/>
      <point x="322" y="8"/>
      <point x="467" y="184"/>
      <point x="467" y="290" type="curve" smooth="yes"/>
      <point x="467" y="336"/>
      <point x="439" y="360"/>
      <point x="376" y="373" type="curve" smooth="yes"/>
      <point x="245" y="400"/>
      <point x="174" y="416"/>
      <point x="174" y="505" type="curve" smooth="yes"/>
      <point x="174" y="554"/>
      <point x="197" y="555"/>
      <point x="225" y="555" type="curve"/>
      <point x="500" y="554" type="line"/>
      <point x="511" y="554"/>
      <point x="520" y="562"/>
      <point x="520" y="571" type="curve" smooth="yes"/>
      <point x="520" y="580"/>
      <point x="511" y="587"/>
      <point x="500" y="587" type="curve" smooth="yes"/>
      <point x="211" y="587" type="line" smooth="yes"/>
      <point x="163" y="587"/>
      <point x="136" y="563"/>
      <point x="136" y="514" type="curve"/>
      <point x="148" y="530" type="line"/>
      <point x="139" y="560"/>
      <point x="111" y="587"/>
      <point x="69" y="587" type="curve" smooth="yes"/>
      <point x="0" y="587" type="line" smooth="yes"/>
      <point x="-11" y="587"/>
      <point x="-20" y="580"/>
      <point x="-20" y="571" type="curve" smooth="yes"/>
      <point x="-20" y="562"/>
      <point x="-11" y="554"/>
      <point x="0" y="554" type="curve" smooth="yes"/>
      <point x="67" y="554" type="line" smooth="yes"/>
      <point x="145" y="554"/>
      <point x="135" y="449"/>
      <point x="135" y="406" type="curve"/>
      <point x="133" y="142" type="line" smooth="yes"/>
      <point x="132" y="29"/>
      <point x="160" y="8"/>
    </contour>
    <contour>
      <point x="214" y="52" type="curve" smooth="yes"/>
      <point x="171" y="52"/>
      <point x="174" y="116"/>
      <point x="174" y="142" type="curve" smooth="yes"/>
      <point x="174" y="450" type="line"/>
      <point x="160" y="430" type="line"/>
      <point x="184" y="378"/>
      <point x="270" y="352"/>
      <point x="364" y="333" type="curve" smooth="yes"/>
      <point x="398" y="326"/>
      <point x="423" y="319"/>
      <point x="423" y="289" type="curve" smooth="yes"/>
      <point x="423" y="215"/>
      <point x="293" y="52"/>
    </contour>
    <contour>
      <point x="407" y="-167" type="curve" smooth="yes"/>
      <point x="418" y="-167"/>
      <point x="427" y="-155"/>
      <point x="427" y="-141" type="curve" smooth="yes"/>
      <point x="427" y="200" type="line"/>
      <point x="387" y="168" type="line"/>
      <point x="387" y="-142" type="line" smooth="yes"/>
      <point x="387" y="-156"/>
      <point x="396" y="-167"/>
    </contour>
    <contour>
      <point x="413" y="-122" type="line"/>
      <point x="398" y="-50"/>
      <point x="345" y="-34"/>
      <point x="309" y="-34" type="curve" smooth="yes"/>
      <point x="257" y="-34"/>
      <point x="196" y="-59"/>
      <point x="148" y="-59" type="curve" smooth="yes"/>
      <point x="112" y="-59"/>
      <point x="75" y="-40"/>
      <point x="75" y="7" type="curve" smooth="yes"/>
      <point x="75" y="35"/>
      <point x="88" y="63"/>
      <point x="88" y="76" type="curve" smooth="yes"/>
      <point x="88" y="82"/>
      <point x="85" y="90"/>
      <point x="75" y="90" type="curve" smooth="yes"/>
      <point x="50" y="90"/>
      <point x="42" y="41"/>
      <point x="42" y="14" type="curve" smooth="yes"/>
      <point x="42" y="-42"/>
      <point x="76" y="-94"/>
      <point x="156" y="-94" type="curve" smooth="yes"/>
      <point x="214" y="-94"/>
      <point x="273" y="-73"/>
      <point x="322" y="-73" type="curve" smooth="yes"/>
      <point x="354" y="-73"/>
      <point x="387" y="-95"/>
      <point x="387" y="-142" type="curve"/>
    </contour>
  </outline>
</glyph>
<glyph name="bDBha" format="1">
  <advance width="571"/>
  <outline>
    <contour>
      <point x="434" y="198" type="line"/>
      <point x="430" y="244"/>
      <point x="417" y="281"/>
      <point x="417" y="340" type="curve" smooth="yes"/>
      <point x="417" y="410"/>
      <point x="454" y="457"/>
      <point x="454" y="485" type="curve" smooth="yes"/>
      <point x="454" y="497"/>
      <point x="449" y="507"/>
      <point x="436" y="507" type="curve" smooth="yes"/>
      <point x="398" y="507"/>
      <point x="260" y="436"/>
      <point x="181" y="367" type="curve"/>
      <point x="206" y="344" type="line"/>
      <point x="206" y="457" type="line" smooth="yes"/>
      <point x="206" y="497"/>
      <point x="207" y="554"/>
      <point x="256" y="554" type="curve" smooth="yes"/>
      <point x="608" y="554" type="line" smooth="yes"/>
      <point x="619" y="554"/>
      <point x="628" y="562"/>
      <point x="628" y="571" type="curve" smooth="yes"/>
      <point x="628" y="580"/>
      <point x="619" y="587"/>
      <point x="608" y="587" type="curve" smooth="yes"/>
      <point x="241" y="587" type="line" smooth="yes"/>
      <point x="203" y="587"/>
      <point x="171" y="566"/>
      <point x="170" y="520" type="curve"/>
      <point x="184" y="530" type="line"/>
      <point x="185" y="561"/>
      <point x="150" y="587"/>
      <point x="105" y="587" type="curve" smooth="yes"/>
      <point x="0" y="587" type="line" smooth="yes"/>
      <point x="-11" y="587"/>
      <point x="-20" y="580"/>
      <point x="-20" y="571" type="curve" smooth="yes"/>
      <point x="-20" y="562"/>
      <point x="-11" y="554"/>
      <point x="0" y="554" type="curve" smooth="yes"/>
      <point x="103" y="554" type="line" smooth="yes"/>
      <point x="169" y="554"/>
      <point x="166" y="494"/>
      <point x="166" y="457" type="curve" smooth="yes"/>
      <point x="166" y="340" type="line" smooth="yes"/>
      <point x="166" y="321"/>
      <point x="175" y="316"/>
      <point x="183" y="316" type="curve" smooth="yes"/>
      <point x="198" y="316"/>
      <point x="212" y="331"/>
      <point x="227" y="344" type="curve" smooth="yes"/>
      <point x="273" y="383"/>
      <point x="349" y="434"/>
      <point x="433" y="462" type="curve"/>
      <point x="425" y="485" type="line"/>
      <point x="394" y="431"/>
      <point x="379" y="395"/>
      <point x="379" y="342" type="curve" smooth="yes"/>
      <point x="379" y="297"/>
      <point x="393" y="249"/>
      <point x="397" y="169" type="curve"/>
    </contour>
    <contour>
      <point x="361" y="-12" type="curve" smooth="yes"/>
      <point x="473" y="-12"/>
      <point x="550" y="64"/>
      <point x="550" y="160" type="curve" smooth="yes"/>
      <point x="550" y="232"/>
      <point x="510" y="297"/>
      <point x="482" y="297" type="curve" smooth="yes"/>
      <point x="468" y="297"/>
      <point x="462" y="287"/>
      <point x="460" y="265" type="curve" smooth="yes"/>
      <point x="457" y="228"/>
      <point x="422" y="176"/>
      <point x="356" y="176" type="curve" smooth="yes"/>
      <point x="324" y="176"/>
      <point x="288" y="183"/>
      <point x="262" y="208" type="curve"/>
      <point x="236" y="209" type="line"/>
      <point x="255" y="192"/>
      <point x="274" y="185"/>
      <point x="291" y="185" type="curve" smooth="yes"/>
      <point x="335" y="185"/>
      <point x="360" y="223"/>
      <point x="360" y="254" type="curve" smooth="yes"/>
      <point x="360" y="291"/>
      <point x="335" y="328"/>
      <point x="288" y="328" type="curve" smooth="yes"/>
      <point x="250" y="328"/>
      <point x="210" y="299"/>
      <point x="210" y="251" type="curve" smooth="yes"/>
      <point x="210" y="193"/>
      <point x="269" y="136"/>
      <point x="354" y="136" type="curve" smooth="yes"/>
      <point x="466" y="136"/>
      <point x="491" y="236"/>
      <point x="491" y="258" type="curve"/>
      <point x="481" y="257" type="line"/>
      <point x="501" y="240"/>
      <point x="513" y="201"/>
      <point x="513" y="166" type="curve" smooth="yes"/>
      <point x="513" y="83"/>
      <point x="448" y="37"/>
      <point x="362" y="37" type="curve" smooth="yes"/>
      <point x="163" y="37"/>
      <point x="72" y="299"/>
      <point x="43" y="459" type="curve" smooth="yes"/>
      <point x="41" y="472"/>
      <point x="38" y="482"/>
      <point x="25" y="482" type="curve" smooth="yes"/>
      <point x="11" y="482"/>
      <point x="9" y="470"/>
      <point x="9" y="457" type="curve" smooth="yes"/>
      <point x="9" y="369"/>
      <point x="110" y="-12"/>
    </contour>
    <contour>
      <point x="286" y="214" type="curve" smooth="yes"/>
      <point x="267" y="214"/>
      <point x="246" y="228"/>
      <point x="246" y="254" type="curve" smooth="yes"/>
      <point x="246" y="281"/>
      <point x="267" y="294"/>
      <point x="286" y="294" type="curve" smooth="yes"/>
      <point x="306" y="294"/>
      <point x="326" y="281"/>
      <point x="326" y="254" type="curve" smooth="yes"/>
      <point x="326" y="228"/>
      <point x="306" y="214"/>
    </contour>
  </outline>
</glyph>
<glyph name="bDMa" format="1">
  <advance width="655"/>
  <outline>
    <contour>
      <point x="535" y="-82" type="curve" smooth="yes"/>
      <point x="546" y="-82"/>
      <point x="555" y="-71"/>
      <point x="555" y="-57" type="curve" smooth="yes"/>
      <point x="555" y="470" type="line" smooth="yes"/>
      <point x="555" y="544"/>
      <point x="562" y="554"/>
      <point x="596" y="554" type="curve" smooth="yes"/>
      <point x="655" y="554" type="line" smooth="yes"/>
      <point x="666" y="554"/>
      <point x="675" y="561"/>
      <point x="675" y="571" type="curve" smooth="yes"/>
      <point x="675" y="580"/>
      <point x="666" y="587"/>
      <point x="655" y="587" type="curve" smooth="yes"/>
      <point x="584" y="587" type="line" smooth="yes"/>
      <point x="552" y="587"/>
      <point x="517" y="569"/>
      <point x="517" y="498" type="curve"/>
      <point x="537" y="515" type="line"/>
      <point x="537" y="572"/>
      <point x="504" y="587"/>
      <point x="460" y="587" type="curve" smooth="yes"/>
      <point x="161" y="587" type="line" smooth="yes"/>
      <point x="123" y="587"/>
      <point x="91" y="566"/>
      <point x="90" y="520" type="curve"/>
      <point x="104" y="530" type="line"/>
      <point x="105" y="561"/>
      <point x="70" y="587"/>
      <point x="25" y="587" type="curve" smooth="yes"/>
      <point x="0" y="587" type="line" smooth="yes"/>
      <point x="-11" y="587"/>
      <point x="-20" y="580"/>
      <point x="-20" y="571" type="curve" smooth="yes"/>
      <point x="-20" y="562"/>
      <point x="-11" y="554"/>
      <point x="0" y="554" type="curve" smooth="yes"/>
      <point x="23" y="554" type="line" smooth="yes"/>
      <point x="89" y="554"/>
      <point x="86" y="494"/>
      <point x="86" y="457" type="curve" smooth="yes"/>
      <point x="86" y="230" type="line" smooth="yes"/>
      <point x="86" y="206"/>
      <point x="97" y="202"/>
      <point x="105" y="202" type="curve" smooth="yes"/>
      <point x="112" y="202"/>
      <point x="116" y="206"/>
      <point x="142" y="234" type="curve" smooth="yes"/>
      <point x="183" y="279"/>
      <point x="289" y="384"/>
      <point x="373" y="412" type="curve"/>
      <point x="365" y="435" type="line"/>
      <point x="329" y="393"/>
      <point x="309" y="338"/>
      <point x="309" y="285" type="curve" smooth="yes"/>
      <point x="309" y="242"/>
      <point x="321" y="176"/>
      <point x="321" y="142" type="curve" smooth="yes"/>
      <point x="321" y="94"/>
      <point x="310" y="64"/>
      <point x="272" y="64" type="curve" smooth="yes"/>
      <point x="257" y="64"/>
      <point x="241" y="73"/>
      <point x="241" y="91" type="curve" smooth="yes"/>
      <point x="241" y="111"/>
      <point x="261" y="132"/>
      <point x="332" y="132" type="curve" smooth="yes"/>
      <point x="454" y="132"/>
      <point x="515" y="53"/>
      <point x="515" y="-22" type="curve"/>
      <point x="530" y="30" type="line"/>
      <point x="515" y="112"/>
      <point x="433" y="171"/>
      <point x="320" y="171" type="curve" smooth="yes"/>
      <point x="266" y="171"/>
      <point x="204" y="146"/>
      <point x="204" y="90" type="curve" smooth="yes"/>
      <point x="204" y="50"/>
      <point x="237" y="26"/>
      <point x="277" y="26" type="curve" smooth="yes"/>
      <point x="339" y="26"/>
      <point x="361" y="75"/>
      <point x="361" y="142" type="curve" smooth="yes"/>
      <point x="361" y="195"/>
      <point x="347" y="229"/>
      <point x="347" y="275" type="curve" smooth="yes"/>
      <point x="347" y="353"/>
      <point x="394" y="407"/>
      <point x="394" y="435" type="curve" smooth="yes"/>
      <point x="394" y="447"/>
      <point x="389" y="457"/>
      <point x="376" y="457" type="curve" smooth="yes"/>
      <point x="338" y="457"/>
      <point x="186" y="356"/>
      <point x="101" y="257" type="curve"/>
      <point x="126" y="234" type="line"/>
      <point x="126" y="457" type="line" smooth="yes"/>
      <point x="126" y="497"/>
      <point x="127" y="554"/>
      <point x="176" y="554" type="curve" smooth="yes"/>
      <point x="460" y="554" type="line" smooth="yes"/>
      <point x="510" y="554"/>
      <point x="515" y="530"/>
      <point x="515" y="477" type="curve" smooth="yes"/>
      <point x="515" y="-57" type="line" smooth="yes"/>
      <point x="515" y="-71"/>
      <point x="524" y="-82"/>
    </contour>
  </outline>
</glyph>
<glyph name="bDRa_bSignUu" format="1">
  <advance width="683"/>
  <outline>
    <contour>
      <point x="683" y="554" type="line" smooth="yes"/>
      <point x="694" y="554"/>
      <point x="703" y="562"/>
      <point x="703" y="571" type="curve" smooth="yes"/>
      <point x="703" y="580"/>
      <point x="694" y="587"/>
      <point x="683" y="587" type="curve" smooth="yes"/>
      <point x="488" y="587" type="line" smooth="yes"/>
      <point x="477" y="587"/>
      <point x="468" y="580"/>
      <point x="468" y="571" type="curve" smooth="yes"/>
      <point x="468" y="562"/>
      <point x="477" y="554"/>
      <point x="488" y="554" type="curve" smooth="yes"/>
    </contour>
    <contour>
      <point x="584" y="-12" type="curve" smooth="yes"/>
      <point x="596" y="-12"/>
      <point x="603" y="-1"/>
      <point x="603" y="14" type="curve" smooth="yes"/>
      <point x="603" y="224" type="line" smooth="yes"/>
      <point x="603" y="304"/>
      <point x="626" y="356"/>
      <point x="626" y="379" type="curve" smooth="yes"/>
      <point x="626" y="395"/>
      <point x="614" y="409"/>
      <point x="591" y="409" type="curve" smooth="yes"/>
      <point x="560" y="409"/>
      <point x="416" y="312"/>
      <point x="395" y="297" type="curve"/>
      <point x="399" y="248" type="line"/>
      <point x="432" y="272"/>
      <point x="566" y="366"/>
      <point x="598" y="373" type="curve"/>
      <point x="593" y="399" type="line"/>
      <point x="571" y="340"/>
      <point x="564" y="270"/>
      <point x="564" y="219" type="curve" smooth="yes"/>
      <point x="564" y="14" type="line" smooth="yes"/>
      <point x="564" y="-1"/>
      <point x="573" y="-12"/>
    </contour>
    <contour>
      <point x="412" y="-42" type="line"/>
      <point x="391" y="22"/>
      <point x="333" y="40"/>
      <point x="286" y="40" type="curve" smooth="yes"/>
      <point x="231" y="40"/>
      <point x="156" y="10"/>
      <point x="116" y="10" type="curve" smooth="yes"/>
      <point x="79" y="10"/>
      <point x="47" y="28"/>
      <point x="47" y="77" type="curve" smooth="yes"/>
      <point x="47" y="103"/>
      <point x="55" y="128"/>
      <point x="55" y="139" type="curve" smooth="yes"/>
      <point x="55" y="146"/>
      <point x="52" y="154"/>
      <point x="42" y="154" type="curve" smooth="yes"/>
      <point x="17" y="154"/>
      <point x="9" y="105"/>
      <point x="9" y="78" type="curve" smooth="yes"/>
      <point x="9" y="17"/>
      <point x="51" y="-30"/>
      <point x="115" y="-30" type="curve" smooth="yes"/>
      <point x="158" y="-30"/>
      <point x="243" y="1"/>
      <point x="295" y="1" type="curve" smooth="yes"/>
      <point x="333" y="1"/>
      <point x="387" y="-17"/>
      <point x="387" y="-67" type="curve"/>
    </contour>
    <contour>
      <point x="407" y="-93" type="curve" smooth="yes"/>
      <point x="418" y="-93"/>
      <point x="427" y="-81"/>
      <point x="427" y="-66" type="curve" smooth="yes"/>
      <point x="427" y="79" type="line" smooth="yes"/>
      <point x="427" y="178"/>
      <point x="415" y="216"/>
      <point x="415" y="267" type="curve" smooth="yes"/>
      <point x="415" y="335"/>
      <point x="444" y="387"/>
      <point x="444" y="415" type="curve" smooth="yes"/>
      <point x="444" y="427"/>
      <point x="439" y="437"/>
      <point x="426" y="437" type="curve" smooth="yes"/>
      <point x="388" y="437"/>
      <point x="202" y="317"/>
      <point x="101" y="203" type="curve"/>
      <point x="126" y="184" type="line"/>
      <point x="126" y="480" type="line" smooth="yes"/>
      <point x="126" y="520"/>
      <point x="127" y="554"/>
      <point x="176" y="554" type="curve" smooth="yes"/>
      <point x="528" y="554" type="line" smooth="yes"/>
      <point x="539" y="554"/>
      <point x="548" y="562"/>
      <point x="548" y="571" type="curve" smooth="yes"/>
      <point x="548" y="580"/>
      <point x="539" y="587"/>
      <point x="528" y="587" type="curve" smooth="yes"/>
      <point x="161" y="587" type="line" smooth="yes"/>
      <point x="123" y="587"/>
      <point x="91" y="566"/>
      <point x="90" y="520" type="curve"/>
      <point x="104" y="530" type="line"/>
      <point x="105" y="561"/>
      <point x="70" y="587"/>
      <point x="25" y="587" type="curve" smooth="yes"/>
      <point x="0" y="587" type="line" smooth="yes"/>
      <point x="-11" y="587"/>
      <point x="-20" y="580"/>
      <point x="-20" y="571" type="curve" smooth="yes"/>
      <point x="-20" y="562"/>
      <point x="-11" y="554"/>
      <point x="0" y="554" type="curve" smooth="yes"/>
      <point x="23" y="554" type="line" smooth="yes"/>
      <point x="89" y="554"/>
      <point x="86" y="494"/>
      <point x="86" y="457" type="curve" smooth="yes"/>
      <point x="86" y="180" type="line" smooth="yes"/>
      <point x="86" y="156"/>
      <point x="96" y="152"/>
      <point x="104" y="152" type="curve" smooth="yes"/>
      <point x="120" y="152"/>
      <point x="130" y="170"/>
      <point x="143" y="183" type="curve" smooth="yes"/>
      <point x="200" y="244"/>
      <point x="339" y="368"/>
      <point x="423" y="396" type="curve"/>
      <point x="415" y="415" type="line"/>
      <point x="384" y="361"/>
      <point x="377" y="320"/>
      <point x="377" y="277" type="curve" smooth="yes"/>
      <point x="377" y="216"/>
      <point x="387" y="179"/>
      <point x="387" y="79" type="curve" smooth="yes"/>
      <point x="387" y="-67" type="line" smooth="yes"/>
      <point x="387" y="-82"/>
      <point x="396" y="-93"/>
    </contour>
  </outline>
</glyph>
<glyph name="bDdMa" format="1">
  <advance width="748"/>
  <outline>
    <contour>
      <point x="628" y="-140" type="curve" smooth="yes"/>
      <point x="639" y="-140"/>
      <point x="648" y="-129"/>
      <point x="648" y="-115" type="curve" smooth="yes"/>
      <point x="648" y="470" type="line" smooth="yes"/>
      <point x="648" y="544"/>
      <point x="655" y="554"/>
      <point x="689" y="554" type="curve" smooth="yes"/>
      <point x="748" y="554" type="line" smooth="yes"/>
      <point x="759" y="554"/>
      <point x="768" y="561"/>
      <point x="768" y="571" type="curve" smooth="yes"/>
      <point x="768" y="580"/>
      <point x="759" y="587"/>
      <point x="748" y="587" type="curve" smooth="yes"/>
      <point x="677" y="587" type="line" smooth="yes"/>
      <point x="645" y="587"/>
      <point x="610" y="569"/>
      <point x="610" y="498" type="curve"/>
      <point x="630" y="515" type="line"/>
      <point x="630" y="572"/>
      <point x="597" y="587"/>
      <point x="553" y="587" type="curve" smooth="yes"/>
      <point x="328" y="587" type="line" smooth="yes"/>
      <point x="269" y="587"/>
      <point x="234" y="562"/>
      <point x="234" y="529" type="curve"/>
      <point x="248" y="529" type="line"/>
      <point x="245" y="569"/>
      <point x="198" y="587"/>
      <point x="143" y="587" type="curve" smooth="yes"/>
      <point x="0" y="587" type="line" smooth="yes"/>
      <point x="-11" y="587"/>
      <point x="-20" y="580"/>
      <point x="-20" y="571" type="curve" smooth="yes"/>
      <point x="-20" y="562"/>
      <point x="-11" y="554"/>
      <point x="0" y="554" type="curve" smooth="yes"/>
      <point x="156" y="554" type="line" smooth="yes"/>
      <point x="178" y="554"/>
      <point x="221" y="547"/>
      <point x="221" y="520" type="curve" smooth="yes"/>
      <point x="221" y="509"/>
      <point x="206" y="474"/>
      <point x="206" y="427" type="curve" smooth="yes"/>
      <point x="206" y="340"/>
      <point x="256" y="293"/>
      <point x="321" y="293" type="curve" smooth="yes"/>
      <point x="405" y="293"/>
      <point x="429" y="389"/>
      <point x="429" y="418" type="curve"/>
      <point x="416" y="410" type="line"/>
      <point x="439" y="385"/>
      <point x="447" y="348"/>
      <point x="447" y="310" type="curve" smooth="yes"/>
      <point x="447" y="242"/>
      <point x="399" y="177"/>
      <point x="314" y="177" type="curve" smooth="yes"/>
      <point x="188" y="177"/>
      <point x="96" y="321"/>
      <point x="80" y="434" type="curve" smooth="yes"/>
      <point x="78" y="444"/>
      <point x="73" y="459"/>
      <point x="60" y="459" type="curve" smooth="yes"/>
      <point x="50" y="459"/>
      <point x="43" y="448"/>
      <point x="44" y="433" type="curve"/>
      <point x="61" y="286"/>
      <point x="166" y="130"/>
      <point x="317" y="130" type="curve" smooth="yes"/>
      <point x="414" y="130"/>
      <point x="483" y="200"/>
      <point x="483" y="303" type="curve" smooth="yes"/>
      <point x="483" y="377"/>
      <point x="446" y="454"/>
      <point x="411" y="452" type="curve" smooth="yes"/>
      <point x="397" y="451"/>
      <point x="395" y="438"/>
      <point x="395" y="426" type="curve" smooth="yes"/>
      <point x="395" y="381"/>
      <point x="367" y="330"/>
      <point x="319" y="330" type="curve" smooth="yes"/>
      <point x="271" y="330"/>
      <point x="242" y="361"/>
      <point x="242" y="427" type="curve" smooth="yes"/>
      <point x="242" y="495"/>
      <point x="260" y="554"/>
      <point x="328" y="554" type="curve" smooth="yes"/>
      <point x="553" y="554" type="line" smooth="yes"/>
      <point x="603" y="554"/>
      <point x="608" y="530"/>
      <point x="608" y="477" type="curve" smooth="yes"/>
      <point x="608" y="-115" type="line" smooth="yes"/>
      <point x="608" y="-129"/>
      <point x="617" y="-140"/>
    </contour>
    <contour>
      <point x="626" y="-33" type="line"/>
      <point x="598" y="52"/>
      <point x="518" y="115"/>
      <point x="394" y="115" type="curve" smooth="yes"/>
      <point x="299" y="115"/>
      <point x="271" y="62"/>
      <point x="271" y="26" type="curve" smooth="yes"/>
      <point x="271" y="-18"/>
      <point x="302" y="-46"/>
      <point x="347" y="-46" type="curve" smooth="yes"/>
      <point x="400" y="-46"/>
      <point x="433" y="-3"/>
      <point x="433" y="49" type="curve" smooth="yes"/>
      <point x="433" y="85"/>
      <point x="419" y="125"/>
      <point x="388" y="157" type="curve"/>
      <point x="344" y="139" type="line"/>
      <point x="377" y="114"/>
      <point x="394" y="76"/>
      <point x="394" y="46" type="curve" smooth="yes"/>
      <point x="394" y="18"/>
      <point x="375" y="-4"/>
      <point x="343" y="-4" type="curve" smooth="yes"/>
      <point x="325" y="-4"/>
      <point x="313" y="5"/>
      <point x="313" y="23" type="curve" smooth="yes"/>
      <point x="313" y="43"/>
      <point x="331" y="75"/>
      <point x="410" y="75" type="curve" smooth="yes"/>
      <point x="551" y="75"/>
      <point x="608" y="-35"/>
      <point x="608" y="-89" type="curve"/>
    </contour>
  </outline>
</glyph>
<glyph name="bDdRa" format="1">
  <advance width="594"/>
  <outline>
    <contour>
      <point x="477" y="-95" type="line"/>
      <point x="459" y="-23"/>
      <point x="396" y="-7"/>
      <point x="353" y="-7" type="curve" smooth="yes"/>
      <point x="298" y="-7"/>
      <point x="224" y="-32"/>
      <point x="182" y="-32" type="curve" smooth="yes"/>
      <point x="146" y="-32"/>
      <point x="109" y="-13"/>
      <point x="109" y="34" type="curve" smooth="yes"/>
      <point x="109" y="62"/>
      <point x="122" y="90"/>
      <point x="122" y="103" type="curve" smooth="yes"/>
      <point x="122" y="109"/>
      <point x="119" y="117"/>
      <point x="109" y="117" type="curve" smooth="yes"/>
      <point x="84" y="117"/>
      <point x="76" y="68"/>
      <point x="76" y="41" type="curve" smooth="yes"/>
      <point x="76" y="-15"/>
      <point x="110" y="-67"/>
      <point x="190" y="-67" type="curve" smooth="yes"/>
      <point x="241" y="-67"/>
      <point x="314" y="-46"/>
      <point x="361" y="-46" type="curve" smooth="yes"/>
      <point x="409" y="-46"/>
      <point x="451" y="-68"/>
      <point x="451" y="-115" type="curve"/>
    </contour>
    <contour>
      <point x="471" y="-140" type="curve" smooth="yes"/>
      <point x="482" y="-140"/>
      <point x="491" y="-128"/>
      <point x="491" y="-114" type="curve" smooth="yes"/>
      <point x="491" y="116" type="line"/>
      <point x="451" y="94" type="line"/>
      <point x="451" y="-115" type="line" smooth="yes"/>
      <point x="451" y="-129"/>
      <point x="460" y="-140"/>
    </contour>
    <contour>
      <point x="368" y="50" type="curve" smooth="yes"/>
      <point x="482" y="50"/>
      <point x="560" y="125"/>
      <point x="561" y="226" type="curve" smooth="yes"/>
      <point x="562" y="315"/>
      <point x="514" y="393"/>
      <point x="477" y="393" type="curve" smooth="yes"/>
      <point x="456" y="393"/>
      <point x="462" y="366"/>
      <point x="462" y="349" type="curve" smooth="yes"/>
      <point x="462" y="315"/>
      <point x="439" y="267"/>
      <point x="383" y="267" type="curve" smooth="yes"/>
      <point x="331" y="267"/>
      <point x="292" y="317"/>
      <point x="292" y="405" type="curve" smooth="yes"/>
      <point x="292" y="513"/>
      <point x="324" y="554"/>
      <point x="378" y="554" type="curve" smooth="yes"/>
      <point x="594" y="554" type="line" smooth="yes"/>
      <point x="605" y="554"/>
      <point x="614" y="562"/>
      <point x="614" y="571" type="curve" smooth="yes"/>
      <point x="614" y="580"/>
      <point x="605" y="587"/>
      <point x="594" y="587" type="curve" smooth="yes"/>
      <point x="367" y="587" type="line" smooth="yes"/>
      <point x="325" y="587"/>
      <point x="283" y="564"/>
      <point x="283" y="529" type="curve"/>
      <point x="298" y="529" type="line"/>
      <point x="298" y="567"/>
      <point x="256" y="587"/>
      <point x="210" y="587" type="curve" smooth="yes"/>
      <point x="0" y="587" type="line" smooth="yes"/>
      <point x="-11" y="587"/>
      <point x="-20" y="580"/>
      <point x="-20" y="571" type="curve" smooth="yes"/>
      <point x="-20" y="562"/>
      <point x="-11" y="554"/>
      <point x="0" y="554" type="curve" smooth="yes"/>
      <point x="206" y="554" type="line" smooth="yes"/>
      <point x="245" y="554"/>
      <point x="271" y="547"/>
      <point x="271" y="522" type="curve" smooth="yes"/>
      <point x="271" y="503"/>
      <point x="254" y="462"/>
      <point x="254" y="402" type="curve" smooth="yes"/>
      <point x="254" y="296"/>
      <point x="304" y="224"/>
      <point x="386" y="224" type="curve" smooth="yes"/>
      <point x="488" y="224"/>
      <point x="504" y="334"/>
      <point x="494" y="358" type="curve"/>
      <point x="482" y="354" type="line"/>
      <point x="515" y="310"/>
      <point x="522" y="267"/>
      <point x="522" y="236" type="curve" smooth="yes"/>
      <point x="522" y="158"/>
      <point x="462" y="96"/>
      <point x="364" y="96" type="curve" smooth="yes"/>
      <point x="207" y="96"/>
      <point x="103" y="270"/>
      <point x="80" y="432" type="curve" smooth="yes"/>
      <point x="78" y="443"/>
      <point x="75" y="458"/>
      <point x="61" y="458" type="curve" smooth="yes"/>
      <point x="48" y="458"/>
      <point x="45" y="447"/>
      <point x="45" y="436" type="curve" smooth="yes"/>
      <point x="45" y="326"/>
      <point x="155" y="50"/>
    </contour>
  </outline>
</glyph>
<glyph name="bDdhRa" format="1">
  <advance width="488"/>
  <outline>
    <contour>
      <point x="189" y="18" type="curve" smooth="yes"/>
      <point x="303" y="18"/>
      <point x="436" y="204"/>
      <point x="436" y="307" type="curve" smooth="yes"/>
      <point x="436" y="365"/>
      <point x="407" y="414"/>
      <point x="349" y="414" type="curve" smooth="yes"/>
      <point x="307" y="414"/>
      <point x="273" y="382"/>
      <point x="273" y="338" type="curve" smooth="yes"/>
      <point x="273" y="295"/>
      <point x="312" y="265"/>
      <point x="350" y="265" type="curve" smooth="yes"/>
      <point x="375" y="265"/>
      <point x="399" y="277"/>
      <point x="413" y="306" type="curve"/>
      <point x="395" y="296" type="line"/>
      <point x="390" y="206"/>
      <point x="261" y="60"/>
      <point x="189" y="60" type="curve" smooth="yes"/>
      <point x="139" y="60"/>
      <point x="140" y="115"/>
      <point x="140" y="161" type="curve"/>
      <point x="139" y="500" type="line"/>
      <point x="139" y="553"/>
      <point x="156" y="554"/>
      <point x="200" y="554" type="curve" smooth="yes"/>
      <point x="488" y="554" type="line" smooth="yes"/>
      <point x="499" y="554"/>
      <point x="508" y="562"/>
      <point x="508" y="571" type="curve" smooth="yes"/>
      <point x="508" y="580"/>
      <point x="499" y="587"/>
      <point x="488" y="587" type="curve" smooth="yes"/>
      <point x="167" y="587" type="line" smooth="yes"/>
      <point x="116" y="587"/>
      <point x="100" y="571"/>
      <point x="100" y="511" type="curve"/>
      <point x="107" y="535" type="line"/>
      <point x="107" y="562"/>
      <point x="69" y="587"/>
      <point x="22" y="587" type="curve" smooth="yes"/>
      <point x="0" y="587" type="line" smooth="yes"/>
      <point x="-11" y="587"/>
      <point x="-20" y="580"/>
      <point x="-20" y="571" type="curve" smooth="yes"/>
      <point x="-20" y="562"/>
      <point x="-11" y="554"/>
      <point x="0" y="554" type="curve" smooth="yes"/>
      <point x="30" y="554" type="line" smooth="yes"/>
      <point x="75" y="554"/>
      <point x="100" y="528"/>
      <point x="100" y="474" type="curve" smooth="yes"/>
      <point x="100" y="160" type="line" smooth="yes"/>
      <point x="100" y="113"/>
      <point x="94" y="18"/>
    </contour>
    <contour>
      <point x="353" y="297" type="curve" smooth="yes"/>
      <point x="331" y="297"/>
      <point x="313" y="315"/>
      <point x="313" y="337" type="curve" smooth="yes"/>
      <point x="313" y="359"/>
      <point x="331" y="377"/>
      <point x="353" y="377" type="curve" smooth="yes"/>
      <point x="375" y="377"/>
      <point x="393" y="359"/>
      <point x="393" y="337" type="curve" smooth="yes"/>
      <point x="393" y="315"/>
      <point x="375" y="297"/>
    </contour>
    <contour>
      <point x="378" y="-122" type="line"/>
      <point x="363" y="-50"/>
      <point x="310" y="-34"/>
      <point x="274" y="-34" type="curve" smooth="yes"/>
      <point x="222" y="-34"/>
      <point x="161" y="-59"/>
      <point x="113" y="-59" type="curve" smooth="yes"/>
      <point x="77" y="-59"/>
      <point x="40" y="-40"/>
      <point x="40" y="7" type="curve" smooth="yes"/>
      <point x="40" y="35"/>
      <point x="53" y="63"/>
      <point x="53" y="76" type="curve" smooth="yes"/>
      <point x="53" y="82"/>
      <point x="50" y="90"/>
      <point x="40" y="90" type="curve" smooth="yes"/>
      <point x="15" y="90"/>
      <point x="7" y="41"/>
      <point x="7" y="14" type="curve" smooth="yes"/>
      <point x="7" y="-42"/>
      <point x="41" y="-94"/>
      <point x="121" y="-94" type="curve" smooth="yes"/>
      <point x="179" y="-94"/>
      <point x="238" y="-73"/>
      <point x="287" y="-73" type="curve" smooth="yes"/>
      <point x="319" y="-73"/>
      <point x="352" y="-95"/>
      <point x="352" y="-142" type="curve"/>
    </contour>
    <contour>
      <point x="372" y="-167" type="curve" smooth="yes"/>
      <point x="383" y="-167"/>
      <point x="392" y="-155"/>
      <point x="392" y="-141" type="curve" smooth="yes"/>
      <point x="392" y="200" type="line"/>
      <point x="352" y="168" type="line"/>
      <point x="352" y="-142" type="line" smooth="yes"/>
      <point x="352" y="-156"/>
      <point x="361" y="-167"/>
    </contour>
  </outline>
</glyph>
<glyph name="bGNa" format="1">
  <advance width="548"/>
  <outline>
    <contour>
      <point x="142" y="142" type="curve" smooth="yes"/>
      <point x="195" y="160"/>
      <point x="299" y="213"/>
      <point x="299" y="308" type="curve" smooth="yes"/>
      <point x="299" y="349"/>
      <point x="282" y="398"/>
      <point x="219" y="398" type="curve" smooth="yes"/>
      <point x="176" y="398"/>
      <point x="147" y="377"/>
      <point x="112" y="377" type="curve" smooth="yes"/>
      <point x="78" y="377"/>
      <point x="61" y="406"/>
      <point x="61" y="438" type="curve" smooth="yes"/>
      <point x="61" y="504"/>
      <point x="119" y="554"/>
      <point x="202" y="554" type="curve" smooth="yes"/>
      <point x="327" y="554"/>
      <point x="407" y="420"/>
      <point x="407" y="297" type="curve"/>
      <point x="424" y="336" type="line"/>
      <point x="424" y="500"/>
      <point x="307" y="588"/>
      <point x="198" y="588" type="curve" smooth="yes"/>
      <point x="95" y="588"/>
      <point x="19" y="519"/>
      <point x="19" y="444" type="curve" smooth="yes"/>
      <point x="19" y="382"/>
      <point x="56" y="338"/>
      <point x="114" y="338" type="curve" smooth="yes"/>
      <point x="156" y="338"/>
      <point x="195" y="365"/>
      <point x="226" y="365" type="curve" smooth="yes"/>
      <point x="252" y="365"/>
      <point x="267" y="342"/>
      <point x="267" y="312" type="curve" smooth="yes"/>
      <point x="267" y="251"/>
      <point x="199" y="212"/>
      <point x="125" y="180" type="curve" smooth="yes"/>
      <point x="107" y="172"/>
      <point x="98" y="163"/>
      <point x="98" y="151" type="curve" smooth="yes"/>
      <point x="98" y="137"/>
      <point x="117" y="133"/>
    </contour>
    <contour>
      <point x="211" y="2" type="curve" smooth="yes"/>
      <point x="188" y="2"/>
      <point x="170" y="20"/>
      <point x="170" y="42" type="curve" smooth="yes"/>
      <point x="170" y="68"/>
      <point x="188" y="82"/>
      <point x="211" y="82" type="curve" smooth="yes"/>
      <point x="232" y="82"/>
      <point x="250" y="68"/>
      <point x="250" y="42" type="curve" smooth="yes"/>
      <point x="250" y="20"/>
      <point x="232" y="2"/>
    </contour>
    <contour>
      <point x="212" y="-33" type="curve" smooth="yes"/>
      <point x="249" y="-33"/>
      <point x="286" y="-5"/>
      <point x="286" y="38" type="curve" smooth="yes"/>
      <point x="286" y="78"/>
      <point x="255" y="105"/>
      <point x="216" y="110" type="curve"/>
      <point x="216" y="99" type="line"/>
      <point x="302" y="112"/>
      <point x="407" y="56"/>
      <point x="407" y="-19" type="curve"/>
      <point x="441" y="-24" type="line"/>
      <point x="441" y="74"/>
      <point x="331" y="135"/>
      <point x="244" y="135" type="curve" smooth="yes"/>
      <point x="191" y="135"/>
      <point x="133" y="105"/>
      <point x="133" y="45" type="curve" smooth="yes"/>
      <point x="133" y="-2"/>
      <point x="167" y="-33"/>
    </contour>
    <contour>
      <point x="427" y="-82" type="curve" smooth="yes"/>
      <point x="438" y="-82"/>
      <point x="447" y="-71"/>
      <point x="447" y="-57" type="curve" smooth="yes"/>
      <point x="447" y="492" type="line" smooth="yes"/>
      <point x="447" y="544"/>
      <point x="450" y="554"/>
      <point x="488" y="554" type="curve" smooth="yes"/>
      <point x="548" y="554" type="line" smooth="yes"/>
      <point x="559" y="554"/>
      <point x="568" y="561"/>
      <point x="568" y="571" type="curve" smooth="yes"/>
      <point x="568" y="580"/>
      <point x="559" y="587"/>
      <point x="548" y="587" type="curve" smooth="yes"/>
      <point x="476" y="587" type="line" smooth="yes"/>
      <point x="427" y="587"/>
      <point x="407" y="558"/>
      <point x="407" y="500" type="curve" smooth="yes"/>
      <point x="407" y="-57" type="line" smooth="yes"/>
      <point x="407" y="-71"/>
      <point x="416" y="-82"/>
    </contour>
  </outline>
</glyph>
<glyph name="bHBa" format="1">
  <advance width="488"/>
  <outline>
    <contour>
      <point x="429" y="107" type="curve" smooth="yes"/>
      <point x="462" y="107"/>
      <point x="472" y="113"/>
      <point x="472" y="125" type="curve" smooth="yes"/>
      <point x="472" y="143"/>
      <point x="450" y="143"/>
      <point x="414" y="148" type="curve" smooth="yes"/>
      <point x="366" y="154"/>
      <point x="322" y="169"/>
      <point x="265" y="211" type="curve" smooth="yes"/>
      <point x="213" y="249"/>
      <point x="176" y="277"/>
      <point x="140" y="277" type="curve" smooth="yes"/>
      <point x="107" y="277"/>
      <point x="87" y="256"/>
      <point x="87" y="230" type="curve" smooth="yes"/>
      <point x="87" y="201"/>
      <point x="112" y="174"/>
      <point x="182" y="174" type="curve" smooth="yes"/>
      <point x="286" y="174"/>
      <point x="408" y="231"/>
      <point x="408" y="345" type="curve" smooth="yes"/>
      <point x="408" y="438"/>
      <point x="329" y="499"/>
      <point x="235" y="499" type="curve" smooth="yes"/>
      <point x="171" y="499"/>
      <point x="88" y="470"/>
      <point x="88" y="402" type="curve" smooth="yes"/>
      <point x="88" y="363"/>
      <point x="115" y="329"/>
      <point x="160" y="329" type="curve" smooth="yes"/>
      <point x="203" y="329"/>
      <point x="233" y="360"/>
      <point x="233" y="398" type="curve" smooth="yes"/>
      <point x="233" y="435"/>
      <point x="204" y="459"/>
      <point x="170" y="459" type="curve" smooth="yes"/>
      <point x="156" y="459"/>
      <point x="141" y="455"/>
      <point x="129" y="446" type="curve"/>
      <point x="138" y="441" type="line"/>
      <point x="159" y="455"/>
      <point x="194" y="467"/>
      <point x="228" y="467" type="curve" smooth="yes"/>
      <point x="291" y="467"/>
      <point x="366" y="424"/>
      <point x="366" y="346" type="curve" smooth="yes"/>
      <point x="366" y="255"/>
      <point x="259" y="217"/>
      <point x="172" y="217" type="curve" smooth="yes"/>
      <point x="131" y="217"/>
      <point x="124" y="226"/>
      <point x="124" y="232" type="curve" smooth="yes"/>
      <point x="124" y="236"/>
      <point x="129" y="239"/>
      <point x="138" y="239" type="curve" smooth="yes"/>
      <point x="163" y="239"/>
      <point x="193" y="215"/>
      <point x="236" y="188" type="curve" smooth="yes"/>
      <point x="304" y="145"/>
      <point x="377" y="107"/>
    </contour>
    <contour>
      <point x="378" y="-44" type="line"/>
      <point x="344" y="22"/>
      <point x="234" y="60"/>
      <point x="190" y="60" type="curve"/>
      <point x="200" y="49" type="line"/>
      <point x="371" y="130" type="line"/>
      <point x="348" y="157" type="line"/>
      <point x="200" y="88" type="line"/>
      <point x="179" y="77"/>
      <point x="167" y="71"/>
      <point x="167" y="56" type="curve" smooth="yes"/>
      <point x="167" y="43"/>
      <point x="174" y="36"/>
      <point x="190" y="32" type="curve" smooth="yes"/>
      <point x="268" y="15"/>
      <point x="353" y="-26"/>
      <point x="353" y="-57" type="curve"/>
    </contour>
    <contour>
      <point x="160" y="365" type="curve" smooth="yes"/>
      <point x="140" y="365"/>
      <point x="124" y="381"/>
      <point x="124" y="401" type="curve" smooth="yes"/>
      <point x="124" y="421"/>
      <point x="140" y="437"/>
      <point x="160" y="437" type="curve" smooth="yes"/>
      <point x="180" y="437"/>
      <point x="196" y="421"/>
      <point x="196" y="401" type="curve" smooth="yes"/>
      <point x="196" y="381"/>
      <point x="180" y="365"/>
    </contour>
    <contour>
      <point x="373" y="-82" type="curve" smooth="yes"/>
      <point x="384" y="-82"/>
      <point x="392" y="-71"/>
      <point x="392" y="-57" type="curve"/>
      <point x="393" y="146" type="line"/>
      <point x="353" y="143" type="line"/>
      <point x="353" y="-57" type="line" smooth="yes"/>
      <point x="353" y="-71"/>
      <point x="362" y="-82"/>
    </contour>
    <contour>
      <point x="488" y="554" type="line" smooth="yes"/>
      <point x="499" y="554"/>
      <point x="508" y="562"/>
      <point x="508" y="571" type="curve" smooth="yes"/>
      <point x="508" y="580"/>
      <point x="499" y="587"/>
      <point x="488" y="587" type="curve" smooth="yes"/>
      <point x="0" y="587" type="line" smooth="yes"/>
      <point x="-11" y="587"/>
      <point x="-20" y="580"/>
      <point x="-20" y="571" type="curve" smooth="yes"/>
      <point x="-20" y="562"/>
      <point x="-11" y="554"/>
      <point x="0" y="554" type="curve" smooth="yes"/>
    </contour>
  </outline>
</glyph>
<glyph name="bHRa" format="1">
  <advance width="488"/>
  <outline>
    <contour>
      <point x="436" y="68" type="curve" smooth="yes"/>
      <point x="465" y="68"/>
      <point x="472" y="76"/>
      <point x="472" y="86" type="curve" smooth="yes"/>
      <point x="472" y="105"/>
      <point x="447" y="103"/>
      <point x="404" y="111" type="curve" smooth="yes"/>
      <point x="344" y="123"/>
      <point x="323" y="143"/>
      <point x="255" y="200" type="curve" smooth="yes"/>
      <point x="199" y="247"/>
      <point x="174" y="267"/>
      <point x="141" y="267" type="curve" smooth="yes"/>
      <point x="108" y="267"/>
      <point x="87" y="246"/>
      <point x="87" y="220" type="curve" smooth="yes"/>
      <point x="87" y="193"/>
      <point x="111" y="164"/>
      <point x="177" y="164" type="curve" smooth="yes"/>
      <point x="278" y="164"/>
      <point x="408" y="232"/>
      <point x="408" y="347" type="curve" smooth="yes"/>
      <point x="408" y="438"/>
      <point x="328" y="499"/>
      <point x="235" y="499" type="curve" smooth="yes"/>
      <point x="171" y="499"/>
      <point x="88" y="470"/>
      <point x="88" y="402" type="curve" smooth="yes"/>
      <point x="88" y="363"/>
      <point x="115" y="329"/>
      <point x="160" y="329" type="curve" smooth="yes"/>
      <point x="203" y="329"/>
      <point x="233" y="360"/>
      <point x="233" y="398" type="curve" smooth="yes"/>
      <point x="233" y="435"/>
      <point x="204" y="459"/>
      <point x="170" y="459" type="curve" smooth="yes"/>
      <point x="156" y="459"/>
      <point x="141" y="455"/>
      <point x="129" y="446" type="curve"/>
      <point x="138" y="441" type="line"/>
      <point x="159" y="455"/>
      <point x="194" y="467"/>
      <point x="227" y="467" type="curve" smooth="yes"/>
      <point x="291" y="467"/>
      <point x="366" y="423"/>
      <point x="366" y="349" type="curve" smooth="yes"/>
      <point x="366" y="263"/>
      <point x="263" y="207"/>
      <point x="161" y="207" type="curve" smooth="yes"/>
      <point x="130" y="207"/>
      <point x="124" y="212"/>
      <point x="124" y="219" type="curve" smooth="yes"/>
      <point x="124" y="226"/>
      <point x="129" y="229"/>
      <point x="138" y="229" type="curve" smooth="yes"/>
      <point x="159" y="229"/>
      <point x="180" y="210"/>
      <point x="219" y="179" type="curve" smooth="yes"/>
      <point x="281" y="130"/>
      <point x="356" y="68"/>
    </contour>
    <contour>
      <point x="160" y="365" type="curve" smooth="yes"/>
      <point x="140" y="365"/>
      <point x="124" y="381"/>
      <point x="124" y="401" type="curve" smooth="yes"/>
      <point x="124" y="421"/>
      <point x="140" y="437"/>
      <point x="160" y="437" type="curve" smooth="yes"/>
      <point x="180" y="437"/>
      <point x="196" y="421"/>
      <point x="196" y="401" type="curve" smooth="yes"/>
      <point x="196" y="381"/>
      <point x="180" y="365"/>
    </contour>
    <contour>
      <point x="488" y="554" type="line" smooth="yes"/>
      <point x="499" y="554"/>
      <point x="508" y="562"/>
      <point x="508" y="571" type="curve" smooth="yes"/>
      <point x="508" y="580"/>
      <point x="499" y="587"/>
      <point x="488" y="587" type="curve" smooth="yes"/>
      <point x="0" y="587" type="line" smooth="yes"/>
      <point x="-11" y="587"/>
      <point x="-20" y="580"/>
      <point x="-20" y="571" type="curve" smooth="yes"/>
      <point x="-20" y="562"/>
      <point x="-11" y="554"/>
      <point x="0" y="554" type="curve" smooth="yes"/>
    </contour>
    <contour>
      <point x="384" y="-37" type="line"/>
      <point x="367" y="35"/>
      <point x="312" y="51"/>
      <point x="270" y="51" type="curve" smooth="yes"/>
      <point x="221" y="51"/>
      <point x="164" y="26"/>
      <point x="119" y="26" type="curve" smooth="yes"/>
      <point x="83" y="26"/>
      <point x="46" y="45"/>
      <point x="46" y="92" type="curve" smooth="yes"/>
      <point x="46" y="120"/>
      <point x="59" y="148"/>
      <point x="59" y="161" type="curve" smooth="yes"/>
      <point x="59" y="167"/>
      <point x="56" y="175"/>
      <point x="46" y="175" type="curve" smooth="yes"/>
      <point x="21" y="175"/>
      <point x="13" y="126"/>
      <point x="13" y="99" type="curve" smooth="yes"/>
      <point x="13" y="43"/>
      <point x="47" y="-9"/>
      <point x="127" y="-9" type="curve" smooth="yes"/>
      <point x="182" y="-9"/>
      <point x="236" y="12"/>
      <point x="278" y="12" type="curve" smooth="yes"/>
      <point x="321" y="12"/>
      <point x="358" y="-10"/>
      <point x="358" y="-57" type="curve"/>
    </contour>
    <contour>
      <point x="378" y="-82" type="curve" smooth="yes"/>
      <point x="389" y="-82"/>
      <point x="398" y="-70"/>
      <point x="398" y="-56" type="curve" smooth="yes"/>
      <point x="398" y="99" type="line"/>
      <point x="358" y="99" type="line"/>
      <point x="358" y="-57" type="line" smooth="yes"/>
      <point x="358" y="-71"/>
      <point x="367" y="-82"/>
    </contour>
  </outline>
</glyph>
<glyph name="bJJa" format="1">
  <advance width="1016"/>
  <outline>
    <contour>
      <point x="320" y="89" type="curve" smooth="yes"/>
      <point x="405" y="89"/>
      <point x="477" y="143"/>
      <point x="477" y="222" type="curve" smooth="yes"/>
      <point x="477" y="317"/>
      <point x="416" y="378"/>
      <point x="390" y="378" type="curve" smooth="yes"/>
      <point x="381" y="378"/>
      <point x="376" y="370"/>
      <point x="376" y="359" type="curve" smooth="yes"/>
      <point x="376" y="329"/>
      <point x="345" y="298"/>
      <point x="304" y="298" type="curve" smooth="yes"/>
      <point x="260" y="298"/>
      <point x="229" y="331"/>
      <point x="229" y="395" type="curve" smooth="yes"/>
      <point x="229" y="450"/>
      <point x="277" y="554"/>
      <point x="354" y="554" type="curve"/>
      <point x="1016" y="554" type="line" smooth="yes"/>
      <point x="1027" y="554"/>
      <point x="1036" y="562"/>
      <point x="1036" y="571" type="curve" smooth="yes"/>
      <point x="1036" y="580"/>
      <point x="1027" y="587"/>
      <point x="1016" y="587" type="curve" smooth="yes"/>
      <point x="359" y="587" type="line" smooth="yes"/>
      <point x="294" y="587"/>
      <point x="260" y="552"/>
      <point x="239" y="523" type="curve"/>
      <point x="257" y="514" type="line"/>
      <point x="257" y="572"/>
      <point x="205" y="587"/>
      <point x="148" y="587" type="curve" smooth="yes"/>
      <point x="0" y="587" type="line" smooth="yes"/>
      <point x="-11" y="587"/>
      <point x="-20" y="580"/>
      <point x="-20" y="571" type="curve" smooth="yes"/>
      <point x="-20" y="562"/>
      <point x="-11" y="554"/>
      <point x="0" y="554" type="curve" smooth="yes"/>
      <point x="161" y="554" type="line" smooth="yes"/>
      <point x="208" y="554"/>
      <point x="227" y="537"/>
      <point x="227" y="521" type="curve" smooth="yes"/>
      <point x="227" y="492"/>
      <point x="189" y="452"/>
      <point x="189" y="383" type="curve" smooth="yes"/>
      <point x="189" y="326"/>
      <point x="228" y="263"/>
      <point x="304" y="263" type="curve" smooth="yes"/>
      <point x="367" y="263"/>
      <point x="407" y="318"/>
      <point x="407" y="353" type="curve"/>
      <point x="393" y="342" type="line"/>
      <point x="426" y="313"/>
      <point x="439" y="277"/>
      <point x="439" y="244" type="curve" smooth="yes"/>
      <point x="439" y="187"/>
      <point x="396" y="137"/>
      <point x="313" y="137" type="curve" smooth="yes"/>
      <point x="197" y="137"/>
      <point x="80" y="252"/>
      <point x="70" y="446" type="curve" smooth="yes"/>
      <point x="69" y="458"/>
      <point x="62" y="466"/>
      <point x="52" y="466" type="curve" smooth="yes"/>
      <point x="43" y="466"/>
      <point x="37" y="458"/>
      <point x="37" y="448" type="curve" smooth="yes"/>
      <point x="37" y="270"/>
      <point x="155" y="89"/>
    </contour>
    <contour>
      <point x="902" y="-10" type="curve" smooth="yes"/>
      <point x="918" y="-10"/>
      <point x="921" y="11"/>
      <point x="921" y="31" type="curve" smooth="yes"/>
      <point x="921" y="140"/>
      <point x="908" y="180"/>
      <point x="908" y="241" type="curve" smooth="yes"/>
      <point x="908" y="336"/>
      <point x="964" y="380"/>
      <point x="964" y="406" type="curve" smooth="yes"/>
      <point x="964" y="417"/>
      <point x="958" y="427"/>
      <point x="943" y="427" type="curve" smooth="yes"/>
      <point x="913" y="427"/>
      <point x="893" y="378"/>
      <point x="819" y="378" type="curve" smooth="yes"/>
      <point x="735" y="378"/>
      <point x="704" y="435"/>
      <point x="677" y="489" type="curve" smooth="yes"/>
      <point x="669" y="505"/>
      <point x="663" y="509"/>
      <point x="656" y="509" type="curve" smooth="yes"/>
      <point x="646" y="509"/>
      <point x="637" y="501"/>
      <point x="617" y="490" type="curve" smooth="yes"/>
      <point x="600" y="480"/>
      <point x="565" y="456"/>
      <point x="482" y="456" type="curve" smooth="yes"/>
      <point x="426" y="456"/>
      <point x="367" y="480"/>
      <point x="354" y="566" type="curve"/>
      <point x="318" y="568" type="line"/>
      <point x="339" y="470"/>
      <point x="392" y="419"/>
      <point x="493" y="419" type="curve" smooth="yes"/>
      <point x="524" y="419"/>
      <point x="561" y="427"/>
      <point x="596" y="440" type="curve"/>
      <point x="581" y="457" type="line"/>
      <point x="552" y="422"/>
      <point x="529" y="374"/>
      <point x="529" y="320" type="curve" smooth="yes"/>
      <point x="529" y="255"/>
      <point x="564" y="193"/>
      <point x="644" y="193" type="curve" smooth="yes"/>
      <point x="704" y="193"/>
      <point x="747" y="243"/>
      <point x="747" y="283" type="curve"/>
      <point x="732" y="276" type="line"/>
      <point x="767" y="248"/>
      <point x="781" y="211"/>
      <point x="781" y="177" type="curve" smooth="yes"/>
      <point x="781" y="120"/>
      <point x="733" y="66"/>
      <point x="653" y="66" type="curve" smooth="yes"/>
      <point x="569" y="66"/>
      <point x="477" y="141"/>
      <point x="477" y="222" type="curve"/>
      <point x="446" y="199" type="line"/>
      <point x="454" y="99"/>
      <point x="565" y="19"/>
      <point x="659" y="19" type="curve" smooth="yes"/>
      <point x="745" y="19"/>
      <point x="817" y="76"/>
      <point x="817" y="163" type="curve" smooth="yes"/>
      <point x="817" y="247"/>
      <point x="755" y="308"/>
      <point x="730" y="308" type="curve" smooth="yes"/>
      <point x="724" y="308"/>
      <point x="716" y="304"/>
      <point x="716" y="290" type="curve" smooth="yes"/>
      <point x="716" y="260"/>
      <point x="692" y="230"/>
      <point x="644" y="230" type="curve" smooth="yes"/>
      <point x="603" y="230"/>
      <point x="567" y="258"/>
      <point x="567" y="318" type="curve" smooth="yes"/>
      <point x="567" y="399"/>
      <point x="622" y="451"/>
      <point x="672" y="474" type="curve"/>
      <point x="641" y="486" type="line"/>
      <point x="663" y="438"/>
      <point x="710" y="335"/>
      <point x="818" y="335" type="curve" smooth="yes"/>
      <point x="876" y="335"/>
      <point x="924" y="374"/>
      <point x="937" y="389" type="curve"/>
      <point x="927" y="394" type="line"/>
      <point x="885" y="341"/>
      <point x="869" y="290"/>
      <point x="869" y="243" type="curve" smooth="yes"/>
      <point x="869" y="188"/>
      <point x="881" y="128"/>
      <point x="881" y="31" type="curve" smooth="yes"/>
      <point x="881" y="11"/>
      <point x="883" y="-10"/>
    </contour>
  </outline>
</glyph>
<glyph name="bKTRa" format="1">
  <advance width="717"/>
  <outline>
    <contour>
      <point x="360" y="37" type="curve" smooth="yes"/>
      <point x="436" y="37"/>
      <point x="522" y="79"/>
      <point x="522" y="167" type="curve" smooth="yes"/>
      <point x="522" y="244"/>
      <point x="458" y="311"/>
      <point x="384" y="311" type="curve" smooth="yes"/>
      <point x="345" y="311"/>
      <point x="313" y="291"/>
      <point x="313" y="249" type="curve" smooth="yes"/>
      <point x="313" y="217"/>
      <point x="342" y="193"/>
      <point x="375" y="193" type="curve" smooth="yes"/>
      <point x="409" y="193"/>
      <point x="453" y="224"/>
      <point x="477" y="271" type="curve" smooth="yes"/>
      <point x="516" y="347"/>
      <point x="556" y="408"/>
      <point x="607" y="408" type="curve" smooth="yes"/>
      <point x="643" y="408"/>
      <point x="662" y="379"/>
      <point x="662" y="347" type="curve" smooth="yes"/>
      <point x="662" y="316"/>
      <point x="646" y="271"/>
      <point x="602" y="271" type="curve"/>
      <point x="609" y="257" type="line"/>
      <point x="627" y="257"/>
      <point x="644" y="286"/>
      <point x="644" y="302" type="curve" smooth="yes"/>
      <point x="644" y="328"/>
      <point x="624" y="354"/>
      <point x="591" y="354" type="curve" smooth="yes"/>
      <point x="562" y="354"/>
      <point x="539" y="330"/>
      <point x="539" y="302" type="curve" smooth="yes"/>
      <point x="539" y="266"/>
      <point x="567" y="245"/>
      <point x="601" y="245" type="curve" smooth="yes"/>
      <point x="655" y="245"/>
      <point x="692" y="301"/>
      <point x="692" y="353" type="curve" smooth="yes"/>
      <point x="692" y="411"/>
      <point x="647" y="443"/>
      <point x="603" y="443" type="curve" smooth="yes"/>
      <point x="550" y="443"/>
      <point x="508" y="394"/>
      <point x="477" y="346" type="curve"/>
      <point x="497" y="343" type="line"/>
      <point x="500" y="423"/>
      <point x="434" y="493"/>
      <point x="328" y="493" type="curve" smooth="yes"/>
      <point x="238" y="493"/>
      <point x="161" y="417"/>
      <point x="161" y="340" type="curve" smooth="yes"/>
      <point x="161" y="290"/>
      <point x="193" y="262"/>
      <point x="230" y="262" type="curve" smooth="yes"/>
      <point x="265" y="262"/>
      <point x="297" y="283"/>
      <point x="297" y="328" type="curve" smooth="yes"/>
      <point x="297" y="366"/>
      <point x="267" y="393"/>
      <point x="232" y="392" type="curve" smooth="yes"/>
      <point x="208" y="391"/>
      <point x="179" y="373"/>
      <point x="179" y="341" type="curve"/>
      <point x="202" y="358" type="line"/>
      <point x="202" y="409"/>
      <point x="272" y="458"/>
      <point x="342" y="458" type="curve" smooth="yes"/>
      <point x="412" y="458"/>
      <point x="459" y="415"/>
      <point x="459" y="354" type="curve" smooth="yes"/>
      <point x="459" y="302"/>
      <point x="418" y="231"/>
      <point x="377" y="231" type="curve" smooth="yes"/>
      <point x="364" y="231"/>
      <point x="352" y="238"/>
      <point x="352" y="251" type="curve" smooth="yes"/>
      <point x="352" y="264"/>
      <point x="365" y="278"/>
      <point x="391" y="278" type="curve" smooth="yes"/>
      <point x="437" y="278"/>
      <point x="486" y="233"/>
      <point x="486" y="174" type="curve" smooth="yes"/>
      <point x="486" y="122"/>
      <point x="434" y="82"/>
      <point x="358" y="82" type="curve" smooth="yes"/>
      <point x="144" y="82"/>
      <point x="77" y="381"/>
      <point x="64" y="425" type="curve" smooth="yes"/>
      <point x="60" y="440"/>
      <point x="54" y="452"/>
      <point x="41" y="452" type="curve" smooth="yes"/>
      <point x="31" y="452"/>
      <point x="28" y="442"/>
      <point x="28" y="436" type="curve" smooth="yes"/>
      <point x="28" y="401"/>
      <point x="107" y="37"/>
    </contour>
    <contour>
      <point x="231" y="294" type="curve" smooth="yes"/>
      <point x="212" y="294"/>
      <point x="196" y="310"/>
      <point x="196" y="329" type="curve" smooth="yes"/>
      <point x="196" y="348"/>
      <point x="212" y="364"/>
      <point x="231" y="364" type="curve" smooth="yes"/>
      <point x="250" y="364"/>
      <point x="266" y="348"/>
      <point x="266" y="329" type="curve" smooth="yes"/>
      <point x="266" y="310"/>
      <point x="250" y="294"/>
    </contour>
    <contour>
      <point x="594" y="272" type="curve" smooth="yes"/>
      <point x="580" y="272"/>
      <point x="566" y="283"/>
      <point x="566" y="299" type="curve" smooth="yes"/>
      <point x="566" y="317"/>
      <point x="580" y="326"/>
      <point x="594" y="326" type="curve" smooth="yes"/>
      <point x="608" y="326"/>
      <point x="620" y="317"/>
      <point x="620" y="299" type="curve" smooth="yes"/>
      <point x="620" y="283"/>
      <point x="608" y="272"/>
    </contour>
    <contour>
      <point x="717" y="554" type="line" smooth="yes"/>
      <point x="728" y="554"/>
      <point x="737" y="562"/>
      <point x="737" y="571" type="curve" smooth="yes"/>
      <point x="737" y="580"/>
      <point x="728" y="587"/>
      <point x="717" y="587" type="curve" smooth="yes"/>
      <point x="0" y="587" type="line" smooth="yes"/>
      <point x="-11" y="587"/>
      <point x="-20" y="580"/>
      <point x="-20" y="571" type="curve" smooth="yes"/>
      <point x="-20" y="562"/>
      <point x="-11" y="554"/>
      <point x="0" y="554" type="curve" smooth="yes"/>
    </contour>
    <contour>
      <point x="463" y="-75" type="line"/>
      <point x="441" y="-22"/>
      <point x="382" y="-7"/>
      <point x="339" y="-7" type="curve" smooth="yes"/>
      <point x="278" y="-7"/>
      <point x="222" y="-27"/>
      <point x="160" y="-27" type="curve" smooth="yes"/>
      <point x="112" y="-27"/>
      <point x="80" y="-13"/>
      <point x="80" y="40" type="curve" smooth="yes"/>
      <point x="80" y="66"/>
      <point x="88" y="91"/>
      <point x="88" y="102" type="curve" smooth="yes"/>
      <point x="88" y="109"/>
      <point x="85" y="117"/>
      <point x="75" y="117" type="curve" smooth="yes"/>
      <point x="50" y="117"/>
      <point x="42" y="68"/>
      <point x="42" y="41" type="curve" smooth="yes"/>
      <point x="42" y="-20"/>
      <point x="84" y="-67"/>
      <point x="159" y="-67" type="curve" smooth="yes"/>
      <point x="224" y="-67"/>
      <point x="290" y="-46"/>
      <point x="348" y="-46" type="curve" smooth="yes"/>
      <point x="392" y="-46"/>
      <point x="439" y="-61"/>
      <point x="439" y="-91" type="curve"/>
    </contour>
    <contour>
      <point x="459" y="-120" type="curve" smooth="yes"/>
      <point x="470" y="-120"/>
      <point x="479" y="-109"/>
      <point x="479" y="-95" type="curve" smooth="yes"/>
      <point x="479" y="98" type="line"/>
      <point x="439" y="78" type="line"/>
      <point x="439" y="-95" type="line" smooth="yes"/>
      <point x="439" y="-109"/>
      <point x="448" y="-120"/>
    </contour>
  </outline>
</glyph>
<glyph name="bKhBa" format="1">
  <advance width="542"/>
  <outline>
    <contour>
      <point x="407" y="168" type="line"/>
      <point x="374" y="219"/>
      <point x="249" y="297"/>
      <point x="126" y="297" type="curve"/>
      <point x="126" y="278" type="line"/>
      <point x="273" y="278"/>
      <point x="342" y="360"/>
      <point x="342" y="444" type="curve" smooth="yes"/>
      <point x="342" y="527"/>
      <point x="275" y="580"/>
      <point x="249" y="580" type="curve" smooth="yes"/>
      <point x="240" y="580"/>
      <point x="234" y="574"/>
      <point x="234" y="560" type="curve" smooth="yes"/>
      <point x="234" y="549"/>
      <point x="238" y="533"/>
      <point x="238" y="518" type="curve" smooth="yes"/>
      <point x="238" y="445"/>
      <point x="180" y="420"/>
      <point x="128" y="420" type="curve" smooth="yes"/>
      <point x="111" y="420"/>
      <point x="94" y="423"/>
      <point x="77" y="430" type="curve"/>
      <point x="89" y="413" type="line"/>
      <point x="126" y="413"/>
      <point x="158" y="433"/>
      <point x="158" y="474" type="curve" smooth="yes"/>
      <point x="158" y="517"/>
      <point x="123" y="539"/>
      <point x="91" y="539" type="curve" smooth="yes"/>
      <point x="55" y="539"/>
      <point x="26" y="512"/>
      <point x="26" y="472" type="curve" smooth="yes"/>
      <point x="26" y="415"/>
      <point x="81" y="387"/>
      <point x="136" y="387" type="curve" smooth="yes"/>
      <point x="212" y="387"/>
      <point x="270" y="434"/>
      <point x="270" y="516" type="curve" smooth="yes"/>
      <point x="270" y="537"/>
      <point x="263" y="556"/>
      <point x="259" y="565" type="curve"/>
      <point x="250" y="554" type="line"/>
      <point x="281" y="537"/>
      <point x="307" y="499"/>
      <point x="307" y="447" type="curve" smooth="yes"/>
      <point x="307" y="333"/>
      <point x="181" y="318"/>
      <point x="123" y="316" type="curve"/>
      <point x="112" y="316"/>
      <point x="88" y="315"/>
      <point x="88" y="295" type="curve" smooth="yes"/>
      <point x="88" y="278"/>
      <point x="105" y="269"/>
      <point x="118" y="267" type="curve" smooth="yes"/>
      <point x="250" y="246"/>
      <point x="331" y="201"/>
      <point x="383" y="143" type="curve"/>
    </contour>
    <contour>
      <point x="423" y="-77" type="line"/>
      <point x="384" y="-15"/>
      <point x="267" y="50"/>
      <point x="202" y="50" type="curve"/>
      <point x="209" y="38" type="line"/>
      <point x="423" y="145" type="line"/>
      <point x="423" y="187" type="line"/>
      <point x="216" y="83" type="line" smooth="yes"/>
      <point x="184" y="67"/>
      <point x="173" y="61"/>
      <point x="173" y="46" type="curve" smooth="yes"/>
      <point x="173" y="28"/>
      <point x="186" y="23"/>
      <point x="196" y="20" type="curve" smooth="yes"/>
      <point x="334" y="-25"/>
      <point x="401" y="-76"/>
      <point x="401" y="-115" type="curve"/>
    </contour>
    <contour>
      <point x="92" y="435" type="curve" smooth="yes"/>
      <point x="72" y="435"/>
      <point x="57" y="450"/>
      <point x="57" y="470" type="curve" smooth="yes"/>
      <point x="57" y="490"/>
      <point x="72" y="505"/>
      <point x="92" y="505" type="curve" smooth="yes"/>
      <point x="112" y="505"/>
      <point x="127" y="490"/>
      <point x="127" y="470" type="curve" smooth="yes"/>
      <point x="127" y="450"/>
      <point x="112" y="435"/>
    </contour>
    <contour>
      <point x="421" y="-140" type="curve" smooth="yes"/>
      <point x="432" y="-140"/>
      <point x="441" y="-129"/>
      <point x="441" y="-115" type="curve" smooth="yes"/>
      <point x="441" y="492" type="line" smooth="yes"/>
      <point x="441" y="544"/>
      <point x="444" y="554"/>
      <point x="482" y="554" type="curve" smooth="yes"/>
      <point x="542" y="554" type="line" smooth="yes"/>
      <point x="553" y="554"/>
      <point x="562" y="561"/>
      <point x="562" y="571" type="curve" smooth="yes"/>
      <point x="562" y="580"/>
      <point x="553" y="587"/>
      <point x="542" y="587" type="curve" smooth="yes"/>
      <point x="470" y="587" type="line" smooth="yes"/>
      <point x="421" y="587"/>
      <point x="401" y="558"/>
      <point x="401" y="482" type="curve" smooth="yes"/>
      <point x="401" y="-115" type="line" smooth="yes"/>
      <point x="401" y="-128"/>
      <point x="410" y="-140"/>
    </contour>
  </outline>
</glyph>
<glyph name="bLKa" format="1">
  <advance width="720"/>
  <outline>
    <contour>
      <point x="458" y="-82" type="curve" smooth="yes"/>
      <point x="469" y="-82"/>
      <point x="478" y="-71"/>
      <point x="478" y="-57" type="curve" smooth="yes"/>
      <point x="478" y="470" type="line" smooth="yes"/>
      <point x="478" y="544"/>
      <point x="485" y="554"/>
      <point x="519" y="554" type="curve" smooth="yes"/>
      <point x="720" y="554" type="line" smooth="yes"/>
      <point x="731" y="554"/>
      <point x="740" y="561"/>
      <point x="740" y="571" type="curve" smooth="yes"/>
      <point x="740" y="580"/>
      <point x="731" y="587"/>
      <point x="720" y="587" type="curve" smooth="yes"/>
      <point x="507" y="587" type="line" smooth="yes"/>
      <point x="475" y="587"/>
      <point x="440" y="569"/>
      <point x="440" y="498" type="curve"/>
      <point x="460" y="515" type="line"/>
      <point x="460" y="572"/>
      <point x="427" y="587"/>
      <point x="383" y="587" type="curve" smooth="yes"/>
      <point x="0" y="587" type="line" smooth="yes"/>
      <point x="-11" y="587"/>
      <point x="-20" y="580"/>
      <point x="-20" y="571" type="curve" smooth="yes"/>
      <point x="-20" y="561"/>
      <point x="-11" y="554"/>
      <point x="0" y="554" type="curve" smooth="yes"/>
      <point x="383" y="554" type="line" smooth="yes"/>
      <point x="433" y="554"/>
      <point x="438" y="530"/>
      <point x="438" y="477" type="curve" smooth="yes"/>
      <point x="438" y="-57" type="line" smooth="yes"/>
      <point x="438" y="-71"/>
      <point x="447" y="-82"/>
    </contour>
    <contour>
      <point x="463" y="0" type="line"/>
      <point x="447" y="78"/>
      <point x="300" y="146"/>
      <point x="220" y="153" type="curve"/>
      <point x="220" y="137" type="line"/>
      <point x="318" y="181"/>
      <point x="457" y="254"/>
      <point x="457" y="306" type="curve"/>
      <point x="438" y="333" type="line"/>
      <point x="438" y="278"/>
      <point x="315" y="227"/>
      <point x="222" y="180" type="curve" smooth="yes"/>
      <point x="196" y="167"/>
      <point x="195" y="156"/>
      <point x="195" y="145" type="curve" smooth="yes"/>
      <point x="195" y="133"/>
      <point x="204" y="120"/>
      <point x="226" y="115" type="curve" smooth="yes"/>
      <point x="383" y="78"/>
      <point x="438" y="21"/>
      <point x="438" y="-43" type="curve"/>
    </contour>
    <contour>
      <point x="601" y="21" type="curve" smooth="yes"/>
      <point x="658" y="21"/>
      <point x="689" y="74"/>
      <point x="689" y="119" type="curve" smooth="yes"/>
      <point x="689" y="146"/>
      <point x="682" y="191"/>
      <point x="610" y="220" type="curve" smooth="yes"/>
      <point x="519" y="257"/>
      <point x="478" y="252"/>
      <point x="478" y="334" type="curve"/>
      <point x="459" y="277" type="line"/>
      <point x="473" y="217"/>
      <point x="543" y="208"/>
      <point x="606" y="184" type="curve" smooth="yes"/>
      <point x="639" y="171"/>
      <point x="660" y="143"/>
      <point x="660" y="112" type="curve" smooth="yes"/>
      <point x="660" y="94"/>
      <point x="654" y="78"/>
      <point x="636" y="62" type="curve"/>
      <point x="630" y="43" type="line"/>
      <point x="654" y="50"/>
      <point x="659" y="72"/>
      <point x="659" y="84" type="curve" smooth="yes"/>
      <point x="659" y="115"/>
      <point x="630" y="137"/>
      <point x="600" y="137" type="curve" smooth="yes"/>
      <point x="561" y="137"/>
      <point x="539" y="107"/>
      <point x="539" y="80" type="curve" smooth="yes"/>
      <point x="539" y="55"/>
      <point x="560" y="21"/>
    </contour>
    <contour>
      <point x="155" y="199" type="curve" smooth="yes"/>
      <point x="202" y="199"/>
      <point x="231" y="230"/>
      <point x="231" y="268" type="curve" smooth="yes"/>
      <point x="231" y="305"/>
      <point x="204" y="334"/>
      <point x="165" y="334" type="curve" smooth="yes"/>
      <point x="125" y="334"/>
      <point x="100" y="302"/>
      <point x="100" y="271" type="curve" smooth="yes"/>
      <point x="100" y="250"/>
      <point x="111" y="230"/>
      <point x="136" y="219" type="curve"/>
      <point x="126" y="236" type="line"/>
      <point x="89" y="251"/>
      <point x="56" y="293"/>
      <point x="56" y="346" type="curve" smooth="yes"/>
      <point x="56" y="410"/>
      <point x="104" y="457"/>
      <point x="175" y="457" type="curve" smooth="yes"/>
      <point x="245" y="457"/>
      <point x="300" y="411"/>
      <point x="300" y="366" type="curve" smooth="yes"/>
      <point x="300" y="349"/>
      <point x="292" y="341"/>
      <point x="283" y="341" type="curve" smooth="yes"/>
      <point x="271" y="341"/>
      <point x="258" y="354"/>
      <point x="258" y="378" type="curve" smooth="yes"/>
      <point x="258" y="426"/>
      <point x="308" y="456"/>
      <point x="354" y="456" type="curve" smooth="yes"/>
      <point x="408" y="456"/>
      <point x="438" y="415"/>
      <point x="438" y="379" type="curve"/>
      <point x="464" y="396" type="line"/>
      <point x="448" y="451"/>
      <point x="412" y="493"/>
      <point x="350" y="493" type="curve" smooth="yes"/>
      <point x="279" y="493"/>
      <point x="223" y="438"/>
      <point x="223" y="379" type="curve" smooth="yes"/>
      <point x="223" y="341"/>
      <point x="245" y="310"/>
      <point x="282" y="310" type="curve" smooth="yes"/>
      <point x="312" y="310"/>
      <point x="334" y="330"/>
      <point x="334" y="366" type="curve" smooth="yes"/>
      <point x="334" y="433"/>
      <point x="260" y="497"/>
      <point x="168" y="497" type="curve" smooth="yes"/>
      <point x="87" y="497"/>
      <point x="15" y="447"/>
      <point x="15" y="356" type="curve" smooth="yes"/>
      <point x="15" y="264"/>
      <point x="87" y="199"/>
    </contour>
    <contour>
      <point x="603" y="48" type="curve" smooth="yes"/>
      <point x="585" y="48"/>
      <point x="573" y="62"/>
      <point x="573" y="78" type="curve" smooth="yes"/>
      <point x="573" y="93"/>
      <point x="585" y="108"/>
      <point x="603" y="108" type="curve" smooth="yes"/>
      <point x="622" y="108"/>
      <point x="633" y="93"/>
      <point x="633" y="78" type="curve" smooth="yes"/>
      <point x="633" y="62"/>
      <point x="622" y="48"/>
    </contour>
    <contour>
      <point x="165" y="234" type="curve" smooth="yes"/>
      <point x="145" y="234"/>
      <point x="130" y="248"/>
      <point x="130" y="269" type="curve" smooth="yes"/>
      <point x="130" y="289"/>
      <point x="145" y="304"/>
      <point x="165" y="304" type="curve" smooth="yes"/>
      <point x="185" y="304"/>
      <point x="200" y="289"/>
      <point x="200" y="269" type="curve" smooth="yes"/>
      <point x="200" y="248"/>
      <point x="185" y="234"/>
    </contour>
  </outline>
</glyph>
<glyph name="bLLa" format="1">
  <advance width="660"/>
  <outline>
    <contour>
      <point x="540" y="-82" type="curve" smooth="yes"/>
      <point x="551" y="-82"/>
      <point x="560" y="-71"/>
      <point x="560" y="-57" type="curve" smooth="yes"/>
      <point x="560" y="470" type="line" smooth="yes"/>
      <point x="560" y="544"/>
      <point x="567" y="554"/>
      <point x="601" y="554" type="curve" smooth="yes"/>
      <point x="660" y="554" type="line" smooth="yes"/>
      <point x="671" y="554"/>
      <point x="680" y="561"/>
      <point x="680" y="571" type="curve" smooth="yes"/>
      <point x="680" y="580"/>
      <point x="671" y="587"/>
      <point x="660" y="587" type="curve" smooth="yes"/>
      <point x="589" y="587" type="line" smooth="yes"/>
      <point x="557" y="587"/>
      <point x="522" y="569"/>
      <point x="522" y="498" type="curve"/>
      <point x="542" y="515" type="line"/>
      <point x="542" y="572"/>
      <point x="509" y="587"/>
      <point x="465" y="587" type="curve" smooth="yes"/>
      <point x="0" y="587" type="line" smooth="yes"/>
      <point x="-11" y="587"/>
      <point x="-20" y="580"/>
      <point x="-20" y="571" type="curve" smooth="yes"/>
      <point x="-20" y="561"/>
      <point x="-11" y="554"/>
      <point x="0" y="554" type="curve" smooth="yes"/>
      <point x="465" y="554" type="line" smooth="yes"/>
      <point x="515" y="554"/>
      <point x="520" y="530"/>
      <point x="520" y="477" type="curve" smooth="yes"/>
      <point x="520" y="-57" type="line" smooth="yes"/>
      <point x="520" y="-71"/>
      <point x="529" y="-82"/>
    </contour>
    <contour>
      <point x="275" y="-19" type="curve" smooth="yes"/>
      <point x="255" y="-19"/>
      <point x="240" y="-6"/>
      <point x="240" y="17" type="curve" smooth="yes"/>
      <point x="240" y="35"/>
      <point x="255" y="51"/>
      <point x="275" y="51" type="curve" smooth="yes"/>
      <point x="295" y="51"/>
      <point x="310" y="35"/>
      <point x="310" y="17" type="curve" smooth="yes"/>
      <point x="310" y="-6"/>
      <point x="295" y="-19"/>
    </contour>
    <contour>
      <point x="268" y="-54" type="curve" smooth="yes"/>
      <point x="310" y="-54"/>
      <point x="341" y="-23"/>
      <point x="341" y="15" type="curve" smooth="yes"/>
      <point x="341" y="52"/>
      <point x="315" y="81"/>
      <point x="274" y="81" type="curve" smooth="yes"/>
      <point x="236" y="81"/>
      <point x="210" y="49"/>
      <point x="210" y="18" type="curve" smooth="yes"/>
      <point x="210" y="-3"/>
      <point x="221" y="-23"/>
      <point x="246" y="-34" type="curve"/>
      <point x="236" y="-17" type="line"/>
      <point x="194" y="-2"/>
      <point x="156" y="35"/>
      <point x="156" y="96" type="curve" smooth="yes"/>
      <point x="156" y="151"/>
      <point x="203" y="204"/>
      <point x="282" y="204" type="curve" smooth="yes"/>
      <point x="342" y="204"/>
      <point x="410" y="159"/>
      <point x="410" y="113" type="curve" smooth="yes"/>
      <point x="410" y="96"/>
      <point x="402" y="88"/>
      <point x="393" y="88" type="curve" smooth="yes"/>
      <point x="381" y="88"/>
      <point x="368" y="101"/>
      <point x="368" y="124" type="curve" smooth="yes"/>
      <point x="368" y="173"/>
      <point x="416" y="199"/>
      <point x="450" y="199" type="curve" smooth="yes"/>
      <point x="489" y="199"/>
      <point x="520" y="175"/>
      <point x="520" y="137" type="curve"/>
      <point x="548" y="149" type="line"/>
      <point x="538" y="195"/>
      <point x="509" y="236"/>
      <point x="445" y="236" type="curve" smooth="yes"/>
      <point x="390" y="236"/>
      <point x="333" y="185"/>
      <point x="333" y="126" type="curve" smooth="yes"/>
      <point x="333" y="88"/>
      <point x="355" y="57"/>
      <point x="392" y="57" type="curve" smooth="yes"/>
      <point x="422" y="57"/>
      <point x="444" y="76"/>
      <point x="444" y="115" type="curve" smooth="yes"/>
      <point x="444" y="179"/>
      <point x="373" y="244"/>
      <point x="279" y="244" type="curve" smooth="yes"/>
      <point x="195" y="244"/>
      <point x="115" y="192"/>
      <point x="115" y="101" type="curve" smooth="yes"/>
      <point x="115" y="18"/>
      <point x="180" y="-54"/>
    </contour>
    <contour>
      <point x="201" y="234" type="curve" smooth="yes"/>
      <point x="181" y="234"/>
      <point x="166" y="247"/>
      <point x="166" y="270" type="curve" smooth="yes"/>
      <point x="166" y="288"/>
      <point x="181" y="304"/>
      <point x="201" y="304" type="curve" smooth="yes"/>
      <point x="221" y="304"/>
      <point x="236" y="288"/>
      <point x="236" y="270" type="curve" smooth="yes"/>
      <point x="236" y="247"/>
      <point x="221" y="234"/>
    </contour>
    <contour>
      <point x="194" y="199" type="curve" smooth="yes"/>
      <point x="236" y="199"/>
      <point x="267" y="230"/>
      <point x="267" y="268" type="curve" smooth="yes"/>
      <point x="267" y="305"/>
      <point x="241" y="334"/>
      <point x="200" y="334" type="curve" smooth="yes"/>
      <point x="162" y="334"/>
      <point x="136" y="302"/>
      <point x="136" y="271" type="curve" smooth="yes"/>
      <point x="136" y="250"/>
      <point x="147" y="230"/>
      <point x="172" y="219" type="curve"/>
      <point x="162" y="236" type="line"/>
      <point x="120" y="251"/>
      <point x="86" y="284"/>
      <point x="86" y="335" type="curve" smooth="yes"/>
      <point x="86" y="390"/>
      <point x="128" y="447"/>
      <point x="208" y="447" type="curve" smooth="yes"/>
      <point x="278" y="447"/>
      <point x="350" y="402"/>
      <point x="350" y="356" type="curve" smooth="yes"/>
      <point x="350" y="339"/>
      <point x="342" y="331"/>
      <point x="333" y="331" type="curve" smooth="yes"/>
      <point x="321" y="331"/>
      <point x="308" y="344"/>
      <point x="308" y="367" type="curve" smooth="yes"/>
      <point x="308" y="416"/>
      <point x="356" y="446"/>
      <point x="412" y="446" type="curve" smooth="yes"/>
      <point x="480" y="446"/>
      <point x="522" y="384"/>
      <point x="520" y="310" type="curve"/>
      <point x="538" y="352" type="line"/>
      <point x="538" y="409"/>
      <point x="496" y="483"/>
      <point x="403" y="483" type="curve" smooth="yes"/>
      <point x="330" y="483"/>
      <point x="273" y="428"/>
      <point x="273" y="369" type="curve" smooth="yes"/>
      <point x="273" y="331"/>
      <point x="295" y="300"/>
      <point x="332" y="300" type="curve" smooth="yes"/>
      <point x="362" y="300"/>
      <point x="384" y="319"/>
      <point x="384" y="358" type="curve" smooth="yes"/>
      <point x="384" y="422"/>
      <point x="309" y="487"/>
      <point x="220" y="487" type="curve" smooth="yes"/>
      <point x="121" y="487"/>
      <point x="45" y="431"/>
      <point x="45" y="340" type="curve" smooth="yes"/>
      <point x="45" y="267"/>
      <point x="106" y="199"/>
    </contour>
  </outline>
</glyph>
<glyph name="bLMa" format="1">
  <advance width="755"/>
  <outline>
    <contour>
      <point x="635" y="-12" type="curve" smooth="yes"/>
      <point x="646" y="-12"/>
      <point x="655" y="-1"/>
      <point x="655" y="13" type="curve" smooth="yes"/>
      <point x="655" y="470" type="line" smooth="yes"/>
      <point x="655" y="544"/>
      <point x="662" y="554"/>
      <point x="696" y="554" type="curve" smooth="yes"/>
      <point x="755" y="554" type="line" smooth="yes"/>
      <point x="766" y="554"/>
      <point x="775" y="561"/>
      <point x="775" y="571" type="curve" smooth="yes"/>
      <point x="775" y="580"/>
      <point x="766" y="587"/>
      <point x="755" y="587" type="curve" smooth="yes"/>
      <point x="684" y="587" type="line" smooth="yes"/>
      <point x="652" y="587"/>
      <point x="617" y="569"/>
      <point x="617" y="498" type="curve"/>
      <point x="637" y="515" type="line"/>
      <point x="637" y="572"/>
      <point x="604" y="587"/>
      <point x="560" y="587" type="curve" smooth="yes"/>
      <point x="486" y="587" type="line" smooth="yes"/>
      <point x="448" y="587"/>
      <point x="416" y="566"/>
      <point x="415" y="520" type="curve"/>
      <point x="429" y="530" type="line"/>
      <point x="430" y="561"/>
      <point x="395" y="587"/>
      <point x="350" y="587" type="curve" smooth="yes"/>
      <point x="0" y="587" type="line" smooth="yes"/>
      <point x="-11" y="587"/>
      <point x="-20" y="580"/>
      <point x="-20" y="571" type="curve" smooth="yes"/>
      <point x="-20" y="562"/>
      <point x="-11" y="554"/>
      <point x="0" y="554" type="curve" smooth="yes"/>
      <point x="348" y="554" type="line" smooth="yes"/>
      <point x="414" y="554"/>
      <point x="411" y="494"/>
      <point x="411" y="457" type="curve" smooth="yes"/>
      <point x="411" y="229" type="line" smooth="yes"/>
      <point x="411" y="177"/>
      <point x="402" y="144"/>
      <point x="362" y="144" type="curve" smooth="yes"/>
      <point x="347" y="144"/>
      <point x="331" y="153"/>
      <point x="331" y="171" type="curve" smooth="yes"/>
      <point x="331" y="191"/>
      <point x="351" y="212"/>
      <point x="422" y="212" type="curve" smooth="yes"/>
      <point x="544" y="212"/>
      <point x="615" y="128"/>
      <point x="615" y="48" type="curve"/>
      <point x="630" y="100" type="line"/>
      <point x="614" y="188"/>
      <point x="523" y="251"/>
      <point x="410" y="251" type="curve" smooth="yes"/>
      <point x="356" y="251"/>
      <point x="294" y="226"/>
      <point x="294" y="170" type="curve" smooth="yes"/>
      <point x="294" y="130"/>
      <point x="327" y="106"/>
      <point x="367" y="106" type="curve" smooth="yes"/>
      <point x="430" y="106"/>
      <point x="451" y="157"/>
      <point x="451" y="226" type="curve" smooth="yes"/>
      <point x="451" y="457" type="line" smooth="yes"/>
      <point x="451" y="497"/>
      <point x="452" y="554"/>
      <point x="501" y="554" type="curve" smooth="yes"/>
      <point x="560" y="554" type="line" smooth="yes"/>
      <point x="610" y="554"/>
      <point x="615" y="530"/>
      <point x="615" y="477" type="curve" smooth="yes"/>
      <point x="615" y="13" type="line" smooth="yes"/>
      <point x="615" y="-1"/>
      <point x="624" y="-12"/>
    </contour>
    <contour>
      <point x="161" y="169" type="curve" smooth="yes"/>
      <point x="208" y="169"/>
      <point x="237" y="200"/>
      <point x="237" y="238" type="curve" smooth="yes"/>
      <point x="237" y="275"/>
      <point x="210" y="304"/>
      <point x="171" y="304" type="curve" smooth="yes"/>
      <point x="131" y="304"/>
      <point x="106" y="272"/>
      <point x="106" y="241" type="curve" smooth="yes"/>
      <point x="106" y="220"/>
      <point x="117" y="200"/>
      <point x="142" y="189" type="curve"/>
      <point x="132" y="206" type="line"/>
      <point x="95" y="221"/>
      <point x="62" y="263"/>
      <point x="62" y="316" type="curve" smooth="yes"/>
      <point x="62" y="380"/>
      <point x="110" y="427"/>
      <point x="181" y="427" type="curve" smooth="yes"/>
      <point x="245" y="427"/>
      <point x="296" y="381"/>
      <point x="296" y="336" type="curve" smooth="yes"/>
      <point x="296" y="319"/>
      <point x="288" y="311"/>
      <point x="279" y="311" type="curve" smooth="yes"/>
      <point x="267" y="311"/>
      <point x="254" y="324"/>
      <point x="254" y="348" type="curve" smooth="yes"/>
      <point x="254" y="396"/>
      <point x="297" y="426"/>
      <point x="333" y="426" type="curve" smooth="yes"/>
      <point x="391" y="426"/>
      <point x="411" y="385"/>
      <point x="411" y="349" type="curve"/>
      <point x="437" y="366" type="line"/>
      <point x="421" y="421"/>
      <point x="396" y="463"/>
      <point x="329" y="463" type="curve" smooth="yes"/>
      <point x="267" y="463"/>
      <point x="219" y="408"/>
      <point x="219" y="349" type="curve" smooth="yes"/>
      <point x="219" y="311"/>
      <point x="241" y="280"/>
      <point x="278" y="280" type="curve" smooth="yes"/>
      <point x="308" y="280"/>
      <point x="330" y="300"/>
      <point x="330" y="336" type="curve" smooth="yes"/>
      <point x="330" y="403"/>
      <point x="260" y="467"/>
      <point x="174" y="467" type="curve" smooth="yes"/>
      <point x="93" y="467"/>
      <point x="21" y="417"/>
      <point x="21" y="326" type="curve" smooth="yes"/>
      <point x="21" y="234"/>
      <point x="93" y="169"/>
    </contour>
    <contour>
      <point x="171" y="204" type="curve" smooth="yes"/>
      <point x="151" y="204"/>
      <point x="136" y="218"/>
      <point x="136" y="239" type="curve" smooth="yes"/>
      <point x="136" y="259"/>
      <point x="151" y="274"/>
      <point x="171" y="274" type="curve" smooth="yes"/>
      <point x="191" y="274"/>
      <point x="206" y="259"/>
      <point x="206" y="239" type="curve" smooth="yes"/>
      <point x="206" y="218"/>
      <point x="191" y="204"/>
    </contour>
  </outline>
</glyph>
